<svg width="29" height="24" viewBox="0 0 29 24" fill="none" xmlns="http://www.w3.org/2000/svg">
<path d="M8.91452 23.6319C19.624 23.6319 25.4916 14.7476 25.4916 7.05483C25.4916 6.7984 25.4916 6.55706 25.4765 6.30064C26.6078 5.47103 27.6034 4.44533 28.3877 3.28388C27.3469 3.75148 26.2156 4.05315 25.0391 4.20399C26.2458 3.47997 27.1659 2.34868 27.6033 0.976058C26.4721 1.63974 25.2352 2.12243 23.9078 2.39393C22.852 1.26265 21.3285 0.553711 19.6542 0.553711C16.4413 0.553711 13.8318 3.16321 13.8318 6.37606C13.8318 6.82857 13.8771 7.28108 13.9827 7.70343C9.14078 7.46209 4.8419 5.13919 1.97597 1.60958C1.47821 2.46935 1.19162 3.46488 1.19162 4.53583C1.19162 6.55706 2.21731 8.33695 3.78603 9.39282C2.83575 9.36265 1.93072 9.10622 1.14636 8.66879C1.14636 8.69896 1.14636 8.71405 1.14636 8.74421C1.14636 11.5649 3.15252 13.918 5.82235 14.461C5.33967 14.5967 4.81173 14.6721 4.28379 14.6721C3.9067 14.6721 3.54469 14.642 3.18268 14.5666C3.92179 16.8744 6.07876 18.5638 8.62792 18.609C6.63686 20.1777 4.11787 21.0978 1.38771 21.0978C0.920109 21.0978 0.452514 21.0677 0 21.0224C2.57933 22.6816 5.64134 23.6319 8.92961 23.6319" fill="white"/>
</svg>
