<svg width="23" height="25" viewBox="0 0 23 25" fill="none" xmlns="http://www.w3.org/2000/svg">
<path fill-rule="evenodd" clip-rule="evenodd" d="M8.58115 8.48653V6.58597C8.58115 6.23905 8.59624 6.11837 8.65658 5.95245C8.79233 5.46977 9.27502 5.09268 9.84821 5.09268C10.4214 5.09268 10.9041 5.46977 11.0398 5.95245C11.1002 6.13346 11.1152 6.23905 11.1152 6.58597V9.52731C11.1152 9.70832 11.1152 9.88932 11.0851 10.0402C10.9795 10.4776 10.5873 10.8849 10.1348 10.9904C9.96888 11.0206 9.80294 11.0206 9.62194 11.0206H6.6806C6.33367 11.0206 6.21302 11.0055 6.03201 10.9452C5.54933 10.8094 5.17222 10.3268 5.17222 9.75357C5.17222 9.18039 5.54933 8.6977 6.03201 8.56195C6.21302 8.50161 6.33367 8.48653 6.6806 8.48653H8.59625H8.58115ZM19.0795 21.7904H3.28675V7.91335C3.28675 7.73234 3.34708 7.5815 3.46775 7.46083L7.55547 3.37312C7.67614 3.25245 7.82698 3.19212 8.00798 3.19212H19.0644V21.7904H19.0795ZM20.8745 0.0697713C20.799 0.0697713 20.6934 0.0546875 20.4823 0.0546875H7.60071C7.46496 0.0546875 7.31412 0.0546875 7.22362 0.0697713C6.63535 0.130106 6.10741 0.401615 5.68507 0.823961L0.888429 5.60553C0.466083 6.02787 0.194574 6.5558 0.134239 7.12899C0.134239 7.21949 0.119141 7.37033 0.119141 7.50608V23.1932C0.119141 23.4044 0.119155 23.51 0.134239 23.5854C0.209658 24.2491 0.813009 24.8525 1.4767 24.9279C1.55212 24.9279 1.65769 24.943 1.86887 24.943H20.4672C20.6784 24.943 20.7839 24.943 20.8594 24.9279C21.5231 24.8525 22.1415 24.2491 22.2018 23.5854C22.2018 23.51 22.2169 23.4044 22.2169 23.1932V1.80441C22.2169 1.59324 22.2169 1.48765 22.2018 1.41223C22.1264 0.748542 21.5231 0.14519 20.8594 0.0697713H20.8745Z" fill="white"/>
</svg>
