<svg width="28" height="27" viewBox="0 0 28 27" fill="none" xmlns="http://www.w3.org/2000/svg">
<path d="M27.8344 13.5754C27.8344 6.07877 21.7557 0 14.259 0C6.76237 0 0.683594 6.07877 0.683594 13.5754C0.683594 20.348 5.64616 25.9743 12.1322 26.9849V17.4972H8.67801V13.5754H12.1322V10.5888C12.1322 7.17989 14.1534 5.3095 17.2607 5.3095C18.7389 5.3095 20.2925 5.58101 20.2925 5.58101V8.91453H18.5881C16.8987 8.91453 16.3707 9.95531 16.3707 11.0413V13.5905H20.1417L19.5383 17.5123H16.3707V27C22.8568 25.9743 27.8193 20.3631 27.8193 13.5905L27.8344 13.5754Z" fill="white"/>
</svg>
