<svg width="74" height="15" viewBox="0 0 74 15" fill="none" xmlns="http://www.w3.org/2000/svg">
<path d="M0.0614723 14.5053H0.4426C1.63516 14.5053 2.10235 14.1119 2.34824 12.8456L4.45059 1.96498C4.69648 0.686361 4.27847 0.305233 3.12279 0.305233H2.81543L2.86461 0.0224609H12.7739L12.3805 3.09607H12.0732V2.40758C12.0486 1.21502 11.4093 0.501944 9.92162 0.501944H6.38082L5.05302 7.2516H9.20854C10.315 7.2516 10.9789 6.72294 11.2248 5.7025L11.3109 5.28449H11.6428L10.8068 9.6859H10.4503L10.5118 9.26789C10.6839 8.1368 10.229 7.71879 9.04872 7.71879H4.95466L3.95881 12.8333C3.68834 14.1119 4.11864 14.493 5.26203 14.493H5.90134L5.81528 14.7758H0L0.0614723 14.493V14.5053Z" fill="white"/>
<path d="M12.5652 11.9136C12.5652 8.40971 15.6389 6 17.7289 6C19.2165 6 19.8313 7.41386 19.8313 9.07361C19.8313 12.6144 16.7699 14.9872 14.8274 14.9872C13.1677 14.9872 12.5652 13.5734 12.5652 11.9136V11.9136ZM18.5649 9.43015C18.5649 7.83187 17.9871 6.79914 16.8437 6.79914C15.1102 6.79914 13.8562 8.90149 13.8562 11.5571C13.8562 13.266 14.4094 14.2127 15.5159 14.2127C17.3109 14.2127 18.5772 12.1595 18.5772 9.43015H18.5649Z" fill="white"/>
<path d="M21.1831 14.2616C21.1831 14.1017 21.2323 13.8681 21.2446 13.6591L23.8141 0.958967C23.101 1.15568 22.5109 1.35239 21.847 1.64746L21.7118 1.38927C23.101 0.590134 24.3059 0 24.8346 0C25.0559 0 25.2157 0.159828 25.2157 0.467189C25.2157 0.639312 25.1665 0.971262 25.105 1.30321L22.4494 14.1386C23.1133 13.8927 23.7158 13.4255 24.4411 12.6756L24.6624 12.8477C23.6666 14.1263 22.7814 14.9992 21.9577 14.9992C21.5642 14.9992 21.1831 14.7165 21.1831 14.2739V14.2616Z" fill="white"/>
<path d="M26.0278 14.2616C26.0278 14.1017 26.077 13.8681 26.0893 13.6591L28.6588 0.958967C27.9458 1.15568 27.3556 1.35239 26.6917 1.64746L26.5565 1.38927C27.9458 0.590134 29.1506 0 29.6793 0C29.9006 0 30.0604 0.159828 30.0604 0.467189C30.0604 0.639312 30.0112 0.971262 29.9498 1.30321L27.2942 14.1386C27.9581 13.8927 28.5605 13.4255 29.2859 12.6756L29.5072 12.8477C28.5113 14.1263 27.6261 14.9992 26.8024 14.9992C26.409 14.9992 26.0278 14.7165 26.0278 14.2739V14.2616Z" fill="white"/>
<path d="M30.689 11.9136C30.689 8.40971 33.7626 6 35.8527 6C37.3403 6 37.955 7.41386 37.955 9.07361C37.955 12.6144 34.906 14.9872 32.9512 14.9872C31.2915 14.9872 30.689 13.5734 30.689 11.9136V11.9136ZM36.6887 9.43015C36.6887 7.83187 36.1109 6.79914 34.9675 6.79914C33.2463 6.79914 31.9799 8.90149 31.9799 11.5571C31.9799 13.266 32.5332 14.2127 33.6397 14.2127C35.4347 14.2127 36.6887 12.1595 36.6887 9.43015V9.43015Z" fill="white"/>
<path d="M40.3381 13.7455C40.3381 13.4381 40.3996 12.8357 40.498 12.1472L41.1373 7.3401C40.6701 7.69663 39.8709 8.33595 39.3915 8.82772L39.1456 8.60642C40.2521 7.21715 41.4446 6 42.1823 6C42.3544 6 42.5388 6.13524 42.5388 6.4426C42.5388 6.6639 42.5142 6.99585 42.4774 7.30321L41.6782 13.6103C41.6536 13.893 41.7643 14.0775 41.8995 14.0775C42.6741 14.0775 44.7518 11.594 45.551 9.82358L45.9936 6.33195C46.0428 6.08606 46.1534 6 46.7681 6C47.2353 6 47.346 6.08606 47.3214 6.38113C47.2722 6.60243 47.2353 6.84832 47.1861 7.15568L46.387 13.684C46.3624 13.9545 46.4485 14.1266 46.6083 14.1266C47.8746 14.1266 50.7515 10.3891 50.7515 8.61872C50.7515 8.39742 50.6409 8.20071 50.3704 7.79499C50.2106 7.57369 50.0999 7.3278 50.0999 6.99585C50.0999 6.4426 50.4933 6 51.0466 6C51.5998 6 51.8703 6.60243 51.8703 7.08191C51.8703 10.0449 47.6164 14.9872 45.9813 14.9872C45.342 14.9872 45.0469 14.6307 45.0469 13.9053C45.0469 13.4136 45.1576 12.7374 45.219 12.1595L45.3789 10.8932C44.0756 13.0201 42.3052 14.9872 41.2602 14.9872C40.6209 14.9872 40.3258 14.7168 40.3258 13.7455H40.3381Z" fill="white"/>
<path d="M58.1526 14.0636C58.1526 13.7071 58.2141 13.3136 58.3247 12.871L59.4927 7.25248C59.0501 7.49837 58.1157 8.35898 57.5871 8.86305L57.3658 8.66634C58.4969 7.25248 59.7509 6.01074 60.4886 6.01074C60.7591 6.01074 60.9066 6.17057 60.9066 6.42875C60.9066 6.67464 60.8574 7.04348 60.7959 7.33854L59.5788 13.1169C59.4681 13.5349 59.5542 13.8915 59.8493 13.8915C60.3165 13.8915 61.5336 12.5883 63.9925 9.51466L64.681 6.21975H65.9596L64.3859 14.0513C64.9883 13.83 65.517 13.3628 66.267 12.5883L66.5129 12.8096C65.4924 14.0759 64.5703 14.998 63.722 14.998C63.3286 14.998 63.0827 14.7152 63.0827 14.2726C63.0827 14.0513 63.1442 13.6948 63.2179 13.3874L63.8327 10.2032C61.2631 13.5227 60.0952 14.9857 58.878 14.9857C58.3739 14.9857 58.1526 14.5677 58.1526 14.0759V14.0636Z" fill="white"/>
<path d="M67.2259 14.0759C67.2259 13.6579 67.5333 13.3874 68.0004 13.3874C68.8365 13.3874 69.2668 14.2111 70.0413 14.2111C70.7298 14.2111 71.2831 13.8546 71.2831 13.0432C71.2831 12.4899 70.9265 11.9613 69.9798 11.1006C69.0455 10.2646 68.5906 9.60072 68.5906 8.72782C68.5906 7.53525 69.8692 6.01074 71.4921 6.01074C72.4264 6.01074 73.1026 6.40417 73.1026 7.00659C73.1026 7.4246 72.8567 7.71967 72.4633 7.71967C71.7748 7.71967 71.4921 6.85906 70.7298 6.85906C69.8938 6.85906 69.402 7.41231 69.402 8.02703C69.402 8.53111 69.82 8.986 70.6437 9.82202C71.6642 10.8179 72.1314 11.4203 72.1314 12.3424C72.1314 14.0636 70.5823 14.9734 68.9225 14.9734C67.9021 14.9734 67.2382 14.5923 67.2382 14.0882L67.2259 14.0759Z" fill="white"/>
</svg>
