<svg width="179" height="71" viewBox="0 0 179 71" fill="none" xmlns="http://www.w3.org/2000/svg">
<path d="M0 65H60" stroke="#003CFF"/>
<path d="M0.360072 48.29C4.18083 48.29 5.68113 46.4896 7.42148 42.0287L23.4647 1.06055H27.7855L44.2088 42.0287C46.0892 46.7097 47.2294 48.29 51.4103 48.29H51.6903V49.4502H32.1064V48.29H34.1868C36.7873 48.29 38.2276 47.6498 38.2276 46.0495C38.2276 45.4694 37.9476 44.6092 37.6475 43.7491L33.5267 33.187C32.5465 30.6465 30.106 28.9861 27.3855 28.9861H17.3635C15.8832 28.9861 14.5429 29.9063 14.0028 31.2866L10.002 41.5886C9.5019 43.1089 9.06181 44.6092 9.06181 45.5494C9.06181 47.3498 10.7822 48.29 13.7427 48.29H15.183V49.4502H0V48.29H0.360072ZM23.3247 7.18177L16.1832 25.5854C15.9032 26.2856 16.4233 27.0657 17.1834 27.0657H28.9458C30.006 27.0657 30.7261 26.0055 30.3461 25.0053L23.3247 7.18177Z" fill="#003CFF"/>
<path d="M56.5109 7.98159C56.5109 5.46109 56.0108 4.74095 53.8503 4.0208L52.27 3.66073V3.16063L61.7719 0H62.4921V23.9648C62.4921 24.4649 63.0522 24.7449 63.4523 24.4449C66.4128 22.2244 68.9534 20.6441 72.274 20.6441C79.2554 20.6441 84.3764 26.1252 84.3764 33.9668C84.3764 44.0488 77.255 50.03 68.7533 50.03C63.4322 50.03 60.2516 49.1698 56.5109 48.0096V7.98159ZM78.9753 37.0074C78.9753 29.0058 74.7945 24.0448 69.3334 24.0448C68.3332 24.0448 67.453 24.1648 66.5529 24.4649C64.1124 25.265 62.5521 27.3255 62.4921 30.5661V41.1082C62.4921 46.3693 65.5927 48.5297 69.9135 48.5297C75.0946 48.5297 78.9954 44.0688 78.9954 37.0074H78.9753Z" fill="#003CFF"/>
<path d="M88.7777 36.2066C88.4776 27.7249 95.639 20.7235 104.121 20.6435C112.602 20.5634 119.604 25.9845 119.944 34.4662C120.264 42.9079 113.223 49.8893 104.781 50.0893C96.3392 50.2894 89.0977 44.8083 88.7977 36.2066H88.7777ZM113.543 36.5666C113.543 28.205 109.942 22.0837 103.541 22.0837C98.2195 22.0837 95.1989 26.8447 95.1989 34.1862C95.1989 42.4678 98.7997 48.7291 105.201 48.7291C110.322 48.7291 113.563 43.8281 113.563 36.5666H113.543Z" fill="#003CFF"/>
<path d="M126.266 41.4493V26.6063C126.266 25.026 125.906 24.2258 124.466 23.9458L121.865 23.4457V22.8056L131.507 20.7852H132.227V41.6693C132.227 45.4901 134.668 47.1504 137.848 47.1504C139.629 47.1504 142.429 46.2302 144.87 44.7899C146.03 44.1098 146.35 43.3497 146.35 41.9094V26.5463C146.35 24.966 145.91 24.2458 144.63 24.0258L141.169 23.4457V22.8056L151.751 20.7852H152.391V45.13C152.391 46.2902 152.971 47.0104 154.332 46.8504L156.492 46.5703V47.3705L147.13 49.971H146.33V46.4703C146.33 45.9902 145.79 45.7101 145.39 45.9902C141.349 48.6107 138.008 50.051 134.668 50.051C129.847 50.051 126.246 47.4505 126.246 41.4893L126.266 41.4493Z" fill="#003CFF"/>
<path d="M162.253 42.3285V25.2451C162.253 24.445 161.793 23.8848 161.053 23.8848H157.933V22.9447C163.694 21.5044 165.714 18.1237 166.574 13.3027H168.295V20.0041C168.295 20.8242 168.815 21.2843 169.655 21.2843H178.157L176.996 23.8848H169.475C168.815 23.8848 168.275 24.425 168.275 25.0851V42.4686C168.275 46.1293 170.155 47.2295 172.235 47.2295C174.316 47.2295 175.976 46.3693 177.917 44.569L178.357 45.1491C175.756 48.6098 173.236 50.1101 170.295 50.1101C165.334 50.1101 162.233 47.4496 162.233 42.3285H162.253Z" fill="#003CFF"/>
<path d="M66.0399 69.6911H66.1796C67.217 69.6911 67.6659 69.1126 67.7557 67.8058L68.2445 59.9252C68.3143 58.7083 67.9252 58.2893 66.8579 58.2893H66.6384V58H69.8405L74.2796 67.7459C74.3195 67.8357 74.4591 67.8357 74.499 67.7459L78.8982 58H81.9207V58.2893H81.7012C80.604 58.2893 80.2648 58.5387 80.3346 59.8355L80.8533 68.1549C80.9431 69.4517 81.3222 69.7011 82.3397 69.7011H82.5392V69.9904H77.5615V69.7011H77.7909C78.8682 69.7011 79.2473 69.4517 79.1575 68.1549L78.6887 60.4739C78.6887 60.3143 78.4692 60.2744 78.3994 60.424L74.0102 70.0104H73.4516L69.0126 60.5637C68.9427 60.424 68.7332 60.4639 68.7233 60.6235L68.3043 67.8257C68.2345 69.1924 68.7332 69.7111 69.7906 69.7111H70.0101V70.0004H66V69.7111L66.0399 69.6911Z" fill="#003CFF"/>
<path d="M82.689 66.5298C82.689 64.3552 84.3948 62.7891 86.5694 62.7891C88.744 62.7891 90.4698 64.2056 90.4698 66.4001C90.4698 68.5947 88.744 70.1409 86.5694 70.1409C84.3948 70.1409 82.689 68.7244 82.689 66.5298ZM88.8637 66.7593C88.8637 64.6744 87.9659 63.1482 86.3699 63.1482C85.0432 63.1482 84.285 64.3352 84.285 66.1607C84.285 68.2256 85.1828 69.7918 86.7789 69.7918C88.0557 69.7918 88.8637 68.5748 88.8637 66.7593Z" fill="#003CFF"/>
<path d="M97.1538 69.711H97.2835C97.9618 69.711 98.3608 69.5713 98.3608 68.5638V64.8131C98.3608 64.2046 98.2212 64.045 97.7324 63.8654L97.2835 63.7756V63.636L99.6676 62.8479H99.8472V68.5738C99.8472 69.5813 100.276 69.721 100.925 69.721H101.034V69.9903H97.1538V69.721V69.711ZM98.0117 59.995C98.0117 59.4563 98.4406 59.0273 98.9992 59.0273C99.5579 59.0273 100.007 59.4563 100.007 59.995C100.007 60.5336 99.5778 60.9825 98.9992 60.9825C98.4207 60.9825 98.0117 60.5536 98.0117 59.995Z" fill="#003CFF"/>
<path d="M102.242 69.941C102.152 69.941 102.022 69.9609 101.932 69.9909H101.883L101.683 68.1554H101.913C102.292 69.123 103.169 69.7215 104.027 69.7215C104.795 69.7215 105.264 69.3225 105.264 68.6841C105.264 68.1055 104.775 67.6766 103.688 67.0481C102.302 66.2601 101.713 65.7513 101.713 64.7837C101.713 63.4869 102.86 62.8086 104.117 62.8086C104.855 62.8086 105.534 62.9682 105.913 63.1178L105.953 64.8037H105.733C105.504 63.866 104.815 63.1877 103.918 63.1877C103.199 63.1877 102.77 63.5966 102.77 64.2151C102.77 64.7737 103.179 65.1129 104.406 65.7613C105.713 66.4995 106.332 67.0681 106.332 68.1155C106.332 69.3524 105.145 70.1305 103.888 70.1305C103.209 70.1305 102.611 69.951 102.232 69.951L102.242 69.941Z" fill="#003CFF"/>
<path d="M107.219 68.7439C107.219 67.6965 108.047 67.0082 110.77 66.4097C110.91 66.3798 111.01 66.2601 111.01 66.1204C111.01 65.6017 111.03 65.073 111.03 64.5742C111.03 63.6765 110.561 63.2675 109.883 63.2675C109.254 63.2675 108.825 63.6765 108.825 64.2051C108.825 64.4545 108.865 64.654 108.955 64.8336L107.588 65.2127C107.499 65.073 107.449 64.9034 107.449 64.7139C107.449 63.9458 109.025 62.8086 110.182 62.8086C111.638 62.8086 112.496 63.5069 112.496 64.7338C112.496 65.7912 112.456 67.4272 112.456 68.6342C112.456 69.0831 112.566 69.3524 112.945 69.3524C113.214 69.3524 113.464 69.2128 113.753 69.0133L113.893 69.2327C113.224 69.8113 112.566 70.1704 112.027 70.1704C111.529 70.1704 111.11 69.7914 111 69.2327C110.352 69.7714 109.494 70.1704 108.755 70.1704C107.898 70.1704 107.229 69.542 107.229 68.7739L107.219 68.7439ZM110.98 67.8861C110.98 67.5369 110.99 67.1878 111 66.8486C111 66.7489 110.9 66.689 110.81 66.709C108.915 67.2377 108.556 67.8162 108.556 68.5245C108.556 69.0432 108.875 69.4921 109.294 69.4921C109.474 69.4921 109.673 69.4622 109.903 69.3923C110.551 69.1928 110.97 68.5544 110.98 67.8761V67.8861Z" fill="#003CFF"/>
<path d="M135.6 69.6911H135.779C136.807 69.6911 137.176 69.4418 137.176 68.145V59.8355C137.176 58.5387 136.797 58.2893 135.779 58.2893H135.6V58H144.288L144.378 60.6036H144.059L143.989 60.2046C143.759 58.9277 143.251 58.4988 141.904 58.4988H140.348C139.52 58.4988 138.852 59.1671 138.852 59.9951V63.267C138.852 63.5962 139.121 63.8655 139.45 63.8655H142.153C143.231 63.8655 143.66 63.5463 143.66 62.5188V62.3592H143.999V65.8406H143.66V65.6611C143.66 64.6536 143.231 64.3344 142.153 64.3344H139.45C139.121 64.3344 138.852 64.6037 138.852 64.9329V68.145C138.852 69.4418 139.231 69.6911 140.308 69.6911H140.827V69.9804H135.6V69.6911Z" fill="#003CFF"/>
<path d="M145.187 66.5298C145.187 64.3552 146.892 62.7891 149.067 62.7891C151.242 62.7891 152.967 64.2056 152.967 66.4001C152.967 68.5947 151.242 70.1409 149.067 70.1409C146.892 70.1409 145.187 68.7244 145.187 66.5298ZM151.361 66.7593C151.361 64.6744 150.464 63.1482 148.867 63.1482C147.541 63.1482 146.783 64.3352 146.783 66.1607C146.783 68.2256 147.68 69.7918 149.276 69.7918C150.553 69.7918 151.361 68.5748 151.361 66.7593Z" fill="#003CFF"/>
<path d="M168.38 69.941C168.29 69.941 168.16 69.9609 168.071 69.9909H168.021L167.821 68.1554H168.051C168.43 69.123 169.308 69.7215 170.166 69.7215C170.934 69.7215 171.402 69.3225 171.402 68.6841C171.402 68.1055 170.914 67.6766 169.826 67.0481C168.44 66.2601 167.851 65.7513 167.851 64.7837C167.851 63.4869 168.998 62.8086 170.255 62.8086C170.993 62.8086 171.672 62.9682 172.051 63.1178L172.091 64.8037H171.871C171.642 63.866 170.954 63.1877 170.056 63.1877C169.338 63.1877 168.909 63.5966 168.909 64.2151C168.909 64.7737 169.318 65.1129 170.545 65.7613C171.851 66.4995 172.47 67.0681 172.47 68.1155C172.47 69.3524 171.283 70.1305 170.026 70.1305C169.348 70.1305 168.749 69.951 168.37 69.951L168.38 69.941Z" fill="#003CFF"/>
<path d="M90.7295 69.7111H90.8691C91.5175 69.7111 91.9066 69.5715 91.9066 68.564V64.8132C91.9066 64.2047 91.7669 64.0451 91.2781 63.8656L90.8292 63.7758V63.6361L93.2233 62.8481H93.4029V64.5539C93.4029 64.6337 93.5126 64.6536 93.5425 64.5838C94.1211 63.3169 94.6797 62.8281 95.398 62.8281C95.9366 62.8281 96.206 62.9379 96.6349 63.1673L96.3157 64.2646C95.9067 64.0351 95.5276 63.8556 95.0388 63.8556C94.58 63.8556 94.0912 64.1249 93.6423 64.8432C93.4927 65.0826 93.4029 65.3718 93.4029 65.6512V68.5939C93.4029 69.4917 93.7121 69.7211 94.4802 69.7211H94.8393V69.9904H90.7295V69.7211V69.7111Z" fill="#003CFF"/>
<path d="M114.392 64.2638C114.083 63.5655 113.783 63.2264 113.115 63.2264H113.075V62.957H116.826V63.2264H116.626C116.088 63.2264 115.838 63.386 115.838 63.6753C115.838 63.8149 115.908 64.0543 115.998 64.2838L117.594 68.3437C117.614 68.3936 117.684 68.3936 117.704 68.3437L118.931 65.2613C119.021 65.0419 119.011 64.7925 118.921 64.573L118.751 64.184C118.482 63.5356 118.252 63.2363 117.634 63.2363H117.584V62.967H121.355V63.2363H121.175C120.587 63.2363 120.208 63.3261 120.208 63.6653C120.208 63.795 120.277 63.9845 120.347 64.184L121.993 68.3836C122.013 68.4335 122.083 68.4335 122.103 68.3836L123.739 64.184C123.809 64.0044 123.849 63.8249 123.849 63.6852C123.849 63.366 123.599 63.2363 123.041 63.2363H122.811V62.967H125.524V63.2363H125.475C124.796 63.2363 124.557 63.4558 124.258 64.184L121.814 70.0894H121.255L119.37 65.6205C119.34 65.5606 119.26 65.5606 119.23 65.6205L117.395 70.0894H116.836L114.392 64.2738V64.2638Z" fill="#003CFF"/>
<path d="M125.594 68.7439C125.594 67.6965 126.422 67.0082 129.145 66.4097C129.285 66.3798 129.385 66.2601 129.385 66.1204C129.385 65.6017 129.405 65.073 129.405 64.5742C129.405 63.6765 128.936 63.2675 128.258 63.2675C127.629 63.2675 127.2 63.6765 127.2 64.2051C127.2 64.4545 127.24 64.654 127.33 64.8336L125.963 65.2127C125.874 65.073 125.824 64.9034 125.824 64.7139C125.824 63.9458 127.4 62.8086 128.557 62.8086C130.013 62.8086 130.871 63.5069 130.871 64.7338C130.871 65.7912 130.831 67.4272 130.831 68.6342C130.831 69.0831 130.941 69.3524 131.32 69.3524C131.589 69.3524 131.839 69.2128 132.128 69.0133L132.268 69.2327C131.599 69.8113 130.941 70.1704 130.402 70.1704C129.904 70.1704 129.485 69.7914 129.375 69.2327C128.727 69.7714 127.869 70.1704 127.13 70.1704C126.273 70.1704 125.604 69.542 125.604 68.7739L125.594 68.7439ZM129.355 67.8861C129.355 67.5369 129.365 67.1878 129.375 66.8486C129.375 66.7489 129.275 66.689 129.185 66.709C127.29 67.2377 126.931 67.8162 126.931 68.5245C126.931 69.0432 127.25 69.4921 127.669 69.4921C127.849 69.4921 128.048 69.4622 128.278 69.3923C128.926 69.1928 129.345 68.5544 129.355 67.8761V67.8861Z" fill="#003CFF"/>
<path d="M161.896 69.7111C161.108 69.7111 160.838 69.5815 160.858 68.5839C160.878 67.8657 160.898 66.12 160.898 65.1225C160.898 63.4666 160.09 62.8281 158.873 62.8281C158.085 62.8281 157.237 63.1274 156.03 63.9753C155.96 64.0252 155.871 63.9753 155.871 63.8955V62.8481H155.691L153.307 63.6361V63.7758L153.756 63.8656C154.245 64.0451 154.384 64.2047 154.384 64.8132V68.5839C154.384 69.5715 153.985 69.7111 153.327 69.7111H153.197V69.9805H157.038V69.7111H156.928C156.26 69.7111 155.871 69.5515 155.871 68.5241V64.8731C155.871 64.8731 155.871 64.8332 155.881 64.8132C155.881 64.7135 155.911 64.6137 155.96 64.5239C155.97 64.504 155.98 64.4741 156 64.4541C156.06 64.3643 156.13 64.2845 156.22 64.2247C156.24 64.2147 156.26 64.1948 156.28 64.1848C156.958 63.7658 157.656 63.5164 158.125 63.5164C159.043 63.5164 159.422 64.0152 159.422 65.2422C159.422 66.12 159.402 67.8058 159.382 68.6039C159.362 69.5416 159.023 69.7211 158.305 69.7211H158.175V69.9904H161.996V69.7211H161.906L161.896 69.7111Z" fill="#003CFF"/>
<path d="M162.963 68.2048V63.9453C162.963 63.7458 162.843 63.6062 162.664 63.6062H161.886V63.3767C163.322 63.0176 163.821 62.1697 164.04 60.9727H164.469V62.6485C164.469 62.858 164.599 62.9677 164.809 62.9677H166.933L166.644 63.6161H164.769C164.599 63.6161 164.469 63.7458 164.469 63.9154V68.2547C164.469 69.1724 164.938 69.4418 165.457 69.4418C165.976 69.4418 166.395 69.2223 166.873 68.7734L166.983 68.9131C166.335 69.7709 165.706 70.15 164.968 70.15C163.731 70.15 162.953 69.4817 162.953 68.2148L162.963 68.2048Z" fill="#003CFF"/>
</svg>
