<svg width="228" height="64" viewBox="0 0 228 64" fill="none" xmlns="http://www.w3.org/2000/svg">
<path d="M0 33.3826C0 13.953 15.1286 0.549805 35.3834 0.549805C44.5606 0.549805 49.9619 3.80058 53.0126 3.80058C54.538 3.80058 55.2631 3.62554 55.9883 3.45049H56.5384L58.0638 20.2795H56.7135C53.1126 8.57671 45.5608 3.00039 34.0331 3.00039C17.8292 2.97538 9.27721 15.4033 9.27721 30.607C9.27721 48.8863 19.0045 60.9392 34.3832 60.9392C45.7359 60.9392 53.3877 54.9127 59.039 43.485H60.7394L55.0631 60.414H54.513C53.7878 60.139 52.7125 60.064 51.9874 60.064C47.9364 60.064 42.6351 63.1147 33.2579 63.1147C14.6785 63.0897 0 52.1121 0 33.3826Z" fill="#003CFF"/>
<path d="M135.334 46.0863C135.334 33.0332 144.786 26.1066 153.888 26.1066C156.314 26.1066 159.29 26.4567 161.615 27.1818C162.115 27.3319 162.615 27.0068 162.615 26.4817V10.0028C162.615 6.85201 161.815 5.50169 158.915 5.05159L156.214 4.60148V3.97633L169.167 0.0253906H170.067V54.9885C170.067 57.139 170.792 58.4143 173.043 58.1392L175.469 57.8641V58.9394L163.591 62.4402H162.59V57.0389C158.539 60.3647 154.589 62.5403 150.263 62.5403C141.986 62.5403 135.334 56.4138 135.334 46.0613V46.0863ZM162.615 49.8372V35.7839C162.615 32.6331 160.665 29.7074 157.664 28.7072C156.189 28.2321 154.639 27.982 152.988 27.982C147.487 27.982 141.911 32.133 141.911 41.9354C141.911 53.088 148.112 58.5893 154.238 58.5893C154.263 58.5893 154.288 58.5893 154.313 58.5893C158.965 58.5643 162.615 54.4883 162.615 49.8372Z" fill="#003CFF"/>
<path d="M106.376 40.4095H130.207V38.9592C129.206 38.5091 128.406 37.4338 128.056 36.3586C125.981 30.7822 122.205 25.8311 114.653 25.8311C107.101 25.8311 97.999 32.9327 97.999 44.9106C97.999 55.4381 104.401 62.6398 114.653 62.6398C121.23 62.6398 125.281 60.3893 130.132 55.5381L129.131 54.3628C125.431 57.2385 122.555 58.5138 118.154 58.5138C109.877 58.5138 104.826 51.4121 104.826 42.485C104.826 42.385 104.826 42.31 104.826 42.2099C104.851 41.0597 105.151 40.4345 106.376 40.4095ZM113.553 27.9065C117.654 27.9065 119.979 31.6074 120.979 37.1337C121.105 37.9089 120.554 38.4591 119.854 38.4591H106.526C105.801 38.4591 105.251 37.9839 105.401 37.1087C106.626 30.7572 110.002 27.9316 113.528 27.9316L113.553 27.9065Z" fill="#003CFF"/>
<path d="M180.319 60.4889H180.944C184.37 60.4889 186.346 59.7637 186.346 54.7375V35.9331C186.346 32.8823 185.621 32.0571 183.195 31.1569L180.944 30.7068V29.9816L192.922 26.0307H193.823V54.7375C193.823 59.7887 195.973 60.4889 199.224 60.4889H199.774V61.8392H180.344V60.4889H180.319ZM184.72 12.6775C184.195 9.5768 186.521 6.95117 189.597 6.95117C192.472 6.95117 194.648 9.10168 194.648 11.8023C194.648 14.503 192.572 16.6785 189.747 16.7535C187.346 16.8285 185.12 15.0531 184.72 12.6775V12.6775Z" fill="#003CFF"/>
<path d="M65.9658 60.4899H66.691C69.9418 60.4899 71.9172 59.7647 71.9172 54.7385V35.934C71.9172 32.8833 71.1921 32.0581 68.7665 31.1579L66.5159 30.7078V29.9826L78.4938 26.0317H79.394V34.5837C79.394 34.9838 79.9441 35.1088 80.1192 34.7337C83.0199 28.4072 85.8205 25.9316 89.3964 25.9316C92.097 25.9316 93.4474 26.4818 95.5979 27.632L93.9725 33.1334C91.897 31.9581 90.0215 31.0579 87.571 31.0579C85.2704 31.0579 82.8448 32.4332 80.5693 36.009C79.7941 37.2093 79.394 38.6347 79.394 40.085V54.8385C79.394 59.3396 80.9194 60.5149 84.7953 60.5149H86.5957V61.8652H65.9908V60.5149L65.9658 60.4899Z" fill="#003CFF"/>
<path d="M207.651 52.9379V31.5828C207.651 30.5826 207.076 29.8824 206.151 29.8824H202.25V28.7072C209.452 26.9067 211.977 22.6807 213.053 16.6543H215.203V25.0313C215.203 26.0565 215.853 26.6317 216.903 26.6317H227.531L226.081 29.8824H216.678C215.853 29.8824 215.178 30.5576 215.178 31.3828V53.113C215.178 57.6891 217.529 59.0644 220.129 59.0644C222.73 59.0644 224.805 57.9891 227.231 55.7386L227.781 56.4638C224.53 60.7898 221.38 62.6652 217.704 62.6652C211.502 62.6652 207.626 59.3394 207.626 52.9379H207.651Z" fill="#003CFF"/>
</svg>