<svg width="454" height="63" viewBox="0 0 454 63" fill="none" xmlns="http://www.w3.org/2000/svg">
<path d="M0.450108 60.3897C5.22625 60.3897 7.1017 58.1392 9.27722 52.5629L29.332 1.35059H34.7333L55.2632 52.5629C57.6138 58.4143 59.0391 60.3897 64.2654 60.3897H64.6155V61.8401H40.1346V60.3897H42.7352C45.986 60.3897 47.7864 59.5895 47.7864 57.5891C47.7864 56.8639 47.4364 55.7886 47.0613 54.7134L41.91 41.5102C40.6847 38.3344 37.634 36.2589 34.2332 36.2589H21.7052C19.8548 36.2589 18.1794 37.4092 17.5042 39.1346L12.503 52.0127C11.8778 53.9132 11.3277 55.7886 11.3277 56.9639C11.3277 59.2144 13.4782 60.3897 17.1791 60.3897H18.9795V61.8401H0V60.3897H0.450108ZM29.157 9.00242L20.2298 32.0079C19.8798 32.8831 20.5299 33.8584 21.4801 33.8584H36.1837C37.509 33.8584 38.4092 32.5331 37.9341 31.2828L29.157 9.00242Z" fill="#003CFF"/>
<path d="M70.6421 10.0028C70.6421 6.85203 70.0169 5.95181 67.3163 5.05159L65.3408 4.60149V3.97634L77.2187 0.0253906H78.1189V29.9826C78.1189 30.6077 78.8191 30.9578 79.3192 30.5827C83.0201 27.807 86.1958 25.8316 90.3468 25.8316C99.0739 25.8316 105.475 32.6832 105.475 42.4856C105.475 55.0886 96.5733 62.5654 85.9458 62.5654C79.2942 62.5654 75.3182 61.4901 70.6421 60.0398V10.0028V10.0028ZM98.7238 46.2865C98.7238 36.2841 93.4976 30.0826 86.6709 30.0826C85.4206 30.0826 84.3204 30.2326 83.1951 30.6077C80.1444 31.608 78.1939 34.1836 78.1189 38.2345V51.4127C78.1189 57.9893 81.9948 60.6899 87.3961 60.6899C93.8727 60.6899 98.7488 55.1136 98.7488 46.2865H98.7238Z" fill="#003CFF"/>
<path d="M110.977 45.2858C110.602 34.6833 119.554 25.9312 130.157 25.8312C140.759 25.7311 149.511 32.5078 149.937 43.1103C150.337 53.6628 141.535 62.3899 130.982 62.64C120.429 62.89 111.377 56.0384 111.002 45.2858H110.977ZM141.935 45.7359C141.935 35.2834 137.434 27.6316 129.432 27.6316C122.78 27.6316 119.004 33.583 119.004 42.7602C119.004 53.1127 123.505 60.9396 131.507 60.9396C137.909 60.9396 141.96 54.8131 141.96 45.7359H141.935Z" fill="#003CFF"/>
<path d="M157.839 51.837V33.2826C157.839 31.3071 157.389 30.3069 155.589 29.9568L152.338 29.3317V28.5315L164.391 26.0059H165.291V52.1121C165.291 56.8883 168.342 58.9638 172.318 58.9638C174.543 58.9638 178.044 57.8135 181.095 56.013C182.545 55.1628 182.945 54.2126 182.945 52.4122V33.2076C182.945 31.2321 182.395 30.3319 180.795 30.0568L176.469 29.3317V28.5315L189.697 26.0059H190.497V56.4381C190.497 57.8885 191.222 58.7887 192.923 58.5887L195.623 58.2386V59.2388L183.92 62.4896H182.92V58.1135C182.92 57.5134 182.245 57.1633 181.745 57.5134C176.694 60.7892 172.518 62.5896 168.342 62.5896C162.315 62.5896 157.814 59.3388 157.814 51.8871L157.839 51.837Z" fill="#003CFF"/>
<path d="M202.825 52.938V31.5829C202.825 30.5826 202.25 29.8825 201.325 29.8825H197.424V28.7072C204.626 26.9068 207.151 22.6807 208.226 16.6543H210.377V25.0313C210.377 26.0565 211.027 26.6317 212.077 26.6317H222.705L221.255 29.8825H211.852C211.027 29.8825 210.352 30.5576 210.352 31.3828V53.113C210.352 57.6891 212.702 59.0645 215.303 59.0645C217.904 59.0645 219.979 57.9892 222.405 55.7387L222.955 56.4638C219.704 60.7899 216.553 62.6653 212.878 62.6653C206.676 62.6653 202.8 59.3395 202.8 52.938H202.825Z" fill="#003CFF"/>
<path d="M241.08 61.3439H241.359C243.43 61.3439 244.326 60.1886 244.506 57.5794L245.482 41.8442C245.621 39.4142 244.844 38.5776 242.713 38.5776H242.275V38H248.668L257.532 57.4599C257.612 57.6391 257.89 57.6391 257.97 57.4599L266.754 38H272.789V38.5776H272.351C270.16 38.5776 269.483 39.0756 269.622 41.6649L270.658 58.2765C270.837 60.8658 271.594 61.3638 273.626 61.3638H274.024V61.9414H264.085V61.3638H264.543C266.694 61.3638 267.451 60.8658 267.272 58.2765L266.336 42.9397C266.336 42.621 265.897 42.5413 265.758 42.8401L256.994 61.9812H255.879L247.015 43.1189C246.876 42.8401 246.458 42.9197 246.438 43.2384L245.601 57.6192C245.462 60.348 246.458 61.3837 248.569 61.3837H249.007V61.9613H241V61.3837L241.08 61.3439Z" fill="#003CFF"/>
<path d="M274.323 55.0298C274.323 50.6877 277.729 47.5605 282.072 47.5605C286.414 47.5605 289.86 50.3889 289.86 54.7709C289.86 59.1528 286.414 62.2401 282.072 62.2401C277.729 62.2401 274.323 59.4117 274.323 55.0298ZM286.653 55.4879C286.653 51.325 284.86 48.2776 281.673 48.2776C279.024 48.2776 277.51 50.6478 277.51 54.2928C277.51 58.4158 279.303 61.543 282.49 61.543C285.039 61.543 286.653 59.113 286.653 55.4879Z" fill="#003CFF"/>
<path d="M303.205 61.3839H303.464C304.819 61.3839 305.616 61.1051 305.616 59.0933V51.6042C305.616 50.3892 305.337 50.0705 304.361 49.712L303.464 49.5327V49.2539L308.225 47.6803H308.583V59.1133C308.583 61.125 309.44 61.4038 310.734 61.4038H310.954V61.9416H303.205V61.4038V61.3839ZM304.918 41.9838C304.918 40.9082 305.775 40.0518 306.89 40.0518C308.006 40.0518 308.902 40.9082 308.902 41.9838C308.902 43.0594 308.045 43.9557 306.89 43.9557C305.735 43.9557 304.918 43.0992 304.918 41.9838Z" fill="#003CFF"/>
<path d="M313.364 61.8419C313.185 61.8419 312.926 61.8818 312.747 61.9415H312.647L312.249 58.2766H312.707C313.464 60.2087 315.217 61.4037 316.93 61.4037C318.463 61.4037 319.399 60.607 319.399 59.3323C319.399 58.177 318.423 57.3206 316.252 56.0657C313.484 54.4922 312.309 53.4764 312.309 51.5443C312.309 48.955 314.599 47.6006 317.109 47.6006C318.583 47.6006 319.937 47.9193 320.694 48.218L320.774 51.5842H320.336C319.877 49.7119 318.503 48.3575 316.71 48.3575C315.276 48.3575 314.42 49.1741 314.42 50.409C314.42 51.5244 315.237 52.2016 317.686 53.4963C320.296 54.9702 321.531 56.1056 321.531 58.1969C321.531 60.6668 319.16 62.2204 316.651 62.2204C315.296 62.2204 314.101 61.8619 313.344 61.8619L313.364 61.8419Z" fill="#003CFF"/>
<path d="M323.303 59.4518C323.303 57.3604 324.956 55.9861 330.394 54.791C330.673 54.7312 330.872 54.4922 330.872 54.2134C330.872 53.1776 330.912 52.122 330.912 51.1261C330.912 49.3334 329.976 48.5168 328.621 48.5168C327.366 48.5168 326.51 49.3334 326.51 50.3891C326.51 50.8871 326.589 51.2854 326.769 51.6439L324.04 52.4008C323.861 52.122 323.761 51.7834 323.761 51.4049C323.761 49.8712 326.908 47.6006 329.219 47.6006C332.127 47.6006 333.84 48.9948 333.84 51.4448C333.84 53.5561 333.76 56.8226 333.76 59.2327C333.76 60.129 333.979 60.6668 334.736 60.6668C335.274 60.6668 335.772 60.3879 336.349 59.9896L336.628 60.4278C335.294 61.583 333.979 62.3 332.903 62.3C331.908 62.3 331.071 61.5432 330.852 60.4278C329.557 61.5033 327.844 62.3 326.37 62.3C324.657 62.3 323.323 61.0452 323.323 59.5115L323.303 59.4518ZM330.812 57.7388C330.812 57.0417 330.832 56.3446 330.852 55.6674C330.852 55.4682 330.653 55.3487 330.473 55.3885C326.689 56.4442 325.972 57.5994 325.972 59.0136C325.972 60.0493 326.609 60.9456 327.446 60.9456C327.804 60.9456 328.203 60.8859 328.661 60.7464C329.956 60.3481 330.792 59.0733 330.812 57.7189V57.7388Z" fill="#003CFF"/>
<path d="M379.971 61.3439H380.329C382.381 61.3439 383.118 60.8459 383.118 58.2566V41.6649C383.118 39.0756 382.361 38.5776 380.329 38.5776H379.971V38H397.319L397.499 43.1986H396.861L396.722 42.4019C396.264 39.8524 395.248 38.9959 392.559 38.9959H389.452C387.799 38.9959 386.464 40.3304 386.464 41.9836V48.5167C386.464 49.174 387.002 49.7118 387.659 49.7118H393.057C395.208 49.7118 396.065 49.0744 396.065 47.0228V46.7042H396.742V53.6555H396.065V53.297C396.065 51.2853 395.208 50.6479 393.057 50.6479H387.659C387.002 50.6479 386.464 51.1857 386.464 51.843V58.2566C386.464 60.8459 387.221 61.3439 389.372 61.3439H390.408V61.9215H379.971V61.3439V61.3439Z" fill="#003CFF"/>
<path d="M399.112 55.0298C399.112 50.6877 402.518 47.5605 406.861 47.5605C411.203 47.5605 414.648 50.3889 414.648 54.7709C414.648 59.1528 411.203 62.2401 406.861 62.2401C402.518 62.2401 399.112 59.4117 399.112 55.0298ZM411.442 55.4879C411.442 51.325 409.649 48.2776 406.462 48.2776C403.813 48.2776 402.299 50.6478 402.299 54.2928C402.299 58.4158 404.092 61.543 407.279 61.543C409.828 61.543 411.442 59.113 411.442 55.4879Z" fill="#003CFF"/>
<path d="M445.423 61.8419C445.244 61.8419 444.985 61.8818 444.806 61.9415H444.706L444.308 58.2766H444.766C445.523 60.2087 447.275 61.4037 448.988 61.4037C450.522 61.4037 451.458 60.607 451.458 59.3323C451.458 58.177 450.482 57.3206 448.311 56.0657C445.543 54.4922 444.367 53.4764 444.367 51.5443C444.367 48.955 446.658 47.6006 449.168 47.6006C450.642 47.6006 451.996 47.9193 452.753 48.218L452.833 51.5842H452.394C451.936 49.7119 450.562 48.3575 448.769 48.3575C447.335 48.3575 446.479 49.1741 446.479 50.409C446.479 51.5244 447.295 52.2016 449.745 53.4963C452.354 54.9702 453.589 56.1056 453.589 58.1969C453.589 60.6668 451.219 62.2204 448.71 62.2204C447.355 62.2204 446.16 61.8619 445.403 61.8619L445.423 61.8419Z" fill="#003CFF"/>
<path d="M290.378 61.384H290.657C291.951 61.384 292.728 61.1052 292.728 59.0935V51.6043C292.728 50.3893 292.449 50.0706 291.473 49.7121L290.577 49.5328V49.254L295.357 47.6805H295.716V51.0864C295.716 51.2458 295.935 51.2856 295.995 51.1462C297.15 48.6166 298.265 47.6406 299.699 47.6406C300.775 47.6406 301.313 47.8597 302.169 48.3178L301.532 50.5088C300.715 50.0507 299.958 49.6922 298.982 49.6922C298.066 49.6922 297.09 50.23 296.194 51.6641C295.895 52.1421 295.716 52.7197 295.716 53.2774V59.1532C295.716 60.9458 296.333 61.4039 297.867 61.4039H298.584V61.9417H290.378V61.4039V61.384Z" fill="#003CFF"/>
<path d="M337.625 50.5087C337.007 49.1144 336.41 48.4372 335.075 48.4372H334.996V47.8994H342.485V48.4372H342.087C341.011 48.4372 340.513 48.7559 340.513 49.3335C340.513 49.6124 340.652 50.0904 340.832 50.5485L344.019 58.6551C344.058 58.7547 344.198 58.7547 344.238 58.6551L346.688 52.5005C346.867 52.0623 346.847 51.5643 346.668 51.1261L346.329 50.3493C345.791 49.0547 345.333 48.4571 344.098 48.4571H343.999V47.9193H351.528V48.4571H351.169C349.994 48.4571 349.237 48.6364 349.237 49.3136C349.237 49.5725 349.377 49.951 349.516 50.3493L352.802 58.7348C352.842 58.8344 352.982 58.8344 353.022 58.7348L356.288 50.3493C356.428 49.9908 356.507 49.6323 356.507 49.3534C356.507 48.7161 356.009 48.4571 354.894 48.4571H354.436V47.9193H359.853V48.4571H359.754C358.399 48.4571 357.921 48.8953 357.324 50.3493L352.444 62.1408H351.329L347.564 53.2175C347.504 53.098 347.345 53.098 347.285 53.2175L343.62 62.1408H342.505L337.625 50.5286V50.5087Z" fill="#003CFF"/>
<path d="M359.993 59.4518C359.993 57.3604 361.646 55.9861 367.084 54.791C367.363 54.7312 367.562 54.4922 367.562 54.2134C367.562 53.1776 367.602 52.122 367.602 51.1261C367.602 49.3334 366.666 48.5168 365.311 48.5168C364.056 48.5168 363.2 49.3334 363.2 50.3891C363.2 50.8871 363.28 51.2854 363.459 51.6439L360.73 52.4008C360.551 52.122 360.451 51.7834 360.451 51.4049C360.451 49.8712 363.598 47.6006 365.909 47.6006C368.817 47.6006 370.53 48.9948 370.53 51.4448C370.53 53.5561 370.45 56.8226 370.45 59.2327C370.45 60.129 370.669 60.6668 371.426 60.6668C371.964 60.6668 372.462 60.3879 373.039 59.9896L373.318 60.4278C371.984 61.583 370.669 62.3 369.594 62.3C368.598 62.3 367.761 61.5432 367.542 60.4278C366.247 61.5033 364.534 62.3 363.06 62.3C361.347 62.3 360.013 61.0452 360.013 59.5115L359.993 59.4518ZM367.502 57.7388C367.502 57.0417 367.522 56.3446 367.542 55.6674C367.542 55.4682 367.343 55.3487 367.164 55.3885C363.379 56.4442 362.662 57.5994 362.662 59.0136C362.662 60.0493 363.299 60.9456 364.136 60.9456C364.495 60.9456 364.893 60.8859 365.351 60.7464C366.646 60.3481 367.482 59.0733 367.502 57.7189V57.7388Z" fill="#003CFF"/>
<path d="M432.476 61.384C430.903 61.384 430.365 61.1251 430.405 59.1333C430.444 57.6992 430.484 54.2136 430.484 52.2218C430.484 48.9154 428.871 47.6406 426.441 47.6406C424.867 47.6406 423.174 48.2382 420.764 49.9312C420.625 50.0308 420.446 49.9312 420.446 49.7718V47.6805H420.087L415.327 49.254V49.5328L416.223 49.7121C417.199 50.0706 417.478 50.3893 417.478 51.6043V59.1333C417.478 61.1052 416.681 61.384 415.366 61.384H415.108V61.9218H422.776V61.384H422.557C421.222 61.384 420.446 61.0653 420.446 59.0138V51.7238C420.446 51.7238 420.446 51.6441 420.465 51.6043C420.465 51.4051 420.525 51.2059 420.625 51.0267C420.645 50.9868 420.665 50.9271 420.704 50.8873C420.824 50.708 420.963 50.5486 421.143 50.4291C421.183 50.4092 421.222 50.3694 421.262 50.3495C422.617 49.5129 424.011 49.015 424.947 49.015C426.779 49.015 427.536 50.0109 427.536 52.4608C427.536 54.2136 427.497 57.5797 427.457 59.1731C427.417 61.0454 426.74 61.4039 425.306 61.4039H425.047V61.9417H432.675V61.4039H432.496L432.476 61.384Z" fill="#003CFF"/>
<path d="M434.607 58.3761V49.8711C434.607 49.4727 434.368 49.1939 434.01 49.1939H432.456V48.7358C435.324 48.0187 436.32 46.3257 436.758 43.9355H437.615V47.2818C437.615 47.7 437.874 47.9191 438.292 47.9191H442.535L441.957 49.2138H438.212C437.874 49.2138 437.615 49.4727 437.615 49.8113V58.4757C437.615 60.3081 438.551 60.8459 439.587 60.8459C440.622 60.8459 441.459 60.4077 442.415 59.5114L442.634 59.7903C441.339 61.5032 440.085 62.2601 438.611 62.2601C436.141 62.2601 434.587 60.9256 434.587 58.396L434.607 58.3761Z" fill="#003CFF"/>
</svg>
