<svg width="332" height="61" viewBox="0 0 332 61" fill="none" xmlns="http://www.w3.org/2000/svg">
<path d="M0 58.5894H0.900222C6.02649 58.5894 7.92695 57.3391 7.92695 50.8375V9.17726C7.92695 2.70067 6.02649 1.45036 0.900222 1.45036H0V0H24.7561V1.45036H23.3057C18.2545 1.45036 16.279 2.70067 16.279 9.17726V50.8625C16.279 57.3391 18.2545 58.6145 23.3057 58.6145H24.7561V60.0648H0V58.6145V58.5894Z" fill="#003CFF"/>
<path d="M179.221 32.1334C177.146 27.6323 175.52 26.182 172.195 26.182H172.02V24.8316H191.999V26.182H189.924C187.573 26.182 186.323 26.9822 186.323 28.6076C186.323 29.5078 186.598 30.6831 187.223 32.1084L195.7 52.2384C195.825 52.5385 196.276 52.5385 196.401 52.2384L204.252 32.6586C204.878 31.0332 205.253 29.9579 205.253 28.9577C205.253 27.2572 203.802 26.157 201.302 26.157H199.851V24.8066H214.33V26.157H214.055C210.629 26.157 208.929 27.7824 206.953 32.1835L194.9 60.4404H191.924L179.221 32.0834V32.1334Z" fill="#003CFF"/>
<path d="M215.932 58.6896H216.557C219.983 58.6896 221.958 57.9644 221.958 52.9382V34.1335C221.958 31.0828 221.233 30.2576 218.807 29.3573L216.557 28.9072V28.182L228.535 24.2311H229.435V52.9382C229.435 57.9894 231.585 58.6896 234.836 58.6896H235.386V60.0399H215.957V58.6896H215.932ZM220.258 10.0026C220.258 7.3019 222.408 5.15137 225.209 5.15137C228.01 5.15137 230.26 7.3019 230.26 10.0026C230.26 12.7032 228.11 14.9538 225.209 14.9538C222.308 14.9538 220.258 12.8033 220.258 10.0026Z" fill="#003CFF"/>
<path d="M276.022 31.4079C274.497 27.907 272.971 26.1816 269.62 26.1816H269.445V24.8313H288.25V26.1816H287.25C284.549 26.1816 283.299 26.9818 283.299 28.4322C283.299 29.1573 283.649 30.3326 284.099 31.4829L292.101 51.8379C292.201 52.088 292.551 52.088 292.651 51.8379L298.778 36.3841C299.228 35.2588 299.203 34.0085 298.728 32.9083L297.852 30.9328C296.502 27.682 295.327 26.1566 292.276 26.1566H292.001V24.8063H310.906V26.1566H310.005C307.03 26.1566 305.154 26.6067 305.154 28.3071C305.154 28.9323 305.504 29.9325 305.879 30.9078L314.156 51.963C314.256 52.213 314.606 52.213 314.706 51.963L322.883 30.9078C323.234 30.0075 323.434 29.1073 323.434 28.3821C323.434 26.7567 322.183 26.1316 319.383 26.1316H318.207V24.7812H331.811V26.1316H331.536C328.11 26.1316 326.934 27.2068 325.409 30.9078L313.156 60.5151H310.355L300.903 38.1095C300.778 37.8095 300.328 37.8095 300.203 38.1095L291.001 60.4901H288.2L275.947 31.3329L276.022 31.4079Z" fill="#003CFF"/>
<path d="M112.579 38.6098H136.41V37.1595C135.41 36.7094 134.61 35.6341 134.26 34.5588C132.184 28.9825 128.408 24.0312 120.856 24.0312C113.304 24.0312 104.202 31.133 104.202 43.111C104.202 53.6385 110.604 60.8403 120.856 60.8403C127.433 60.8403 131.484 58.5898 136.335 53.7386L135.335 52.5633C131.634 55.439 128.758 56.7143 124.357 56.7143C116.08 56.7143 111.029 49.6126 111.029 40.6854C111.029 40.5853 111.029 40.5103 111.029 40.4103C111.054 39.26 111.354 38.6348 112.579 38.6098ZM119.756 26.1068C123.857 26.1068 126.183 29.8077 127.183 35.334C127.308 36.1092 126.758 36.6594 126.058 36.6594H112.729C112.004 36.6594 111.454 36.1842 111.604 35.309C112.829 28.9575 116.205 26.1318 119.731 26.1318L119.756 26.1068Z" fill="#003CFF"/>
<path d="M245.539 38.6098H269.37V37.1595C268.37 36.7094 267.57 35.6341 267.22 34.5588C265.144 28.9825 261.368 24.0312 253.816 24.0312C246.264 24.0312 237.162 31.133 237.162 43.111C237.162 53.6385 243.564 60.8403 253.816 60.8403C260.393 60.8403 264.444 58.5898 269.295 53.7386L268.295 52.5633C264.594 55.439 261.718 56.7143 257.317 56.7143C249.04 56.7143 243.989 49.6126 243.989 40.6854C243.989 40.5853 243.989 40.5103 243.989 40.4103C244.014 39.26 244.314 38.6348 245.539 38.6098ZM252.716 26.1068C256.817 26.1068 259.143 29.8077 260.143 35.334C260.268 36.1092 259.718 36.6594 259.017 36.6594H245.689C244.964 36.6594 244.414 36.1842 244.564 35.309C245.789 28.9575 249.165 26.1318 252.691 26.1318L252.716 26.1068Z" fill="#003CFF"/>
<path d="M140.361 58.6894H141.086C144.337 58.6894 146.313 57.9642 146.313 52.938V34.1333C146.313 31.0826 145.588 30.2574 143.162 29.3571L140.911 28.907V28.1819L152.889 24.2309H153.79V32.783C153.79 33.1831 154.34 33.3081 154.515 32.933C157.416 26.6065 160.216 24.1309 163.792 24.1309C166.493 24.1309 167.843 24.681 169.994 25.8313L168.368 31.3326C166.293 30.1573 164.417 29.2571 161.967 29.2571C159.666 29.2571 157.24 30.6325 154.965 34.2083C154.19 35.4086 153.79 36.834 153.79 38.2844V53.038C153.79 57.5391 155.315 58.7144 159.191 58.7144H160.991V60.0647H140.386V58.7144L140.361 58.6894Z" fill="#003CFF"/>
<path d="M73.5182 58.689C69.5672 58.689 68.2169 58.0638 68.2919 53.0126C68.3919 49.4117 68.4669 40.6846 68.4669 35.6333C68.4669 27.3563 64.4159 24.1055 58.2894 24.1055C54.3135 24.1055 50.1124 25.6058 44.0609 29.8319C43.7358 30.0569 43.2607 29.8319 43.2607 29.4318V24.1805H42.3605L30.3826 28.1315V28.8566L32.6331 29.3068C35.0587 30.207 35.7839 31.0072 35.7839 34.0829V52.9876C35.7839 57.9388 33.8084 58.664 30.4826 58.664H29.8574V60.0143H49.1122V58.664H48.562C45.2362 58.664 43.2607 57.8638 43.2607 52.7125V34.408C43.2607 33.9079 43.3608 33.4828 43.4608 33.1077C43.4858 33.0327 43.5358 32.9576 43.5608 32.8826C43.6608 32.6326 43.7859 32.3825 43.9359 32.1825C43.9859 32.0824 44.0609 32.0074 44.1359 31.9324C44.286 31.7574 44.461 31.5823 44.6361 31.4323C44.7111 31.3823 44.7861 31.3072 44.8611 31.2572C45.0112 31.1572 45.1362 31.0572 45.2862 30.9572C48.6871 28.8566 52.2129 27.6063 54.5385 27.6063C59.1146 27.6063 61.0151 30.132 61.0151 36.2585C61.0151 40.6595 60.9151 49.1366 60.8401 53.0876C60.74 57.7638 59.0396 58.664 55.4387 58.664H54.8136V60.0143H73.9933V58.664H73.5432L73.5182 58.689Z" fill="#003CFF"/>
<path d="M80.4463 51.1375V29.7822C80.4463 28.7819 79.8711 28.0818 78.9459 28.0818H75.0449V26.9065C82.2467 25.106 84.7723 20.88 85.8476 14.8535H87.9981V23.2306C87.9981 24.2558 88.6483 24.831 89.6985 24.831H100.326L98.8758 28.0818H89.4735C88.6483 28.0818 87.9731 28.7569 87.9731 29.5821V51.3125C87.9731 55.8886 90.3237 57.264 92.9243 57.264C95.525 57.264 97.6005 56.1887 100.026 53.9382L100.576 54.6633C97.3254 58.9894 94.1746 60.8649 90.4987 60.8649C84.2972 60.8649 80.4212 57.539 80.4212 51.1375H80.4463Z" fill="#003CFF"/>
</svg>
