<svg width="602" height="162" viewBox="0 0 602 162" fill="none" xmlns="http://www.w3.org/2000/svg">
<path d="M0 65.7041C0 26.8017 30.2519 0 70.7544 0C89.1055 0 99.9062 6.5004 106.007 6.5004C109.057 6.5004 110.507 6.15038 111.957 5.80036H113.057L116.107 39.4524H113.407C106.207 16.001 91.0556 4.8503 68.0542 4.8503C35.6522 4.8503 18.5511 29.7018 18.5511 60.1037C18.5511 96.656 38.0024 120.757 68.7543 120.757C91.4557 120.757 106.757 108.707 118.057 85.8553H121.458L110.107 119.707H109.007C107.557 119.157 105.407 119.007 103.956 119.007C95.8559 119.007 85.2553 125.108 66.5041 125.108C29.3518 125.108 0 103.106 0 65.7041Z" fill="white"/>
<path d="M136.259 89.4554C135.509 68.5041 153.61 50.753 174.611 50.553C195.613 50.353 213.314 63.9038 214.164 85.1051C215.014 106.306 197.363 123.657 176.261 124.158C155.16 124.658 137.059 110.957 136.309 89.4554H136.259ZM198.163 90.3554C198.163 69.4541 189.162 54.1532 173.161 54.1532C159.86 54.1532 152.31 66.0539 152.31 84.4051C152.31 105.106 161.31 120.757 177.311 120.757C190.112 120.757 198.213 108.507 198.213 90.3554H198.163Z" fill="white"/>
<path d="M315.32 88.7559C315.32 67.9046 329.72 50.6035 351.872 50.6035C365.373 50.6035 375.273 55.6538 375.273 61.9542C375.273 65.9045 372.573 68.9547 367.873 68.9547C363.723 68.9547 361.022 65.5544 358.522 62.1042C354.722 56.9039 352.772 54.7038 348.422 54.7038C335.121 54.7038 328.97 68.5546 328.97 84.2056C328.97 103.657 341.221 115.858 354.372 115.858C361.772 115.858 368.423 114.057 375.223 108.457L377.373 110.957C369.073 119.408 360.622 124.108 348.772 124.108C329.32 124.108 315.27 110.607 315.27 88.6559L315.32 88.7559Z" fill="white"/>
<path d="M560.785 104.758V62.055C560.785 60.0549 559.635 58.6548 557.785 58.6548H549.984V56.3046C564.385 52.7044 569.436 44.2539 571.586 32.2031H575.886V48.9542C575.886 51.0043 577.186 52.1544 579.286 52.1544H600.538L597.637 58.6548H578.836C577.186 58.6548 575.836 60.0048 575.836 61.6549V105.108C575.836 114.258 580.536 117.008 585.737 117.008C590.937 117.008 595.087 114.858 599.937 110.358L601.038 111.808C594.537 120.459 588.237 124.209 580.886 124.209C568.486 124.209 560.735 117.558 560.735 104.758H560.785Z" fill="white"/>
<path d="M403.875 79.7553H451.528V76.8551C449.528 75.9551 447.928 73.805 447.228 71.6548C443.078 60.5041 435.527 50.6035 420.426 50.6035C405.325 50.6035 387.124 64.8044 387.124 88.7559C387.124 109.807 399.925 124.208 420.426 124.208C433.577 124.208 441.677 119.708 451.378 110.007L449.378 107.657C441.977 113.407 436.227 115.958 427.427 115.958C410.876 115.958 400.775 101.757 400.775 83.9056C400.775 83.7056 400.775 83.5556 400.775 83.3555C400.825 81.0554 401.425 79.8053 403.875 79.7553V79.7553ZM418.226 54.7538C426.426 54.7538 431.077 62.1542 433.077 73.2049C433.327 74.755 432.227 75.8551 430.827 75.8551H404.175C402.725 75.8551 401.625 74.905 401.925 73.1549C404.375 60.4541 411.126 54.8038 418.176 54.8038L418.226 54.7538Z" fill="white"/>
<path d="M309.019 119.857C301.119 119.857 298.419 118.607 298.569 108.507C298.769 101.306 298.919 83.8552 298.919 73.7545C298.919 57.2035 290.818 50.7031 278.567 50.7031C270.617 50.7031 262.216 53.7033 250.116 62.1538C249.466 62.6039 248.516 62.1538 248.516 61.3538V50.8531H246.715L222.764 58.7536V60.2037L227.264 61.1038C232.115 62.9039 233.565 64.504 233.565 70.6544V108.457C233.565 118.357 229.614 119.807 222.964 119.807H221.714V122.508H260.216V119.807H259.116C252.466 119.807 248.516 118.207 248.516 107.907V71.3044C248.516 70.3043 248.716 69.4543 248.916 68.7042C248.966 68.5542 249.066 68.4042 249.116 68.2542C249.316 67.7542 249.566 67.2541 249.866 66.8541C249.966 66.6541 250.116 66.5041 250.266 66.3541C250.566 66.0041 250.916 65.654 251.266 65.354C251.416 65.254 251.566 65.104 251.716 65.004C252.016 64.804 252.266 64.604 252.566 64.404C259.366 60.2037 266.417 57.7036 271.067 57.7036C280.217 57.7036 284.018 62.7539 284.018 75.0046C284.018 83.8052 283.818 100.756 283.668 108.657C283.468 118.007 280.067 119.807 272.867 119.807H271.617V122.508H309.969V119.807H309.069L309.019 119.857Z" fill="white"/>
<path d="M511.682 50.5527C503.131 50.5527 497.381 53.5029 487.38 61.2034C486.93 61.5534 486.48 61.3034 486.48 60.7534V50.9028H484.68L460.929 58.8032V60.2533L465.229 61.1534C470.079 63.1535 471.529 64.4036 471.529 70.704V147.209C471.529 157.309 467.729 158.709 461.279 158.709H460.179V161.41H501.731V158.709H498.331C490.431 158.709 486.43 157.259 486.43 147.209V122.107C486.43 121.707 486.83 121.407 487.18 121.557C491.981 123.157 497.181 124.007 503.531 124.007C522.783 124.007 540.984 109.256 540.984 83.5048C540.984 63.0035 526.583 50.5527 511.632 50.5527H511.682ZM505.732 120.207C498.931 120.207 493.681 118.057 489.08 114.007C487.43 112.557 486.48 110.456 486.48 108.256V69.8039C486.48 66.3537 487.53 65.0036 489.331 63.7536C494.481 60.1533 498.531 59.0533 503.581 59.0533C517.282 59.0533 527.683 71.454 527.683 91.4553C527.683 109.106 518.682 120.257 505.732 120.257V120.207Z" fill="white"/>
</svg>
