<svg width="206" height="80" viewBox="0 0 206 80" fill="none" xmlns="http://www.w3.org/2000/svg">
<path d="M0 58.5787H0.900056C6.02538 58.5787 7.9255 57.3286 7.9255 50.8282V9.17558C7.9255 2.70017 6.02538 1.45009 0.900056 1.45009H0V0H25.3766V1.45009H23.5765C18.1761 1.45009 16.276 2.70017 16.276 9.17558V52.2033C16.276 55.8035 17.9011 57.6036 22.0264 57.6036H30.8519C37.9524 57.6036 41.3026 54.5534 45.7029 47.153L46.5029 45.6279H48.028L42.6277 60.0288H0V58.5787Z" fill="#003CFF"/>
<path d="M50.0286 76.7548C50.0286 74.9547 51.3787 73.7046 54.6039 72.9796C58.1041 72.3545 60.8043 71.0045 62.2544 68.1293L64.0545 64.229C64.9545 62.2539 64.9795 59.9788 64.0795 58.0036L52.1787 31.602C50.5536 28.0018 48.8535 26.2016 45.8783 26.2016H45.5283V24.8516H65.2296V26.2016H63.4294C60.5543 26.2016 59.6542 27.1017 59.5542 28.5518C59.5542 29.2768 59.8292 30.4519 60.2792 31.602L68.6298 51.4532C68.8048 51.8533 69.3798 51.8533 69.5548 51.4532L77.5553 31.602C77.8303 30.8019 78.1054 29.5269 78.1054 28.8018C78.1054 27.2767 76.9303 26.2016 74.0551 26.2016H72.43V24.8516H87.1809V26.2016H86.8309C83.8557 26.2016 81.7806 27.7267 80.0805 31.702L63.7045 69.9544C61.1043 76.0798 58.6541 79.855 54.1539 79.855C51.6287 79.855 50.0036 78.7799 50.0036 76.8048L50.0286 76.7548Z" fill="#003CFF"/>
<path d="M89.5059 58.6791H90.2309C93.4811 58.6791 95.4562 57.9541 95.4562 52.9288V34.1276C95.4562 31.0774 94.7312 30.2523 92.306 29.3523L90.0559 28.9023V28.1772L102.032 24.227H102.932V32.7775C102.932 33.1775 103.482 33.3025 103.657 32.9275C106.557 26.6021 109.357 24.127 112.932 24.127C115.632 24.127 116.983 24.677 119.133 25.8271L117.508 31.3274C115.432 30.1523 113.557 29.2523 111.107 29.2523C108.807 29.2523 106.382 30.6274 104.107 34.2026C103.332 35.4027 102.932 36.8278 102.932 38.2778V53.0288C102.932 57.529 104.457 58.7041 108.332 58.7041H110.132V60.0542H89.5309V58.7041L89.5059 58.6791Z" fill="#003CFF"/>
<path d="M123.434 58.6787H124.059C127.484 58.6787 129.459 57.9537 129.459 52.9284V34.1272C129.459 31.077 128.734 30.252 126.309 29.3519L124.059 28.9019V28.1768L136.034 24.2266H136.934V52.9284C136.934 57.9787 139.085 58.6787 142.335 58.6787H142.885V60.0288H123.459V58.6787H123.434ZM127.834 10.8757C127.309 7.77555 129.634 5.15039 132.709 5.15039C135.584 5.15039 137.759 7.30053 137.759 10.0007C137.759 12.7009 135.684 14.876 132.859 14.951C130.459 15.026 128.234 13.2509 127.834 10.8757V10.8757Z" fill="#003CFF"/>
<path d="M145.634 43.1035C145.634 32.6779 152.835 24.0273 163.911 24.0273C170.661 24.0273 175.611 26.5525 175.611 29.7027C175.611 31.6778 174.261 33.2029 171.911 33.2029C169.836 33.2029 168.486 31.5028 167.236 29.7777C165.336 27.1775 164.361 26.0775 162.185 26.0775C155.535 26.0775 152.46 33.0029 152.46 40.8284C152.46 50.554 158.585 56.6544 165.161 56.6544C168.861 56.6544 172.186 55.7543 175.586 52.9542L176.661 54.2042C172.511 58.4295 168.286 60.7796 162.36 60.7796C152.635 60.7796 145.609 54.0292 145.609 43.0535L145.634 43.1035Z" fill="#003CFF"/>
<path d="M184.762 59.8538C184.312 59.8538 183.687 59.9538 183.237 60.1288H182.962L181.962 50.9532H183.137C185.037 55.8035 189.437 58.7787 193.763 58.7787C197.638 58.7787 199.963 56.8036 199.963 53.5534C199.963 50.6782 197.538 48.5031 192.038 45.3529C185.112 41.4026 182.137 38.8775 182.137 34.0022C182.137 27.5268 187.887 24.1016 194.188 24.1016C197.888 24.1016 201.288 24.9016 203.188 25.6267L203.363 34.0772H202.288C201.113 29.4019 197.688 25.9767 193.188 25.9767C189.587 25.9767 187.437 28.0518 187.437 31.102C187.437 33.9022 189.512 35.6023 195.638 38.8525C202.213 42.5527 205.263 45.4279 205.263 50.6532C205.263 56.8536 199.313 60.7289 193.038 60.7289C189.612 60.7289 186.637 59.8288 184.762 59.8288V59.8538Z" fill="#003CFF"/>
</svg>
