<svg width="265" height="121" viewBox="0 0 265 121" fill="none" xmlns="http://www.w3.org/2000/svg">
<path d="M27.9531 85.6815C29.1638 85.6815 30.0852 85.253 30.0852 82.2102C30.0852 81.1495 29.3781 80.3673 28.1674 80.3673H12.7712C6.52489 80.3673 4.54278 80.5066 3.83565 80.5066C3.62137 80.5816 2.56067 80.7209 2.34639 80.7209C2.06782 80.7209 1.91782 80.5066 1.70354 80.228L0.353565 78.5995C0.0749987 78.3209 0 78.2459 0 78.1709C0 78.0317 0.139283 77.9567 0.278567 77.9567C0.771415 77.9567 2.97852 78.2352 3.39637 78.2352C6.86774 78.4495 9.78197 78.4495 13.1141 78.4495H28.5102C30.5673 78.4495 30.5673 76.8853 30.5673 74.9782C30.5673 74.6996 30.4923 73.1996 30.4923 72.921C30.5673 72.4282 31.0602 72.4282 31.2745 72.4282C32.1959 72.4282 35.7422 73.7032 36.9529 74.1317C37.5208 74.346 38.0136 74.5603 38.0136 75.1924C38.0136 75.621 37.8743 75.7603 36.4494 76.6817C36.1708 76.896 35.603 77.3245 35.603 77.7424C35.603 78.3102 36.0315 78.4495 36.4494 78.4495H50.4956C53.8276 78.4495 54.5455 78.4495 55.4669 77.2388C57.2454 74.7531 57.449 74.4746 58.1669 74.4746C58.8847 74.4746 64.1239 78.3745 64.1239 79.2959C64.1239 80.3566 62.7096 80.3566 60.2882 80.3566H36.8029C35.9458 80.3566 34.6708 80.3566 34.6708 83.7637C34.6708 84.8994 35.3137 85.6815 36.5137 85.6815H44.9564C45.5242 85.6815 46.7349 85.6815 47.5813 84.3315C48.2885 83.2709 48.3635 83.1959 48.717 83.1959C49.0706 83.1959 54.5348 86.4637 54.5348 87.5244C54.5348 88.2315 53.7526 88.8743 53.1848 89.3029C52.4027 89.8707 52.3384 90.01 52.3384 90.8671C52.3384 93.4921 52.6277 105.128 52.6277 107.474C52.6277 108.824 51.567 110.742 48.942 110.742C47.9456 110.742 47.8063 110.528 47.0242 109.467C46.3171 108.406 45.4599 108.406 44.8921 108.406H22.9175C21.5675 108.406 21.4282 109.253 21.4282 109.403C21.2139 110.753 20.2175 111.599 17.9568 111.599C16.3926 111.599 16.114 110.324 16.114 109.188C16.114 108.974 16.2533 106.563 16.2533 106.07C16.3283 105.578 16.3926 93.5778 16.3926 92.7314C16.3926 88.9708 16.3926 88.5422 16.039 86.3458C15.964 85.9922 15.5462 84.428 15.5462 84.0744C15.5462 83.5066 16.114 83.4316 16.4676 83.4316C17.2497 83.4316 19.7354 84.5673 20.9354 85.0601C22.3496 85.703 23.0675 85.703 23.7746 85.703H27.9638L27.9531 85.6815ZM13.2641 115.767C11.6998 115.767 11.132 116.549 10.9927 116.827C10.2105 118.531 9.57841 119.945 7.23202 119.945C5.66776 119.945 4.96063 119.163 4.96063 117.106C4.96063 115.542 5.45348 107.806 5.45348 106.103C5.45348 104.828 5.31419 91.4136 5.2392 90.985C5.1642 90.6314 4.67135 88.9279 4.67135 88.4993C4.67135 88.0708 5.02491 87.8565 5.51776 87.8565C6.16061 87.8565 9.35341 89.0672 10.2748 89.4207C11.7641 89.9886 12.2569 90.1279 12.2569 90.91C12.2569 91.0493 12.2569 91.2636 12.1176 91.5528C12.0426 91.7671 10.8427 92.7635 10.7034 93.0421C10.3498 93.6099 10.3498 99.9206 10.3498 101.271C10.3498 102.76 10.3498 111.91 10.7034 112.767C11.132 113.902 11.9141 113.902 12.4069 113.902H49.8849C52.6491 113.902 53.0777 113.763 53.5062 113.26C53.9348 112.692 55.7776 109.22 56.5597 109.22C57.5561 109.22 62.5168 113.688 62.5168 114.824C62.5168 115.745 62.1632 115.745 58.7561 115.745H13.2641V115.767ZM12.3426 71.5604C11.7748 71.5604 11.132 71.5604 10.4998 72.1282C9.43912 72.9746 8.87128 73.4032 7.5213 73.4032C6.73917 73.4032 5.53919 72.9746 5.53919 71.6246C5.53919 70.3497 5.75347 63.8891 5.75347 62.3998C5.75347 60.6213 5.75347 60.2034 5.67847 59.9141C5.67847 59.6998 5.46419 58.9177 5.46419 58.7034C5.46419 58.1356 5.89276 58.0606 6.17132 58.0606C7.23202 58.0606 9.14984 58.907 10.6391 59.5499C12.0534 60.1927 12.8355 60.1927 13.4783 60.1927H51.5884C52.0812 60.1927 52.8634 60.1927 53.7205 59.2713C55.1348 57.857 55.2848 57.707 55.7026 57.707C56.1205 57.707 60.7382 60.1927 60.7382 61.3284C60.7382 61.8962 60.2454 62.3891 59.7418 62.6034C58.8954 62.9569 58.7454 63.0319 58.7454 63.8141C58.7454 64.8105 58.9597 69.7068 58.9597 70.7675C58.9597 72.6853 57.2562 73.3925 55.4776 73.3925C54.2669 73.3925 54.0634 73.1139 53.4205 72.3318C52.9919 71.8389 52.4991 71.5496 51.792 71.5496H12.3426V71.5604ZM12.9105 62.057C11.6998 62.057 10.9284 62.6248 10.9284 63.8355C10.9284 69.3747 10.9284 69.7282 12.9105 69.7282H19.5854C20.7961 69.7282 21.5675 69.1604 21.5675 67.9497C21.5675 62.4105 21.5675 62.057 19.5854 62.057H12.9105V62.057ZM22.9817 94.4135C21.2032 94.4135 21.2032 95.7635 21.2032 96.6099C21.2032 97.8849 21.2032 99.1599 22.9817 99.1599H45.3314C47.0349 99.1599 47.0349 98.0242 47.0349 97.8849C47.0349 95.2599 47.0349 94.4028 45.3314 94.4028H22.9925L22.9817 94.4135ZM22.8425 101.013C21.7818 101.013 21.2139 101.656 21.2139 102.792C21.2139 105.706 21.2139 106.553 22.8425 106.553H45.4064C47.0349 106.553 47.0349 105.342 47.0349 105.203C47.0349 101.796 47.0349 101.013 45.4064 101.013H22.8425ZM23.1317 87.5994C21.2889 87.5994 21.2889 88.9493 21.2889 89.6565C21.2889 91.2207 21.2889 92.4957 23.1317 92.4957H45.4064C47.1849 92.4957 47.1849 91.1457 47.1849 90.4386C47.1849 88.8743 47.1849 87.5994 45.4064 87.5994H23.1317ZM29.0245 62.057C27.5352 62.057 27.0424 63.0534 27.0424 63.8998V67.9497C27.0424 68.5175 27.396 69.7282 29.0245 69.7282H35.0565C36.5458 69.7282 37.1136 68.7318 37.1136 67.8854C37.1136 67.4569 37.0386 63.9105 37.0386 63.8462C36.9636 63.2784 36.6851 62.0677 35.0565 62.0677H29.0245V62.057ZM43.8528 62.057C42.0743 62.057 42.0743 63.7605 42.0743 65.5283C42.0743 68.2926 42.0743 69.7175 43.8528 69.7175H51.5884C53.4312 69.7175 53.4312 68.014 53.4312 66.2354C53.4312 63.4712 53.4312 62.0462 51.5884 62.0462H43.8528V62.057Z" fill="#003CFF"/>
<path d="M92.3876 61.6289C93.5983 65.9573 95.5804 68.9359 96.0732 68.9359C96.3625 68.9359 97.5625 68.6573 98.8375 67.8002C100.252 66.9538 100.466 66.8038 101.323 66.8038C102.737 66.8038 103.734 67.7252 103.734 68.9359C103.734 70.0716 102.812 71.7001 100.68 72.4179C100.466 72.4929 98.9767 73.0608 98.9767 73.2644C99.4696 74.1108 102.662 79.2214 103.305 79.2214C103.595 79.2214 105.855 78.4393 105.855 77.2393C105.855 76.9607 104.934 75.9643 104.934 75.675C104.934 75.1072 105.641 75.0322 105.93 74.9679C108.48 74.7536 109.905 74.6143 110.334 74.6143C112.68 74.6143 114.523 75.75 114.523 77.7321C114.523 78.7285 114.384 80.3571 108.277 82.5535C106.434 83.1963 106.219 83.3356 106.219 83.6142C106.219 83.9677 106.294 84.107 108.491 87.5891C111.962 92.9783 113.034 96.1068 113.034 98.7318C113.034 101.646 110.762 103.628 108.919 103.628C107.077 103.628 106.648 103.275 102.041 100.082C99.2767 98.1639 96.8661 97.9496 95.1625 97.9496C88.7769 97.9496 85.7984 102.064 85.7984 105.257C85.7984 110.507 92.0447 110.86 93.8875 110.86C95.0232 110.86 99.7803 110.367 100.766 110.367C101.612 110.367 104.098 110.646 104.098 112.917C104.098 116.967 96.6518 116.967 95.7947 116.967C93.7375 116.967 81.8128 116.967 81.8128 107.035C81.8128 102.921 84.8663 95.8925 95.5804 95.8925C98.2053 95.8925 99.5553 96.1711 102.395 96.7389C104.377 97.1675 105.019 97.1675 105.512 97.1675C106.573 97.1675 107.355 96.8139 107.355 95.6782C107.355 94.264 106.294 91.0712 104.162 86.9463C103.102 84.8892 103.027 84.6749 102.384 84.6749C101.955 84.6749 99.266 85.457 98.6982 85.5963C95.7197 86.3034 93.3733 86.657 90.1805 86.657C85.927 86.657 83.0127 86.0891 80.8163 83.957C79.6806 82.8213 79.1128 81.4714 79.1128 80.9035C79.1128 80.4107 79.4664 80.1964 79.7556 80.1964C80.1092 80.1964 81.6735 81.3321 82.027 81.4714C84.3734 82.5321 86.9984 82.8856 89.4733 82.8856C95.0768 82.8856 100.477 81.0428 100.477 80.6142C100.477 80.1857 96.5018 73.9393 95.6554 73.9393C95.5161 73.9393 91.7554 74.5822 91.0483 74.5822C85.5198 74.5822 81.3306 70.7465 81.3306 69.4073C81.3306 69.193 81.4699 68.8394 81.8985 68.8394C82.177 68.8394 83.527 69.4073 83.7413 69.4823C86.0877 70.2644 86.9341 70.4787 88.6376 70.4787C90.3412 70.4787 92.8268 70.1251 92.8268 69.6323C92.8268 69.418 88.9912 63.8145 85.5948 62.111C83.5377 61.1146 83.2592 61.0503 83.2592 60.5467C83.2592 59.8396 84.6091 58.6289 86.0234 58.6289C87.5877 58.6289 91.7661 59.4753 92.409 61.6074L92.3876 61.6289Z" fill="#003CFF"/>
<path d="M174.479 77.6685C177.886 77.6685 178.24 77.6685 179.236 76.0399C180.651 73.6936 181.079 73.2757 181.722 73.2757C182.568 73.2757 187.465 77.9578 187.465 78.5256C187.465 79.5863 186.115 79.5863 183.704 79.5863H164.901C162.983 79.5863 162.919 80.797 162.919 81.8577C162.919 82.7041 162.919 91.0075 163.133 91.4361C163.562 92.3575 164.547 92.3575 164.976 92.3575H178.39C181.722 92.3575 182.076 92.3575 182.933 91.2218C185.204 88.104 185.483 87.7397 186.34 87.7397C187.551 87.7397 192.436 92.5611 192.436 93.2789C192.436 94.2753 191.022 94.2753 188.675 94.2753H164.976C163.133 94.2753 162.919 95.2717 162.919 96.4074C162.919 98.6788 162.994 108.536 162.994 110.604C162.994 112.95 162.919 115.575 159.94 117.986C158.162 119.336 156.394 119.614 155.183 119.614C154.048 119.614 154.048 119.475 153.769 117.482C153.49 115.918 150.93 114.429 148.444 113.443C148.23 113.368 147.801 113.164 147.801 112.95C147.801 112.596 148.23 112.596 148.444 112.596C155.826 112.596 156.608 112.596 157.176 111.6C157.744 110.604 157.883 109.971 157.883 96.4181C157.883 95.636 157.883 94.286 155.901 94.286H140.43C134.259 94.286 132.201 94.4253 131.494 94.4253C131.28 94.5003 130.219 94.6396 130.005 94.6396C129.716 94.6396 129.577 94.4253 129.362 94.1468L128.012 92.5182C127.734 92.2396 127.659 92.1646 127.659 92.0896C127.659 91.9504 127.798 91.8754 127.937 91.8754C128.43 91.8754 130.637 92.1539 131.055 92.1539C134.537 92.2932 137.441 92.3682 140.773 92.3682H155.89C156.319 92.3682 157.305 92.3682 157.733 91.5218C157.947 91.0932 157.947 82.7898 157.947 81.8684C157.947 80.872 157.872 79.597 155.89 79.597H144.823C138.651 79.597 136.594 79.672 135.887 79.7363C135.673 79.7363 134.612 79.9506 134.398 79.9506C134.119 79.9506 133.969 79.7363 133.755 79.4577L132.405 77.8292C132.266 77.6899 132.051 77.4756 132.051 77.4006C132.051 77.2613 132.191 77.1863 132.341 77.1863C132.834 77.1863 135.041 77.4649 135.459 77.4649C138.93 77.6792 141.844 77.6792 145.176 77.6792H155.89C157.872 77.6792 157.872 76.4042 157.872 75.4828C157.872 65.1223 157.872 64.8437 155.322 64.8437C154.54 64.8437 146.665 65.1973 145.037 65.1973C143.901 65.1973 133.969 65.1223 133.969 64.2759C133.969 64.0616 136.38 63.8473 136.884 63.783C146.462 63.0009 161.29 61.4366 169.304 58.5331C171.008 57.8903 171.576 57.6117 173.772 56.476C173.911 56.401 174.265 56.2617 174.479 56.2617C174.908 56.2617 177.811 58.6081 178.454 59.101C180.865 60.8045 181.004 60.8795 181.004 61.4473C181.004 62.658 180.222 62.7223 174.619 63.0759C172.84 63.1509 165.319 63.783 163.979 64.5651C162.844 65.208 162.844 65.9151 162.844 72.0864C162.844 77.1221 162.844 77.6899 164.901 77.6899H174.479V77.6685Z" fill="#003CFF"/>
<path d="M221.739 89.1644C221.386 88.1037 220.957 88.0287 220.528 88.0287C219.961 88.0287 217.625 88.6715 217.121 88.8751C215.771 89.3679 215.771 90.15 215.771 97.4571C215.771 99.0856 215.771 106.821 215.911 111.643C215.911 112.35 216.05 115.757 216.05 116.539C216.05 117.46 216.05 120.01 213.071 120.01C210.875 120.01 210.521 119.303 210.521 117.46C210.521 116.11 210.875 109.51 210.95 108.021C211.025 105.471 211.025 104.121 211.025 92.2714C211.025 90.9965 210.811 90.2143 209.675 90.2143C209.182 90.2143 203.643 91.2107 202.797 91.5643C202.582 91.6393 201.661 92.5607 201.382 92.5607C199.679 92.5607 198.972 87.3108 198.972 86.9573C198.972 86.3144 199.679 86.0358 200.032 86.0358C200.247 86.0358 200.739 86.1751 200.814 86.1751C201.522 86.3894 202.164 86.5287 206.847 86.5287C208.689 86.5287 208.979 86.1001 211.25 82.2002C213.029 79.0074 217.914 69.1397 217.989 66.5148C217.989 65.5934 217.989 65.1005 218.986 65.1005C218.986 65.1005 224.943 66.3755 224.943 68.8611C224.943 69.504 224.728 69.6433 223.1 70.6397C222.103 71.2825 218.278 76.6717 217.068 78.4395C216.221 79.6502 211.679 85.318 211.679 85.8216C211.679 86.1751 212.032 86.4644 212.739 86.4644C213.521 86.4644 218.128 86.1858 218.986 86.1858C220.046 86.1108 220.475 85.9073 220.475 85.4787C220.475 84.343 217.989 79.0181 217.989 79.0181C217.989 78.8038 218.128 78.7395 218.268 78.7395C219.403 78.7395 226.71 84.6966 226.71 88.8108C226.71 91.65 224.086 92.3572 223.303 92.1429C222.596 91.9286 222.521 91.8643 221.739 89.1644V89.1644ZM209.182 99.8784C209.107 99.8784 203.718 109.885 202.582 111.728C202.014 112.65 199.668 116.41 199.1 116.41C198.961 116.41 198.961 116.271 198.961 116.271C198.961 116.196 200.236 112.51 200.375 112.082C201.586 107.968 203.707 101.089 203.707 97.1785C203.707 97.0392 203.568 96.3964 203.568 96.2571C203.568 95.8285 203.997 95.6892 204.35 95.6892C205.272 95.6892 209.321 97.3928 209.814 98.5285C210.093 99.0963 209.889 99.3106 209.171 99.8784H209.182ZM218.686 61.3506C217.475 61.6291 217.196 61.7041 216.703 62.272C215.429 63.4827 209.396 71.1432 209.396 71.9254C209.396 72.2789 209.471 72.3539 210.243 73.3396C211.379 74.7539 211.454 76.3932 211.454 76.7467C211.454 78.5253 210.532 79.7252 209.107 79.7252C207.832 79.7252 207.05 78.8788 205.839 76.2432C205.411 75.2467 204.779 74.0468 203.857 72.9111C203.364 72.2682 200.45 69.0111 200.45 68.8719C200.45 68.7969 200.525 68.6576 200.664 68.6576C201.661 68.6576 206.343 70.5754 206.557 70.5754C207.404 70.5754 208.475 68.0897 209.257 66.3219C212.171 59.5077 212.236 59.0149 212.236 56.6042C212.236 56.1114 212.311 55.7578 212.804 55.7578C213.65 55.7578 219.403 59.0899 219.114 60.8684C219.039 61.0827 218.9 61.297 218.686 61.3613V61.3506ZM223.368 107.968C221.803 107.968 221.236 105.91 220.957 104.989C219.896 100.875 219.746 100.446 218.118 96.4714C217.978 96.1178 217.475 94.9071 217.475 94.6928C217.475 94.6928 217.475 94.5535 217.614 94.5535C218.107 94.5535 226.132 99.0213 226.132 104.56C226.132 104.914 226.057 105.343 225.993 105.696C225.639 107.26 224.15 107.968 223.368 107.968V107.968ZM250.046 83.9144C248.632 83.9144 247.989 84.193 247.989 85.618C247.989 86.4644 248.835 97.4678 253.592 104.207C255.081 106.339 257.074 109.103 257.996 109.103C259.131 109.103 261.542 102.932 261.756 102.932C261.971 102.932 261.971 103.286 261.971 104.775C261.971 105.985 262.11 110.314 262.249 111.45C262.324 112.232 263.878 115.778 263.878 116.7C263.878 118.478 261.531 118.478 261.253 118.478C257.278 118.478 251.599 110.035 250.539 108.332C249.971 107.485 249.692 107.057 249.124 107.057C248.342 107.057 235.078 113.164 232.378 114.364C227.835 116.496 227.268 116.71 226.7 117.417C225.425 118.982 225.135 119.335 224.353 119.335C223.143 119.335 222.296 117.139 221.803 115.864C221.525 115.296 220.239 112.532 220.239 112.318C220.239 111.825 220.314 111.825 223.078 111.825C227.482 111.825 228.896 110.828 228.896 108.846V72.3754C228.896 70.8111 228.682 69.2576 228.543 68.1219C228.468 67.4147 227.696 64.0077 227.696 63.2255C227.696 62.797 228.125 62.7327 228.543 62.7327C229.25 62.7327 232.657 64.2219 233.514 64.2219C235.357 64.2219 247.496 59.4006 249.478 58.3292C249.906 58.1149 251.46 56.4114 251.964 56.4114C252.531 56.4114 259.271 60.3113 259.271 61.2327C259.271 61.6613 258.703 61.8006 258.274 61.8756C257.214 62.0148 251.889 62.9363 250.678 63.1505C248.314 63.4791 247.132 66.1041 247.132 71.0254C247.132 73.2968 247.207 78.686 247.485 80.5288C247.699 81.9431 248.407 82.0181 249.617 82.0181H251.814C252.521 82.0181 254.578 82.0181 255.081 81.8038C255.724 81.4502 257.781 78.0431 258.553 78.0431C259.549 78.0431 264.371 81.9431 264.371 83.0787C264.371 83.9252 264.017 83.9252 260.61 83.9252H250.035L250.046 83.9144ZM240.896 81.9966C242.524 81.9966 242.878 81.6431 242.878 80.2181C242.878 80.0788 242.524 69.0111 242.449 66.879C242.449 65.6041 242.31 64.5327 240.96 64.5327C240.532 64.5327 236.771 65.1755 235.925 65.3148C234.864 65.5291 234.146 65.6683 233.792 66.3755C233.578 66.804 233.578 77.8717 233.578 79.286C233.578 81.0645 233.578 81.9859 235.85 81.9859H240.885L240.896 81.9966ZM235.925 83.9144C235.217 83.9144 234.146 83.9144 233.792 84.9109C233.578 85.2644 233.578 91.2215 233.578 94.275C233.578 99.8784 233.578 107.903 233.717 108.321C233.857 108.964 234.36 109.318 235.067 109.318C235.914 109.318 242.374 107.689 243.939 107.26C245.567 106.832 248.482 106.05 248.482 105.203C248.482 104.711 248.192 104.068 248.053 103.714C245.642 98.6785 244.646 94.1357 243.585 86.7537C243.307 84.5573 243.017 83.9144 241.035 83.9144H235.925Z" fill="#003CFF"/>
<path d="M0.0642846 36.0306H0.23571C1.36069 36.0306 1.69283 35.6342 1.97139 34.2628L3.22494 27.8236C3.51422 26.3772 3.09637 26.0558 2.04639 26.0558H2.00354L2.06782 25.7344H9.99625L9.67483 28.1772H9.32127V27.8558C9.24627 26.6022 8.72128 26.2165 7.25345 26.2165H5.58205L4.66063 30.9629H6.99631C8.01415 30.9629 8.57128 30.7271 8.79628 29.7522L8.82842 29.6129H9.1927L8.59271 32.8914H8.22843L8.26057 32.72C8.42128 31.8414 7.96058 31.5414 6.78202 31.5414H4.55349L4.0285 34.2414C3.73922 35.6878 4.15707 36.0092 5.20705 36.0092H5.41062L5.34634 36.3306H0L0.0642846 36.0092V36.0306Z" fill="black"/>
<path d="M9.5249 34.5516C9.5249 32.1516 11.732 30.0195 13.7034 30.0195C14.8177 30.0195 15.7391 30.6195 15.7391 31.9695C15.7391 34.348 13.5427 36.4801 11.5713 36.4801C10.4463 36.4801 9.5249 35.8801 9.5249 34.5409V34.5516ZM13.9284 32.3231C13.9284 31.1445 13.607 30.6838 13.1141 30.6838C12.0534 30.6838 11.3463 32.1195 11.3463 34.1766C11.3463 35.3659 11.6463 35.8159 12.1606 35.8159C13.2213 35.8159 13.9284 34.3909 13.9284 32.3231Z" fill="black"/>
<path d="M20.282 35.9026C20.282 35.7097 20.2927 35.3776 20.357 35.1419L21.1177 32.2062C21.2248 31.8098 21.1177 31.5419 20.9141 31.5419C20.5927 31.5419 20.357 31.7991 18.7498 33.7383L18.1927 36.3633H16.4463L17.4641 31.3919C17.0999 31.5312 16.7784 31.7455 16.307 32.0884L16.082 31.8955C17.0999 30.6848 18.0856 30.0312 18.7177 30.0312C19.1355 30.0312 19.3391 30.2241 19.3391 30.5884C19.3391 30.7919 19.2748 31.1884 19.2105 31.4777L18.9106 32.9133C20.7105 30.5884 21.2355 30.042 22.1676 30.042C22.7248 30.042 23.0783 30.4062 23.0783 30.9527C23.0783 31.4027 23.0141 31.8098 22.7891 32.6562L22.0391 35.5276C22.4891 35.3669 22.7569 35.2276 23.314 34.7455L23.5498 34.9383C22.5855 36.0633 21.8462 36.5133 20.9784 36.5133C20.5605 36.5133 20.282 36.2883 20.282 35.924V35.9026Z" fill="black"/>
<path d="M24.2139 35.7952C24.2139 35.6023 24.2782 35.2595 24.321 34.9809L25.0817 30.8667H24.2246L24.3531 30.4488C25.3067 30.1167 26.2495 29.3667 26.8602 28.0703H27.5245C27.321 28.6596 27.1067 29.4739 26.9888 30.1703H28.3924L28.2209 30.8667H26.8495L25.9924 35.5059C26.496 35.3452 26.8817 35.1845 27.5031 34.7131L27.7067 34.938C26.8817 35.8273 25.8317 36.4916 25.071 36.4916C24.5031 36.4916 24.2246 36.2023 24.2139 35.7952V35.7952Z" fill="black"/>
<path d="M31.1459 35.7632L31.7031 33.299H32.0566C32.2495 35.2811 33.2138 36.0846 35.0244 36.0846C36.5137 36.0846 37.3173 35.3882 37.3173 34.3168C37.3173 33.5561 37.0494 33.0633 35.2816 31.8847C33.6423 30.8026 32.8816 29.9026 32.8816 28.5633C32.8816 26.8812 34.4245 25.5312 36.3744 25.5312C37.8851 25.5312 38.3887 25.9491 38.7529 25.9491C39.0101 25.9491 39.1494 25.842 39.2244 25.5312H39.7494L39.2994 28.5955H38.9672C38.6137 26.9777 37.6494 26.0241 36.3101 26.0241C34.9709 26.0241 34.4459 26.7419 34.4459 27.5026C34.4459 28.2633 34.8637 28.8419 36.4601 29.8812C38.0137 30.899 38.8922 31.8633 38.8922 33.2454C38.8922 35.3132 37.3173 36.5668 34.9816 36.5668C33.6316 36.5668 32.3138 36.3418 31.1245 35.7525L31.1459 35.7632Z" fill="black"/>
<path d="M38.5067 39.3826H38.5496C39.2139 39.3826 39.5031 39.1898 39.696 38.2362L41.1102 31.3685C40.746 31.5078 40.4245 31.7221 39.9531 32.0649L39.7281 31.8721C40.746 30.6614 41.7317 30.0078 42.3638 30.0078C42.7816 30.0078 42.9852 30.2007 42.9852 30.5649C42.9852 30.7685 42.9209 31.1649 42.8566 31.4542L42.6317 32.5685C44.2709 30.3614 44.7638 30.0078 45.4173 30.0078C45.9423 30.0078 46.628 30.5007 46.628 31.7864C46.628 34.5399 44.4316 36.4791 42.9102 36.4791C42.4817 36.4791 42.2138 36.447 41.8602 36.3184L41.4638 38.2255C41.271 39.1791 41.571 39.3719 42.2567 39.3719H42.6102L42.5674 39.6612H38.4639L38.5067 39.3719V39.3826ZM44.9138 32.5471C44.9138 32.0221 44.678 31.6685 44.3459 31.6685C44.0566 31.6685 43.6495 31.9364 42.4602 33.4149L42.1281 35.1184C42.3209 35.6113 42.6317 35.9113 43.2102 35.9113C44.1423 35.9113 44.9245 34.722 44.9245 32.5471H44.9138Z" fill="black"/>
<path d="M50.8386 30.0195C51.76 30.0195 52.2957 30.3517 52.2957 31.0695C52.2957 32.0552 51.1815 32.8695 48.7386 33.5766V33.8123C48.7386 35.1194 49.2315 35.4623 49.9172 35.4623C50.3993 35.4623 50.935 35.323 51.5564 34.8944L51.8136 35.1837C50.8172 36.1159 49.8958 36.4908 48.9636 36.4908C47.8494 36.4908 47.0137 36.0301 47.0137 34.723C47.0137 32.1945 49.1243 30.0195 50.8386 30.0195V30.0195ZM50.0136 30.8445C49.2851 30.8445 48.8886 31.8409 48.7708 33.1159C50.11 32.6445 50.5708 32.0981 50.5708 31.5409C50.5708 31.0588 50.4315 30.8445 50.0136 30.8445V30.8445Z" fill="black"/>
<path d="M52.4028 34.7873C52.4028 32.4195 54.5349 30.0195 56.4099 30.0195C57.2027 30.0195 57.5992 30.3838 57.5992 30.8981C57.5992 31.3588 57.2777 31.7445 56.8063 31.7445C56.1421 31.7445 55.9278 30.9838 55.3171 30.9838C54.6635 30.9838 54.1385 32.3659 54.1385 34.0802C54.1385 35.1409 54.5564 35.4837 55.1564 35.4837C55.6171 35.4837 56.0349 35.3123 56.6349 34.8623L56.892 35.1302C55.9706 36.148 55.1564 36.5016 54.2564 36.5016C53.0671 36.5016 52.4135 35.9337 52.4135 34.798L52.4028 34.7873Z" fill="black"/>
<path d="M58.0919 35.9009C58.0919 35.7081 58.124 35.4081 58.1669 35.1402L58.949 31.3796C58.5847 31.5189 58.2633 31.7332 57.7919 32.076L57.5669 31.8832C58.5847 30.6725 59.5704 30.0189 60.2026 30.0189C60.6204 30.0189 60.824 30.2118 60.824 30.576C60.824 30.7796 60.7597 31.176 60.6954 31.4653L59.849 35.5045C60.299 35.3438 60.5668 35.2045 61.124 34.7224L61.3597 34.9152C60.3954 36.0402 59.6561 36.4902 58.799 36.4902C58.3705 36.4902 58.0812 36.2652 58.0812 35.9009H58.0919ZM59.4097 27.8439C59.4097 26.9868 59.999 26.4297 60.5561 26.4297C61.049 26.4297 61.5097 26.8797 61.5097 27.5868C61.5097 28.4332 60.9204 29.0011 60.3526 29.0011C59.8597 29.0011 59.4097 28.5511 59.4097 27.8439V27.8439Z" fill="black"/>
<path d="M69.4059 35.9036C69.4059 35.7107 69.4166 35.3786 69.4809 35.1429L70.2416 32.2072C70.3487 31.8108 70.2416 31.5429 70.038 31.5429C69.7166 31.5429 69.4059 31.7358 67.938 33.7393L67.3809 36.3643H65.6131L66.4916 32.2179C66.5666 31.8215 66.5023 31.5537 66.288 31.5537C65.9881 31.5537 65.8166 31.7251 64.2845 33.75L63.7274 36.375H61.981L62.9988 31.4037C62.6345 31.5429 62.3131 31.7572 61.8417 32.1001L61.6167 31.9072C62.6345 30.6965 63.6202 30.043 64.2524 30.043C64.6702 30.043 64.8738 30.2358 64.8738 30.6001C64.8738 30.8037 64.8095 31.2001 64.7452 31.4894L64.4559 32.8715C66.1595 30.4608 66.5666 30.043 67.5416 30.043C68.1094 30.043 68.463 30.4072 68.463 30.9537C68.463 31.1572 68.4309 31.4144 68.3023 32.0465L68.1309 32.8715C69.738 30.5358 70.2737 30.043 71.2915 30.043C71.8487 30.043 72.2022 30.4072 72.2022 30.9537C72.2022 31.4037 72.138 31.8108 71.913 32.6572L71.163 35.5286C71.613 35.3679 71.8808 35.2286 72.4379 34.7465L72.6737 34.9393C71.7094 36.0643 70.9701 36.5143 70.1023 36.5143C69.6844 36.5143 69.4059 36.2893 69.4059 35.925V35.9036Z" fill="black"/>
<path d="M76.8845 30.0195C77.8059 30.0195 78.3416 30.3517 78.3416 31.0695C78.3416 32.0552 77.2274 32.8695 74.7845 33.5766V33.8123C74.7845 35.1194 75.2774 35.4623 75.9631 35.4623C76.4452 35.4623 76.9809 35.323 77.6023 34.8944L77.8595 35.1837C76.8631 36.1159 75.9417 36.4908 75.0095 36.4908C73.8953 36.4908 73.0596 36.0301 73.0596 34.723C73.0596 32.1945 75.1702 30.0195 76.8845 30.0195V30.0195ZM76.0595 30.8445C75.331 30.8445 74.9345 31.8409 74.8167 33.1159C76.1559 32.6445 76.6167 32.0981 76.6167 31.5409C76.6167 31.0588 76.4774 30.8445 76.0595 30.8445V30.8445Z" fill="black"/>
<path d="M82.7341 35.9026C82.7341 35.7097 82.7448 35.3776 82.8091 35.1419L83.5698 32.2062C83.6769 31.8098 83.5698 31.5419 83.3662 31.5419C83.0448 31.5419 82.8091 31.7991 81.202 33.7383L80.6449 36.3633H78.8985L79.9163 31.3919C79.552 31.5312 79.2306 31.7455 78.7592 32.0884L78.5342 31.8955C79.552 30.6848 80.5377 30.0312 81.1698 30.0312C81.5877 30.0312 81.7913 30.2241 81.7913 30.5884C81.7913 30.7919 81.727 31.1884 81.6627 31.4777L81.3627 32.9133C83.1627 30.5884 83.6877 30.042 84.6198 30.042C85.1769 30.042 85.5305 30.4062 85.5305 30.9527C85.5305 31.4027 85.4662 31.8098 85.2412 32.6562L84.4912 35.5276C84.9412 35.3669 85.2091 35.2276 85.7662 34.7455L86.0019 34.9383C85.0376 36.0633 84.2984 36.5133 83.4305 36.5133C83.0127 36.5133 82.7341 36.2883 82.7341 35.924V35.9026Z" fill="black"/>
<path d="M88.5843 36.0326H88.7129C89.7414 36.0326 90.3521 35.3148 90.695 34.0184L92.3021 27.9971C92.6342 26.7435 92.2914 26.0792 91.1771 26.0792H91.1128L91.1771 25.7578H94.6699L96.6199 33.9755L101.848 25.7578H105.213L105.148 26.0792H104.977C103.852 26.0792 103.541 26.4757 103.37 27.8471L102.555 34.2862C102.384 35.7326 102.813 36.0541 103.863 36.0541H103.927L103.863 36.3755H98.6556L98.7198 36.0541H98.8913C100.016 36.0541 100.327 35.6576 100.498 34.2862L101.313 27.8471L95.827 36.3648H95.0985L93.0842 27.8471L91.4128 34.1255C91.0807 35.3791 91.4235 36.0433 92.5378 36.0433H92.6021L92.5378 36.3648H88.52L88.5843 36.0433V36.0326Z" fill="black"/>
<path d="M105.052 35.547C105.052 35.2149 105.116 34.8506 105.212 34.4327L105.866 31.3685C105.502 31.5078 105.18 31.7221 104.709 32.0649L104.484 31.8721C105.502 30.6614 106.487 30.0078 107.12 30.0078C107.537 30.0078 107.741 30.2007 107.741 30.5649C107.741 30.7685 107.677 31.1649 107.612 31.4542L107.012 34.272C106.937 34.6577 107.002 34.9363 107.216 34.9363C107.484 34.9363 107.612 34.8077 109.316 32.7292L109.841 30.1578H111.609L110.527 35.4934C110.977 35.3327 111.223 35.1934 111.802 34.7113L112.037 34.9042C111.052 36.0291 110.334 36.4791 109.466 36.4791C109.048 36.4791 108.748 36.2541 108.748 35.8898C108.748 35.697 108.791 35.397 108.845 35.1291L109.145 33.5542C107.345 35.8791 106.905 36.447 105.962 36.447C105.405 36.447 105.052 36.0613 105.052 35.5363V35.547Z" fill="black"/>
<path d="M112.177 35.6444C112.177 35.2266 112.445 34.8944 112.97 34.8944C113.666 34.8944 113.966 35.7516 114.705 35.7516C115.134 35.7516 115.327 35.5801 115.327 35.248C115.327 35.0123 115.155 34.7552 114.309 34.0266C113.527 33.3409 113.248 32.9016 113.248 32.1195C113.248 31.0695 114.309 30.0195 115.616 30.0195C116.537 30.0195 117.17 30.4374 117.17 30.9517C117.17 31.4338 116.902 31.6802 116.484 31.6802C115.82 31.6802 115.67 30.7481 114.898 30.7481C114.545 30.7481 114.395 30.9517 114.395 31.2409C114.395 31.5409 114.598 31.7445 115.177 32.2695C116.141 33.1588 116.462 33.6088 116.462 34.4016C116.462 35.6766 115.38 36.4801 113.902 36.4801C112.97 36.4801 112.187 36.1908 112.187 35.6337L112.177 35.6444Z" fill="black"/>
<path d="M117.801 35.9009C117.801 35.7081 117.833 35.4081 117.876 35.1402L118.658 31.3796C118.294 31.5189 117.973 31.7332 117.501 32.076L117.276 31.8832C118.294 30.6725 119.28 30.0189 119.912 30.0189C120.33 30.0189 120.533 30.2118 120.533 30.576C120.533 30.7796 120.469 31.176 120.405 31.4653L119.558 35.5045C120.008 35.3438 120.276 35.2045 120.833 34.7224L121.069 34.9152C120.105 36.0402 119.366 36.4902 118.508 36.4902C118.08 36.4902 117.791 36.2652 117.791 35.9009H117.801ZM119.119 27.8439C119.119 26.9868 119.708 26.4297 120.266 26.4297C120.758 26.4297 121.219 26.8797 121.219 27.5868C121.219 28.4332 120.63 29.0011 120.062 29.0011C119.569 29.0011 119.119 28.5511 119.119 27.8439V27.8439Z" fill="black"/>
<path d="M121.38 34.7873C121.38 32.4195 123.512 30.0195 125.387 30.0195C126.18 30.0195 126.576 30.3838 126.576 30.8981C126.576 31.3588 126.255 31.7445 125.783 31.7445C125.119 31.7445 124.905 30.9838 124.294 30.9838C123.641 30.9838 123.116 32.3659 123.116 34.0802C123.116 35.1409 123.533 35.4837 124.133 35.4837C124.594 35.4837 125.012 35.3123 125.612 34.8623L125.869 35.1302C124.948 36.148 124.133 36.5016 123.233 36.5016C122.044 36.5016 121.391 35.9337 121.391 34.798L121.38 34.7873Z" fill="black"/>
<path d="M132.619 28.1032C132.319 26.5604 131.869 26.0675 130.937 26.0675H130.873L130.937 25.7461H136.005L135.94 26.0675H135.651C134.987 26.0675 134.633 26.3889 134.837 27.5782L136.058 34.6924L139.701 28.3068C140.119 27.5889 140.269 27.1175 140.269 26.7211C140.269 26.3247 139.937 26.0675 139.444 26.0675H139.208L139.272 25.7461H142.883L142.819 26.0675H142.658C141.93 26.1318 141.437 26.6354 140.58 28.1032L135.747 36.3638H134.205L132.619 28.1032V28.1032Z" fill="black"/>
<path d="M141.33 35.9009C141.33 35.7081 141.362 35.4081 141.405 35.1402L142.187 31.3796C141.823 31.5189 141.501 31.7332 141.03 32.076L140.805 31.8832C141.823 30.6725 142.808 30.0189 143.44 30.0189C143.858 30.0189 144.062 30.2118 144.062 30.576C144.062 30.7796 143.997 31.176 143.933 31.4653L143.087 35.5045C143.537 35.3438 143.805 35.2045 144.362 34.7224L144.597 34.9152C143.633 36.0402 142.894 36.4902 142.037 36.4902C141.608 36.4902 141.319 36.2652 141.319 35.9009H141.33ZM142.648 27.8439C142.648 26.9868 143.237 26.4297 143.794 26.4297C144.287 26.4297 144.747 26.8797 144.747 27.5868C144.747 28.4332 144.158 29.0011 143.59 29.0011C143.098 29.0011 142.648 28.5511 142.648 27.8439V27.8439Z" fill="black"/>
<path d="M144.951 34.7129C144.951 31.9808 147.148 30.0201 148.669 30.0201C149.098 30.0201 149.365 30.063 149.719 30.1808L150.415 26.7845C149.955 26.8595 149.601 26.9559 149.065 27.1487L148.926 26.8916C150.34 26.0345 151.005 25.7773 151.594 25.7773C152.012 25.7773 152.215 26.0131 152.215 26.3773C152.215 26.5809 152.151 26.9666 152.087 27.2666L150.405 35.495C150.833 35.3343 151.101 35.195 151.68 34.7129L151.905 34.9058C150.94 36.0307 150.201 36.4807 149.344 36.4807C148.926 36.4807 148.626 36.2557 148.626 35.8914C148.626 35.6986 148.669 35.3986 148.723 35.1307L148.948 33.9201C147.308 36.1272 146.815 36.4807 146.162 36.4807C145.637 36.4807 144.951 36.0093 144.951 34.7022V34.7129ZM149.13 33.0951L149.462 31.3915C149.269 30.9094 148.958 30.5987 148.38 30.5987C147.458 30.5987 146.665 31.8094 146.665 33.9629C146.665 34.4986 146.901 34.8415 147.233 34.8415C147.523 34.8415 147.93 34.5736 149.13 33.0951V33.0951Z" fill="black"/>
<path d="M156.04 30.0195C156.962 30.0195 157.497 30.3517 157.497 31.0695C157.497 32.0552 156.383 32.8695 153.94 33.5766V33.8123C153.94 35.1194 154.433 35.4623 155.119 35.4623C155.601 35.4623 156.137 35.323 156.758 34.8944L157.015 35.1837C156.019 36.1159 155.097 36.4908 154.165 36.4908C153.051 36.4908 152.215 36.0301 152.215 34.723C152.215 32.1945 154.326 30.0195 156.04 30.0195V30.0195ZM155.215 30.8445C154.487 30.8445 154.09 31.8409 153.972 33.1159C155.312 32.6445 155.772 32.0981 155.772 31.5409C155.772 31.0588 155.633 30.8445 155.215 30.8445V30.8445Z" fill="black"/>
<path d="M157.637 34.5516C157.637 32.1516 159.844 30.0195 161.815 30.0195C162.929 30.0195 163.851 30.6195 163.851 31.9695C163.851 34.348 161.654 36.4801 159.683 36.4801C158.558 36.4801 157.637 35.8801 157.637 34.5409V34.5516ZM162.04 32.3231C162.04 31.1445 161.719 30.6838 161.226 30.6838C160.165 30.6838 159.458 32.1195 159.458 34.1766C159.458 35.3659 159.758 35.8159 160.272 35.8159C161.333 35.8159 162.04 34.3909 162.04 32.3231Z" fill="black"/>
<path d="M113.462 11.5476C113.462 8.79405 115.209 6.97266 117.887 6.97266C120.566 6.97266 122.205 8.51549 122.205 11.2904C122.205 14.0654 120.437 15.9189 117.78 15.9189C115.123 15.9189 113.462 14.3011 113.462 11.5476ZM119.827 11.4619C119.827 9.69404 119.162 8.80477 117.823 8.80477C116.602 8.80477 115.852 9.76903 115.852 11.4083C115.852 13.1225 116.548 14.0654 117.823 14.0654C119.098 14.0654 119.827 13.1654 119.827 11.4619Z" fill="black"/>
<path d="M130.08 4.45634C130.08 3.67421 130.68 3.07422 131.505 3.07422C132.33 3.07422 132.919 3.67421 132.919 4.45634C132.919 5.23847 132.341 5.81703 131.505 5.81703C130.669 5.81703 130.08 5.21704 130.08 4.45634ZM130.348 7.092H132.641V15.7811H130.348V7.092Z" fill="black"/>
<path d="M150.458 7.09375H152.944L154.422 13.4365L156.329 7.09375H158.151L159.972 13.4579L161.59 7.09375H163.936L161.194 15.7829H158.815L157.165 10.0187L155.397 15.7829H152.944L150.458 7.09375V7.09375Z" fill="black"/>
<path d="M138.223 10.5745C137.376 10.2852 136.637 10.0281 136.637 9.4388C136.637 8.92452 137.044 8.62452 137.88 8.62452C138.641 8.62452 139.766 8.89238 140.419 9.25666V7.30669C139.659 7.08169 138.994 6.95312 137.869 6.95312C135.78 6.95312 134.387 7.88525 134.387 9.64236C134.387 11.3995 135.78 11.8173 136.991 12.2245C137.912 12.5459 138.609 12.8244 138.609 13.4673C138.609 14.0137 138.18 14.3137 137.355 14.3137C136.337 14.3137 135.394 14.003 134.548 13.5852V15.5244C135.362 15.803 136.176 15.9315 137.184 15.9315C139.476 15.9315 140.923 14.9458 140.923 13.1887C140.923 11.4316 139.444 10.9923 138.234 10.5745H138.223Z" fill="black"/>
<path d="M149.687 15.7805V10.5628C149.687 8.06639 148.529 6.94141 145.926 6.94141C144.876 6.94141 143.73 7.17712 142.744 7.61639V9.48065C143.547 9.01994 144.576 8.71995 145.38 8.71995C146.762 8.71995 147.405 9.23422 147.415 10.3378C145.883 10.4021 144.608 10.6056 143.687 10.9485C142.412 11.4199 141.897 12.127 141.897 13.4127C141.897 15.0091 142.947 15.952 144.705 15.952C145.883 15.952 146.73 15.5555 147.458 14.677V15.802H149.665L149.687 15.7805ZM147.426 13.177C146.901 13.852 146.172 14.2484 145.39 14.2484C144.608 14.2484 144.233 13.8949 144.233 13.1984C144.233 12.502 144.522 12.1913 145.305 12.0092C145.915 11.8592 146.73 11.752 147.426 11.7413V13.1877V13.177Z" fill="black"/>
<path d="M171.79 15.7805V10.5628C171.79 8.06639 170.633 6.94141 168.029 6.94141C166.979 6.94141 165.833 7.17712 164.847 7.61639V9.48065C165.651 9.01994 166.68 8.71995 167.483 8.71995C168.865 8.71995 169.508 9.23422 169.519 10.3378C167.987 10.4021 166.712 10.6056 165.79 10.9485C164.515 11.4199 164.001 12.127 164.001 13.4127C164.001 15.0091 165.051 15.952 166.808 15.952C167.987 15.952 168.833 15.5555 169.562 14.677V15.802H171.769L171.79 15.7805ZM169.529 13.177C169.004 13.852 168.276 14.2484 167.494 14.2484C166.712 14.2484 166.337 13.8949 166.337 13.1984C166.337 12.502 166.626 12.1913 167.408 12.0092C168.019 11.8592 168.833 11.752 169.529 11.7413V13.1877V13.177Z" fill="black"/>
<path d="M128.591 6.97266C127.208 6.97266 126.341 7.60479 125.644 8.80477V7.09051H123.448V15.7796H125.741V10.5619C126.201 9.77975 126.833 9.22261 128.226 9.22261C128.43 9.22261 128.644 9.23333 128.891 9.26547V6.99408C128.783 6.99408 128.676 6.97266 128.58 6.97266H128.591Z" fill="black"/>
<path d="M99.2983 4.05078H102.738L105.138 11.1435C105.341 11.7756 105.513 12.3649 105.695 13.1685C105.898 12.3863 106.048 11.8292 106.273 11.1435L108.673 4.05078H112.005V15.7827H109.691L109.777 8.45427C109.798 7.82214 109.809 7.20073 109.83 6.53645H109.777C109.67 6.99716 109.52 7.50072 109.38 7.96143L106.691 15.7827H104.548L101.848 7.96143C101.677 7.41501 101.527 6.91145 101.42 6.4936H101.388C101.409 7.1043 101.42 7.90786 101.42 8.45427L101.527 15.7827H99.2983V4.05078V4.05078Z" fill="black"/>
<path d="M185.579 11.5515C185.579 8.79796 187.325 6.97656 190.004 6.97656C192.683 6.97656 194.322 8.51939 194.322 11.2943C194.322 14.0693 192.554 15.9228 189.897 15.9228C187.24 15.9228 185.579 14.305 185.579 11.5515ZM191.943 11.4658C191.943 9.69794 191.279 8.80867 189.94 8.80867C188.718 8.80867 187.968 9.77294 187.968 11.4122C187.968 13.1265 188.665 14.0693 189.94 14.0693C191.215 14.0693 191.943 13.1693 191.943 11.4658Z" fill="black"/>
<path d="M215.139 10.5745C214.293 10.2852 213.554 10.0281 213.554 9.4388C213.554 8.92452 213.961 8.62452 214.797 8.62452C215.557 8.62452 216.682 8.89238 217.336 9.25666V7.30669C216.575 7.08169 215.911 6.95312 214.786 6.95312C212.697 6.95312 211.304 7.88525 211.304 9.64236C211.304 11.3995 212.697 11.8173 213.907 12.2245C214.829 12.5459 215.525 12.8244 215.525 13.4673C215.525 14.0137 215.097 14.3137 214.272 14.3137C213.254 14.3137 212.311 14.003 211.464 13.5852V15.5244C212.279 15.803 213.093 15.9315 214.1 15.9315C216.393 15.9315 217.839 14.9458 217.839 13.1887C217.839 11.4316 216.361 10.9923 215.15 10.5745H215.139Z" fill="black"/>
<path d="M208.015 4.78906V7.07116H210.382V8.89256H208.015V12.5461C208.015 13.6496 208.336 14.0246 209.29 14.0246C209.557 14.0246 209.9 13.9925 210.297 13.9068V15.7174C209.654 15.8353 209.075 15.8996 208.561 15.8996C206.568 15.8996 205.722 15.0532 205.722 13.0603V8.89256H204.275V7.07116H205.807V4.78906H208.015V4.78906Z" fill="black"/>
<path d="M195.5 7.09442V15.7835H197.825V9.96579C198.179 9.32295 198.843 8.92653 199.615 8.92653C200.718 8.92653 201.179 9.53723 201.179 11.0051V15.7835H203.472V10.1908C203.472 8.02654 202.508 6.97656 200.483 6.97656C199.411 6.97656 198.393 7.46941 197.74 8.36939V7.09442H195.5V7.09442Z" fill="black"/>
<path d="M178.497 4.05078H185.826V5.99003H180.908V9.18283H184.476V11.1007H180.908V15.7827H178.497V4.05078Z" fill="black"/>
<path d="M10.4141 7.84333C10.1677 7.15763 10.4998 7.15763 10.6927 6.6005L11.8712 3.21484H8.52842L7.59629 6.43979C7.57487 6.57907 7.55344 6.70764 7.53201 6.84692C7.36058 7.9719 8.93556 8.68975 8.04629 9.69687C7.41416 10.4361 6.4606 10.854 6.06418 11.7754C5.98918 12.0218 5.95704 12.1611 5.95704 12.1611C5.95704 12.1611 5.91418 12.0218 5.8499 11.7754C5.81775 11.6576 5.7749 11.5076 5.75347 11.3361C5.73204 11.1218 5.6249 10.9076 6.09632 10.6719C7.57487 9.77187 6.22489 8.58261 4.99277 7.69334C3.76065 6.70764 3.35351 3.22556 3.35351 3.22556H0C0 3.22556 0.503563 4.68268 1.15712 6.61121C1.19998 6.73978 1.24284 6.86835 1.30712 6.99692C1.76783 7.96119 2.81781 8.22904 3.61065 8.91474C3.77136 9.07545 3.93207 9.13974 3.82493 9.4933C3.55708 10.3397 2.66781 11.079 3.01066 12.0218C3.05352 12.1504 3.09637 12.2897 3.14994 12.4075C3.81422 14.3361 4.30707 15.7932 4.30707 15.7932H7.51058C7.51058 15.7932 8.16414 13.9182 8.95698 11.6147C9.27841 10.6719 11.3141 10.3504 10.4141 7.85405" fill="black"/>
<path d="M19.7999 12.0121C19.5963 11.5943 19.757 11.1764 20.0249 10.8014C20.4963 10.2764 21.6105 9.59073 20.657 8.9586C19.7034 8.32647 18.5999 8.00505 17.9785 6.99792C17.9142 6.86935 17.8606 6.73007 17.8178 6.61222C17.1106 4.68368 16.5749 3.22656 16.5749 3.22656H13.2964C13.2964 3.22656 12.75 4.68368 12.0429 6.61222C12 6.74079 11.9464 6.86935 11.925 6.99792C11.6464 7.75862 12.2464 8.3479 12.4821 9.02289C12.5786 9.29074 12.5036 9.59073 12.3 9.7943C11.5071 10.5336 10.4572 11.0157 10.05 12.0121C9.99646 12.1407 9.9536 12.28 9.90003 12.4085C9.18219 14.3371 8.64648 15.7942 8.64648 15.7942H11.9893L12.6107 13.7799H17.2392L17.8606 15.7942H21.2034C21.2034 15.7942 20.6677 14.3371 19.9606 12.4085C19.9177 12.28 19.8641 12.1514 19.8213 12.0121M16.9285 10.6086C16.7999 10.7479 16.7142 10.9086 16.6821 11.0907C16.6499 11.2943 16.4678 11.455 16.2642 11.4764C15.3214 11.5943 14.3357 11.4764 13.3928 11.4764C14.025 10.6836 14.9785 10.3729 15.7071 9.63359C15.8571 9.49431 15.8999 9.31217 15.8785 9.11931C15.8785 9.07646 15.8571 9.0336 15.8356 9.00146C15.4392 8.24076 14.4535 7.71577 14.7214 6.7515C14.8178 6.40865 14.8714 6.19437 14.8714 6.19437C14.8714 6.19437 14.9357 6.40865 15.0428 6.7515C15.1285 7.05149 15.2785 7.26578 15.4928 7.53363C16.1785 8.32647 17.3892 8.53004 17.657 9.48359C17.7963 9.93359 17.2713 10.2336 16.9178 10.6086" fill="black"/>
<path d="M32.2817 8.16475C31.8639 7.80048 31.4353 7.31834 31.4675 6.71835V3.21484H28.3175V6.58978C28.3175 6.66478 28.3175 6.73978 28.3282 6.81478C28.3389 6.91121 28.3604 7.01835 28.3818 7.11477C28.6175 8.1969 29.4854 8.42189 30.0639 9.10759C30.1818 9.24688 30.2568 9.37545 30.1175 9.47187C28.4247 10.7147 28.2961 12.0754 28.1247 12.4075C28.0175 12.6111 27.8997 12.8147 27.7068 12.9861C27.2568 13.3825 26.7425 13.4468 26.1533 13.4468C25.939 13.4468 25.1033 13.4468 24.4819 12.9647C24.3104 12.8361 24.1926 12.6968 24.1069 12.5361C24.0212 12.3754 23.9462 12.1825 23.9354 11.9361C23.9247 10.9718 24.7926 10.6719 25.4247 10.1897C25.789 9.92187 26.5497 9.6433 26.164 9.13974C25.0604 7.69333 23.9033 8.1969 23.9033 6.68621C23.9033 6.54693 23.9033 6.40764 23.9033 6.26836V3.21484H20.7319V6.71835C20.7319 7.95047 22.0605 8.32547 22.7462 9.10759C22.8533 9.26831 22.8533 9.42902 22.7462 9.57901C22.0605 10.3719 20.6891 10.8433 20.8284 12.0754C20.8498 12.2254 20.8712 12.3754 20.9034 12.5254C21.0641 13.2647 21.3748 13.9504 21.9855 14.5611C23.4105 15.986 25.5104 16.0718 26.0676 16.0718C26.7854 16.0718 30.0961 15.8789 31.146 12.9325C31.1996 12.7825 31.2318 12.6432 31.2746 12.4932C31.5746 11.5076 33.5031 10.3397 33.5031 9.32188C33.5031 8.5826 32.7639 8.52903 32.2924 8.16475" fill="black"/>
<path d="M45.417 9.48259C45.5135 9.26831 45.3635 9.06474 45.2028 8.90403C44.6349 8.38975 43.9492 7.95047 43.6278 7.25406C43.5635 7.10406 43.5206 6.94335 43.5206 6.78264C43.5206 6.71835 43.5206 6.65407 43.5206 6.6005V3.21484H40.51C40.51 3.21484 40.5314 4.66125 40.5636 6.32193C40.5636 6.46121 40.5636 6.6005 40.5636 6.73978C40.5636 8.16475 42.5242 8.21833 42.5671 9.38616C42.6207 10.179 41.41 10.4361 40.9385 11.1218C41.0457 10.4361 42.1492 10.0719 41.785 9.4933C40.9385 8.1219 38.935 8.22904 38.1207 6.79335C38.0457 6.6755 37.9707 6.54693 37.9065 6.42907C36.9208 4.72553 36.0422 3.22556 36.0422 3.22556H32.9565V6.61121C32.9565 6.69692 32.9565 6.78264 32.9565 6.87906C32.9565 6.96478 32.9673 7.05049 32.9994 7.12549C33.3637 8.18618 35.0244 8.37904 34.8744 9.4933C34.7672 10.4897 32.978 10.7576 32.9565 12.0218V15.8039H35.9886C35.9886 15.8039 35.9672 14.1218 35.9458 12.3325C35.9458 12.1933 35.9458 12.054 35.9565 11.9147C36.0422 10.8218 37.735 10.6719 37.735 9.50402C37.735 9.04331 36.9422 8.50761 36.4708 8.02547C37.1565 8.6576 38.8922 8.76474 38.635 9.81472C38.4743 10.5004 37.735 11.1326 38.1743 11.9147C38.2386 12.0325 38.3136 12.1611 38.3886 12.279C39.4493 14.1004 40.4564 15.8039 40.4564 15.8039H43.5421V12.0218C43.5421 10.8111 45.0099 10.5219 45.4385 9.4933" fill="black"/>
<path d="M55.6274 6.70764C55.5738 6.57907 55.5203 6.4505 55.4667 6.33264C55.3596 6.09693 55.2417 5.90408 55.1346 5.72194C54.7381 5.10052 54.3739 4.75767 54.1382 4.58625C52.606 3.32198 50.5061 3.26841 49.9704 3.23627C49.5954 3.21484 49.2204 3.21484 48.8347 3.21484H44.8276V6.6005C44.8276 6.72907 44.8276 6.85764 44.849 6.9862C45.0633 7.95047 46.0062 8.26118 46.5847 8.94688C47.3776 9.7933 45.7919 10.3183 45.2669 10.8968C44.999 11.2076 44.849 11.5826 44.8169 12.0004V15.7825H49.7454C50.4632 15.7825 51.0632 15.7503 51.7596 15.5896C53.2917 15.2361 54.2132 14.4111 54.631 13.9504C54.9739 13.5539 55.3274 13.0075 55.606 12.2683C55.6596 12.1183 55.7131 11.9575 55.7881 11.7968C56.1738 10.6933 57.3845 10.4361 58.1238 9.58973C58.2095 9.48259 58.2095 9.32188 58.1238 9.22545C57.3524 8.30404 56.2167 8.03619 55.6274 6.70764M52.2203 12.1611C52.0703 12.3325 51.9311 12.4825 51.7703 12.6111C50.9561 13.2218 49.8847 13.2647 48.9525 13.2647H47.9883V12.3968C47.9883 12.2147 48.0097 12.0218 48.0097 11.8075C48.0097 10.6719 49.4775 10.4361 49.9704 9.5683C50.0668 9.39688 50.0347 9.17188 49.8954 9.0326C49.1561 8.34689 47.9776 7.90762 47.9776 6.76121V5.89337H49.2418C49.8525 5.89337 50.3775 5.87194 50.9668 6.07551C51.3096 6.18265 51.5668 6.34336 51.7703 6.50407C51.9739 6.66478 52.4239 7.18977 52.5525 7.31834C53.2382 8.10047 54.7381 8.43261 54.7381 9.46116C54.7381 10.5861 52.9275 11.3254 52.1989 12.1825" fill="black"/>
<path d="M64.3597 6.87906C64.4454 6.76121 66.9846 3.21484 66.9846 3.21484H63.4061C63.4061 3.21484 62.0883 5.30409 61.2954 6.54693C61.199 6.69692 61.124 6.82549 61.049 6.95406C61.0169 7.00763 60.9954 7.05049 60.9847 7.11477C60.9097 7.33977 60.8883 7.47905 60.8883 7.47905C60.8883 7.47905 60.6955 7.30763 60.4705 7.03977C60.3526 6.90049 60.2455 6.73978 60.1383 6.56835C59.3455 5.31481 58.0169 3.23627 58.0169 3.23627H54.417C54.417 3.23627 55.5955 4.91838 56.7741 6.58978C56.8598 6.70764 56.9455 6.82549 57.0419 6.95406C57.9955 8.03619 59.4205 8.40046 60.6312 9.13974C60.899 9.30045 61.1026 9.66473 60.899 9.93258C60.2669 10.5647 59.1419 10.8326 59.1419 12.0111C59.1419 12.1504 59.1419 12.3004 59.1419 12.4397V15.8039H62.2383V12.0968C62.2704 10.9826 63.3204 10.4576 64.0811 9.85758C64.0811 9.85758 64.3168 9.7183 64.5847 9.4933C65.2597 8.94688 64.2204 8.40046 64.1133 7.76833C64.0597 7.45762 64.1668 7.1362 64.3597 6.90049" fill="black"/>
<path d="M73.9381 19.2854L73.4131 18.7604L92.3449 0L92.8699 0.524991L73.9381 19.2854Z" fill="black"/>
<path d="M92.3449 19.2854L73.4131 0.524991L73.9381 0L92.8699 18.7604L92.3449 19.2854Z" fill="black"/>
</svg>
