<svg width="210" height="140" viewBox="0 0 210 140" fill="none" xmlns="http://www.w3.org/2000/svg">
<path d="M186.667 17.5H23.3333C20.1117 17.5 17.5 20.1117 17.5 23.3333V116.667C17.5 119.888 20.1117 122.5 23.3333 122.5H186.667C189.888 122.5 192.5 119.888 192.5 116.667V23.3333C192.5 20.1117 189.888 17.5 186.667 17.5Z" fill="white"/>
<path d="M186.667 18.0833C189.562 18.0833 191.917 20.4381 191.917 23.3333V116.667C191.917 119.562 189.562 121.917 186.667 121.917H23.3333C20.4381 121.917 18.0833 119.562 18.0833 116.667V23.3333C18.0833 20.4381 20.4381 18.0833 23.3333 18.0833H186.667ZM186.667 17.5H23.3333C20.1114 17.5 17.5 20.1114 17.5 23.3333V116.667C17.5 119.889 20.1114 122.5 23.3333 122.5H186.667C189.889 122.5 192.5 119.889 192.5 116.667V23.3333C192.5 20.1114 189.889 17.5 186.667 17.5Z" fill="#003CFF"/>
<g opacity="0.06">
<path d="M47.6896 43.2643C48.0454 43.1923 48.3643 43.1573 48.7202 43.1573C50.0268 43.1573 51.3063 43.7407 51.3063 45.232C51.3063 46.1129 50.8454 46.6807 50.0268 46.9801C49.5932 47.1357 49.1382 47.1862 48.6774 47.2076L48.5141 46.6184C49.4727 46.597 50.6588 46.3832 50.6588 45.1757C50.6588 44.7634 50.4954 44.3512 50.1474 44.1101C49.8985 43.9332 49.636 43.8476 49.3443 43.762C49.1091 44.6137 48.7552 45.5101 48.1018 46.1343C47.6624 46.5543 47.1432 46.8654 46.5171 46.8654C45.7782 46.8654 45.3738 46.2607 45.3738 45.5723C45.3738 44.7907 45.8132 44.1295 46.4743 43.7329C46.6727 43.6123 46.8652 43.5268 47.0791 43.4412C47.0713 43.1573 47.0713 42.8657 47.0713 42.5818V42.504H45.5721V41.9207H47.0713V41.2109H47.7032L47.6954 41.9207H51.0904V42.504H47.6877V43.2643H47.6896ZM47.1004 44.0245C46.4899 44.3007 45.9493 44.8412 45.9493 45.5509C45.9493 45.934 46.1632 46.2762 46.5813 46.2762C46.9002 46.2762 47.1704 46.1557 47.4329 45.9787C47.2268 45.3818 47.1413 44.6507 47.0985 44.0245H47.1004ZM48.7843 43.6901C48.7416 43.6823 48.6929 43.6823 48.6424 43.6823C48.3293 43.6823 48.0027 43.7329 47.6974 43.8165C47.7266 44.4407 47.7538 44.917 47.9171 45.5276C48.3429 45.0454 48.5996 44.2987 48.7843 43.6882V43.6901Z" fill="black"/>
<path d="M60.3905 41.6189C60.2972 42.3014 60.2408 42.9605 60.2408 43.6508C60.2408 44.2264 60.27 45.0216 60.4255 45.568C60.4741 45.7314 60.5889 46.0153 60.7172 46.1358C60.83 46.2486 60.9583 46.3069 61.1216 46.3069C61.3783 46.3069 61.5416 46.1358 61.6894 45.9453C61.9383 45.6186 62.158 45.1286 62.3 44.7378L62.825 45.0353C62.6111 45.6186 62.3058 46.2505 61.8664 46.69C61.6466 46.9039 61.3764 47.0303 61.0711 47.0303C60.3458 47.0303 60.0133 46.4119 59.8422 45.7936C59.6575 45.148 59.6011 44.2517 59.6011 43.5769C59.6011 42.9022 59.6516 42.2275 59.7139 41.5586L60.3886 41.615L60.3905 41.6189ZM65.1214 43.4291C65.378 44.1758 65.448 45.0703 65.448 45.8519C65.448 46.0075 65.448 46.1708 65.4402 46.3283L64.7364 46.3575C64.7577 46.1164 64.7655 45.8753 64.7655 45.6322C64.7655 44.3605 64.5089 42.9975 63.4725 42.1516L63.9625 41.7744C64.503 42.2294 64.8939 42.7544 65.1194 43.4291H65.1214Z" fill="black"/>
<path d="M75.1372 43.0949C75.7983 43.0171 76.5081 42.9393 77.0194 42.9393C77.5017 42.9393 77.9508 42.9685 78.3611 43.2446C78.8161 43.5635 78.9581 44.211 78.9581 44.736C78.9581 45.1268 78.8725 45.5235 78.7014 45.8793C78.4467 46.4199 77.9703 46.7524 77.4219 46.9662C76.7044 47.2424 75.8236 47.2929 75.0575 47.3143L74.8806 46.6901C75.4911 46.6824 76.2436 46.6551 76.8755 46.4704C77.6572 46.2351 78.2678 45.7607 78.2678 44.7437C78.2678 44.3821 78.1744 44.0126 77.8983 43.7637C77.6572 43.5499 77.315 43.5285 77.0097 43.5285C76.3992 43.5285 74.8786 43.7774 74.2331 43.8901L74.1553 43.194C74.4469 43.1726 74.7872 43.1299 75.1353 43.0949H75.1372ZM78.4253 41.6307L78.2542 42.2549C77.0817 41.899 76.1736 41.7785 74.9506 41.7435L75.0283 41.1543C76.3078 41.1679 77.1944 41.304 78.4233 41.6307H78.4253Z" fill="black"/>
<path d="M93.6699 41.5254C93.5629 42.2215 93.3354 42.8962 92.8746 43.4368C92.4779 43.9054 91.9801 44.2048 91.4396 44.4809L91.0274 43.9696C91.9296 43.6001 92.5907 43.1179 92.859 42.1379H87.8015V41.5273H93.6679L93.6699 41.5254ZM87.9298 46.6743C88.6473 46.369 89.3221 45.879 89.6993 45.1829C90.0687 44.5082 90.1251 43.6351 90.1251 42.8748L90.7862 42.8826C90.7785 43.7712 90.7007 44.6948 90.2748 45.4901C89.8548 46.264 89.1451 46.8318 88.3635 47.209L87.9298 46.6762V46.6743Z" fill="black"/>
<path d="M105.632 47.2562H104.949V43.9467C104.076 44.5573 103.159 45.0201 102.151 45.3681L101.838 44.7789C103.849 44.147 105.632 42.8326 106.931 41.1992L107.528 41.5901C106.931 42.2939 106.349 42.8695 105.632 43.4431V47.2581V47.2562Z" fill="black"/>
<path d="M121.642 42.2646V42.741C121.635 45.6169 120.044 46.9682 117.273 47.1938L117.067 46.5832C118.125 46.4841 119.163 46.2488 119.994 45.5468C120.754 44.9013 120.952 43.9563 120.952 43.0035V42.8616H116.995V44.5882H116.363V42.2666H118.65V41.166H119.303V42.2666H121.641L121.642 42.2646Z" fill="black"/>
<path d="M136.084 46.9945L135.693 47.5487C135.01 47.0937 134.322 46.7398 133.575 46.4131C132.665 47.0743 131.353 47.4223 130.245 47.5351L130.039 46.9109C131.026 46.8254 132.07 46.6406 132.944 46.1584C132.183 45.8609 131.409 45.6256 130.628 45.4137C130.997 44.9879 131.295 44.5679 131.58 44.0779H129.869V43.5159H131.886C132.07 43.1679 132.212 42.8276 132.341 42.4504L132.994 42.5709C132.866 42.8898 132.718 43.2106 132.568 43.5159H136.418V44.0779H135.162C134.935 44.8031 134.608 45.4409 134.075 45.9815C134.771 46.2731 135.438 46.6134 136.086 46.9965L136.084 46.9945ZM132.823 41.5968V40.957H133.434V41.5968H136.253V43.1445H135.65V42.1431H130.643V43.1445H130.04V41.5968H132.825H132.823ZM134.534 44.0759H132.269C132.049 44.4454 131.835 44.7856 131.573 45.1279C132.226 45.3126 132.874 45.5109 133.505 45.752C133.995 45.3048 134.33 44.7079 134.536 44.0759H134.534Z" fill="black"/>
<path d="M147.344 45.1343L147.457 45.6534C146.512 46.122 145.05 46.6898 144.041 46.9951L143.928 46.4118C144.177 46.3398 144.418 46.262 144.667 46.1765L144.61 41.084H145.207L145.256 45.9704C145.96 45.7137 146.662 45.4512 147.344 45.1323V45.1343ZM146.456 47.5493L146.15 46.9737C148.487 46.3845 149.211 44.9923 149.275 42.6901L149.318 41.0995L149.936 41.1073L149.901 42.7348C149.872 43.6798 149.724 44.6384 149.269 45.4765C149.773 45.9529 150.257 46.4701 150.669 47.0243L150.171 47.5143C149.837 46.9465 149.39 46.4487 148.956 45.9587C148.303 46.8045 147.465 47.2576 146.456 47.5493ZM148.054 43.3434L147.521 43.7129C147.152 43.0032 146.691 42.3926 146.172 41.7879L146.632 41.4398C147.165 42.0018 147.669 42.6765 148.054 43.3434Z" fill="black"/>
<path d="M163.625 42.8315V43.3856H161.708V44.5931H164.706V45.1609H161.708V46.9731C161.708 47.3931 161.48 47.5409 161.084 47.5409H159.954L159.833 46.9304L160.942 46.9381C161.076 46.9381 161.119 46.8604 161.119 46.732V45.1629H158.128V44.5951H161.119V43.3876H159.207V42.8334H163.625V42.8315ZM161.119 41.589V40.957H161.708V41.589H164.535V43.3643H163.946V42.1354H158.888V43.3643H158.299V41.589H161.119Z" fill="black"/>
<path d="M45.9064 62.9714L45.2881 62.6952C45.8714 61.5305 46.2759 60.1461 46.517 58.8744L45.3873 58.8822V58.2716H46.6239C46.6881 57.8458 46.7445 57.42 46.7873 56.9922L47.4756 57.0214C47.4114 57.4414 47.3414 57.8594 47.2695 58.2716H48.0356C48.335 58.2716 48.6325 58.2852 48.9028 58.4214C49.5134 58.713 49.5853 59.5083 49.5853 60.1052C49.5853 60.745 49.4861 61.6686 49.245 62.25C49.0039 62.8255 48.5781 62.9597 48.0025 62.9597C47.7264 62.9597 47.4484 62.9461 47.1723 62.9091L47.1509 62.2558C47.4056 62.3064 47.6486 62.3414 47.9111 62.3414C48.2514 62.3414 48.5081 62.2636 48.65 61.9291C48.8775 61.4314 48.9475 60.6147 48.9475 60.0683C48.9475 58.9386 48.6131 58.853 47.6973 58.8608L47.1567 58.8686C46.8728 60.2316 46.5034 61.7172 45.9064 62.9733V62.9714ZM51.4617 60.6555L50.7792 60.7761C50.715 59.7533 50.4389 58.7383 49.77 57.9489L50.295 57.6572C51.0631 58.4389 51.3606 59.59 51.4598 60.6555H51.4617Z" fill="black"/>
<path d="M63.2391 59.3199C63.9353 59.2771 64.6314 59.2344 65.3139 59.0788L65.3858 59.668C64.7539 59.7885 64.1064 59.8313 63.4686 59.8663C63.6883 60.3135 63.91 60.6616 64.2289 61.0524L63.6747 61.4355C63.313 60.996 62.9922 60.4263 62.7802 59.8935C62.5041 59.9071 62.2183 59.9149 61.9344 59.9149H61.7925L59.5486 59.9013V59.3258L61.7089 59.3549H61.8294C62.0783 59.3549 62.3272 59.3471 62.5741 59.3413C62.4828 59.0496 62.4108 58.7949 62.3389 58.4955C62.0822 58.5033 61.8275 58.5091 61.5786 58.5091L59.8033 58.5013V57.9258L61.5086 57.9335C61.7497 57.9335 61.985 57.9335 62.2261 57.9258C62.1755 57.6341 62.1405 57.3424 62.1133 57.0527L62.7958 57.0449C62.8094 57.3288 62.8464 57.6127 62.8872 57.8966C63.5269 57.8674 64.1725 57.811 64.8044 57.6983L64.8608 58.2952C64.2425 58.3944 63.6183 58.4371 62.9922 58.4721C63.0564 58.756 63.1419 59.0399 63.2411 59.318L63.2391 59.3199ZM61.1508 60.9396C60.9739 61.1166 60.795 61.3305 60.795 61.593C60.795 62.361 62.2941 62.3805 62.9339 62.3805C63.5366 62.3805 64.0422 62.3591 64.6741 62.3085L64.6877 62.9327C64.2055 62.9755 63.7291 62.9833 63.245 62.9833C62.4983 62.9833 61.6175 62.9833 60.9291 62.6994C60.5033 62.5146 60.1416 62.1316 60.1416 61.6416C60.1416 61.243 60.3905 60.8891 60.6666 60.6188L61.1489 60.9377L61.1508 60.9396Z" fill="black"/>
<path d="M75.357 59.57C75.0945 59.7469 74.937 59.8539 74.937 59.9744C74.937 60.0522 75.0148 60.1028 75.1295 60.1728C75.4056 60.3283 75.6915 60.4858 75.9754 60.6414C76.9068 61.145 78.1551 61.9053 78.9368 62.6092L78.332 63.1069C77.4862 62.3758 76.5412 61.7653 75.5826 61.1897C75.3415 61.0478 74.589 60.6064 74.4179 60.4586C74.2759 60.338 74.1768 60.2039 74.1768 60.0114C74.1768 59.848 74.2623 59.6925 74.3751 59.5719C74.5598 59.3736 75.3415 58.8194 75.604 58.6191C76.3293 58.0864 77.0312 57.5264 77.6495 56.8711L78.332 57.2619C77.4298 58.135 76.3993 58.8661 75.3551 59.57H75.357Z" fill="black"/>
<path d="M88.1514 62.9928L87.7256 62.5028C89.1528 61.6298 89.6856 60.535 89.9267 58.9231H87.9667V58.3126H89.9909C90.0259 57.8712 90.0414 57.4531 90.0336 57.0117L90.7084 57.0253C90.6948 57.4512 90.6656 57.8848 90.6364 58.3106H93.3509V59.4967C93.3509 60.1792 93.3159 61.762 93.0748 62.3453C92.962 62.6156 92.6975 62.8431 92.4136 62.9073C92.2153 62.95 92.015 62.9578 91.8089 62.9578C91.4531 62.9578 91.1128 62.9228 90.757 62.8587L90.7434 62.2131C91.1128 62.2773 91.4609 62.3259 91.8361 62.3259C92.1842 62.3259 92.4195 62.2617 92.5186 61.9059C92.6528 61.4509 92.6956 60.1014 92.6956 59.59V58.9231H90.5645C90.3098 60.6634 89.6973 62.0478 88.1495 62.9928H88.1514Z" fill="black"/>
<path d="M107.308 58.013L107.359 58.6236L105.021 58.8433L105.171 60.2919L107.891 60.0294L107.934 60.6399L105.235 60.8966L105.463 63.0413L104.802 63.0763L104.574 60.9588L101.84 61.2155L101.79 60.6108L104.51 60.3483L104.36 58.9055L102.031 59.1252L101.98 58.5147L104.296 58.2949L104.162 57.0447L104.823 56.9883L104.957 58.2308L107.308 58.0111V58.013Z" fill="black"/>
<path d="M116.807 63.0489L116.536 62.4442C117.687 62.1953 118.732 61.7559 119.554 60.8964C120.336 60.0798 120.719 59.0784 120.874 57.9778H118.352C117.841 58.7867 117.287 59.3837 116.492 59.9164L116.087 59.4342C116.875 58.9014 117.493 58.2403 117.927 57.3887H121.621C121.351 60.4434 119.846 62.3684 116.805 63.0489H116.807Z" fill="black"/>
<path d="M131.042 56.7422H131.618V58.0002H133.101C133.088 59.2583 133.08 60.565 133.023 61.7725C133.01 62.1127 132.951 62.5969 132.825 62.9022C132.675 63.2502 132.405 63.3222 132.057 63.3222H131.332L131.233 62.7252L132.014 62.733C132.213 62.733 132.298 62.6689 132.355 62.3558C132.51 61.475 132.518 59.5714 132.518 58.5777H131.616V58.6341C131.616 60.2325 131.417 62.2002 130.167 63.3358L129.741 62.8536C130.288 62.3072 130.636 61.6889 130.807 60.9286C130.978 60.2247 131.042 59.408 131.042 58.6847V58.5777H129.87V58.0022H131.042V56.7441V56.7422ZM136.17 57.1816V63.1977H133.663V57.1816H136.17ZM134.231 57.7358V62.6436H135.588V57.7358H134.231Z" fill="black"/>
<path d="M145.995 57.2263L146.477 57.446C146.051 58.078 145.583 58.6749 145.077 59.2505C145.446 59.2291 145.808 59.1999 146.178 59.1591C146.106 58.988 146.028 58.8246 145.95 58.6613L146.389 58.498C146.625 58.8888 146.794 59.3652 146.936 59.7988L146.446 59.9485C146.411 59.8357 146.382 59.721 146.339 59.6082C145.565 59.6996 144.783 59.758 143.996 59.7716L143.939 59.2816C144.111 59.2816 144.288 59.2816 144.464 59.2738C144.641 59.0599 144.813 58.848 144.984 58.6341C144.628 58.2938 144.4 58.1363 143.996 57.866L144.28 57.4324C144.379 57.4888 144.472 57.5452 144.556 57.6094C144.754 57.3741 144.982 57.0124 145.118 56.7421L145.586 56.9269C145.38 57.2749 145.182 57.5724 144.925 57.8855C145.054 57.9924 145.18 58.1052 145.295 58.2257C145.536 57.8991 145.777 57.5724 145.991 57.2244L145.995 57.2263ZM148.616 59.8688L149.014 59.6549C148.637 59.6899 148.262 59.7191 147.885 59.7405L147.834 59.2641C147.947 59.2563 148.062 59.2563 148.174 59.2505C148.338 59.0444 148.509 58.8305 148.672 58.6185C148.381 58.356 148.068 58.1207 147.735 57.9088L147.998 57.483C148.075 57.5257 148.147 57.5744 148.217 57.6249C148.416 57.3488 148.608 57.0357 148.75 56.7305L149.213 56.9288C149.049 57.2341 148.814 57.6327 148.602 57.9088C148.731 58.008 148.851 58.1071 148.972 58.2141C149.213 57.8796 149.448 57.5316 149.668 57.1835L150.166 57.3974C149.767 58.0294 149.314 58.6341 148.845 59.2155C149.193 59.1941 149.541 59.1591 149.897 59.1299C149.819 58.9316 149.748 58.7682 149.656 58.5757L150.111 58.4202C150.309 58.7546 150.531 59.336 150.644 59.7055L150.14 59.8766C150.105 59.7638 150.076 59.6491 150.041 59.5421C149.744 59.5849 149.436 59.6141 149.139 59.6413C149.359 59.8124 149.565 59.9971 149.757 60.2032L149.658 60.2538H150.56V60.7788H147.961C148.11 61.1346 148.287 61.4827 148.507 61.8016C148.863 61.5391 149.104 61.2902 149.359 60.9285L149.827 61.2338C149.543 61.6305 149.273 61.9221 148.882 62.2216C149.038 62.3713 149.479 62.7116 149.699 62.7116C149.841 62.7116 149.969 62.7116 150.175 61.7394L150.687 62.0019C150.558 62.591 150.389 63.3163 149.742 63.3163C149.244 63.3163 148.705 62.8827 148.371 62.5482C147.696 62.9177 146.893 63.1374 146.141 63.2871L145.964 62.768C146.689 62.6688 147.369 62.4705 148.017 62.1146C147.741 61.7024 147.535 61.2474 147.371 60.7788H145.417C145.409 60.9344 145.409 61.0919 145.396 61.2474C145.964 61.4613 146.242 61.6091 146.753 61.9299L146.419 62.4335C146.014 62.136 145.787 61.9785 145.324 61.7588C145.19 62.4413 144.989 62.873 144.457 63.3357L144.031 62.9313C144.778 62.348 144.834 61.6674 144.84 60.7788H144.002V60.2538H147.22C146.944 59.1669 146.872 57.8816 146.858 56.7596H147.461C147.461 57.9321 147.504 59.2174 147.78 60.2538H149.073C148.923 60.1255 148.775 59.9971 148.618 59.8707L148.616 59.8688Z" fill="black"/>
<path d="M163.285 57.5586V57.9709C163.057 58.8011 162.752 59.5128 162.291 60.2361C162.795 61.3153 163.676 62.2603 164.763 62.7717L164.372 63.3259C163.279 62.7017 162.476 61.8909 161.922 60.7553C161.502 61.3173 160.878 61.885 160.302 62.2972C159.705 62.7231 159.108 63.042 158.433 63.32L158.078 62.7445C160.316 62.0056 161.877 60.3936 162.602 58.107H160.458C159.938 58.9586 159.285 59.6547 158.463 60.2167L158.072 59.7053C159.244 58.945 159.968 58.0214 160.395 56.6934L161.02 56.8061C160.934 57.09 160.864 57.2884 160.749 57.5586H163.285Z" fill="black"/>
<path d="M50.3591 76.3921L49.8127 76.7615C49.2799 76.1723 48.8541 75.2837 48.5624 74.5526C48.2008 74.5604 47.8372 74.5662 47.4755 74.5662H45.4299V73.9479L47.5047 73.9829H47.7672C47.9655 73.9829 48.1658 73.9829 48.3641 73.9751C48.2513 73.5979 48.158 73.2148 48.088 72.824L48.7627 72.7754C48.8191 73.1721 48.8969 73.5784 49.0194 73.9537C49.7291 73.9323 50.433 73.8468 51.1213 73.6971L51.2341 74.3076C50.5516 74.4573 49.9197 74.5001 49.2235 74.5273C49.4997 75.1884 49.8691 75.869 50.3591 76.3882V76.3921ZM47.1197 76.2715C46.7638 76.4426 46.3885 76.7537 46.3885 77.1815C46.3885 77.6715 46.7366 77.8912 47.1838 78.0196C47.561 78.1265 48.121 78.1479 48.5547 78.1479C49.208 78.1479 49.8127 78.1129 50.4583 78.0273L50.466 78.6593C49.8477 78.7234 49.2235 78.7448 48.5974 78.7448C47.8294 78.7448 46.7852 78.7098 46.1902 78.1693C45.9063 77.9126 45.7508 77.5859 45.7508 77.1971C45.7508 76.5437 46.2272 76.0887 46.7813 75.8126L47.1216 76.2734L47.1197 76.2715Z" fill="black"/>
<path d="M61.1567 72.8613C61.1217 74.0046 61.0653 75.148 61.0653 76.2913C61.0653 77.4346 61.1937 78.1521 62.5003 78.1521C63.2742 78.1521 63.9703 77.8604 64.332 77.1507C64.5303 76.7599 64.6373 76.2271 64.7151 75.7935L65.312 76.0132C65.1915 76.688 65.0203 77.3335 64.5945 77.8877C64.0831 78.5546 63.2451 78.7607 62.4342 78.7607C61.8373 78.7607 61.2131 78.6266 60.8223 78.1366C60.4256 77.6466 60.3887 76.8727 60.3887 76.268C60.3887 75.1246 60.4237 73.9871 60.4373 72.8516L61.1548 72.8593L61.1567 72.8613Z" fill="black"/>
<path d="M79.5765 73.5511V74.1403H77.7157V75.5675C77.8012 75.902 77.8498 76.2209 77.8498 76.5689C77.8498 78.3228 76.444 78.7856 74.9526 78.8497L74.7543 78.2528H74.8534C75.919 78.2528 77.1343 78.0603 77.2685 76.775C77.0546 77.2514 76.6579 77.4575 76.1465 77.4575C75.3512 77.4575 74.8262 76.847 74.8262 76.0653C74.8262 75.2059 75.4446 74.6225 76.2962 74.6225C76.6151 74.6225 76.8504 74.6945 77.0915 74.9064L77.0837 74.1403H73.5818V73.5511H77.076L77.0623 72.7559H77.7157V73.5511H79.5765ZM76.3157 75.1572C75.7751 75.1572 75.4271 75.5053 75.4271 76.0381C75.4271 76.5281 75.711 76.9403 76.2301 76.9403C76.7123 76.9403 77.1032 76.6136 77.1032 76.1159V75.8028C76.9962 75.3906 76.7551 75.1572 76.3157 75.1572Z" fill="black"/>
<path d="M93.8681 74.1541V74.7647H92.6392V75.6669C92.6392 76.5905 92.2989 77.5278 91.5231 78.0819C90.8834 78.5291 90.0609 78.7353 89.2928 78.8286L89.0575 78.2103C89.7673 78.1461 90.5411 77.975 91.1381 77.5647C91.735 77.1389 91.9975 76.3786 91.9975 75.6611V74.7666H89.5184V76.678H88.8728V74.7666H87.6731V74.1561H88.8728V72.8358H89.5184V74.1561H91.9975V72.8066H92.6373V74.1561H93.8661L93.8681 74.1541Z" fill="black"/>
<path d="M104.347 75.4266L104.076 76.0235C103.388 75.6191 102.818 75.378 102.052 75.1641L102.301 74.6099C103.104 74.816 103.621 75.0299 104.347 75.4266ZM102.422 77.9485C105.228 77.6646 106.464 76.6205 107.316 73.943L107.841 74.3416C107.458 75.4771 106.882 76.7002 105.924 77.4605C105 78.1857 103.701 78.491 102.558 78.6466L102.424 77.9505L102.422 77.9485ZM104.928 73.7505L104.652 74.3552C103.985 73.9721 103.338 73.731 102.593 73.5171L102.848 72.9766C103.643 73.1691 104.205 73.3752 104.928 73.7505Z" fill="black"/>
<path d="M122.028 78.2236L121.487 78.7349C120.783 77.9688 120.017 77.2513 119.222 76.5766C118.397 77.4924 117.474 78.2449 116.346 78.7641L115.963 78.2391C117.007 77.7841 117.859 77.1599 118.619 76.3219C119.336 75.5266 119.762 74.7799 120.132 73.7785H116.317V73.1738H120.97C120.715 74.2744 120.287 75.1844 119.613 76.0924C120.451 76.7672 121.26 77.4711 122.028 78.2236Z" fill="black"/>
<path d="M132.043 72.5293L132.683 72.5507C132.633 72.9201 132.59 73.2818 132.528 73.6512H136.434V74.2132H132.434C132.349 74.6254 132.271 75.0299 132.164 75.4343H136.035V75.9885H134.167V78.3121H136.411V78.8662H131.19V78.3121H133.556V75.9885H132.008C131.647 77.1318 131.063 78.0982 130.239 78.9654L129.792 78.4754C131.028 77.3185 131.524 75.8407 131.824 74.2132H129.856V73.6512H131.923C131.973 73.274 132.016 72.8987 132.043 72.5293Z" fill="black"/>
<path d="M147.805 78.3606H150.667L150.547 78.9498H147.642C146.633 78.9498 145.73 78.5026 145.213 77.614C144.999 78.1817 144.774 78.6445 144.389 79.119L143.941 78.699C144.482 77.9815 144.758 77.3204 144.964 76.4551L145.497 76.5893C145.468 76.7234 145.446 76.8518 145.411 76.9801C145.446 77.052 145.489 77.1143 145.532 77.1862C146.774 76.5406 148.472 75.304 149.289 74.1742H144.245V73.5851H146.965V72.5195H147.57V73.5851H150.041V74.1529C149.586 74.8995 148.762 75.652 148.081 76.1984C147.393 76.7448 146.654 77.229 145.859 77.612C146.421 78.209 147.01 78.3587 147.805 78.3587V78.3606Z" fill="black"/>
<path d="M162.653 73.8573V72.5293H163.277V73.8573H164.691V74.4465H163.277V78.4249C163.277 78.9285 163.042 79.1132 162.552 79.1132H160.811L160.683 78.5085L162.359 78.5162C162.622 78.524 162.651 78.4657 162.651 78.2187V74.4465H158.155V73.8573H162.651H162.653ZM161.373 77.1318L160.833 77.5149C160.393 76.6768 159.995 76.1304 159.328 75.4615L159.783 75.0999C160.286 75.5626 161.054 76.5271 161.373 77.1318Z" fill="black"/>
<path d="M45.8987 94.6642L45.2375 94.4445C45.8481 93.2662 46.2603 91.4325 46.4587 90.1123H45.4223V89.5095H46.5384C46.5675 89.1964 46.5948 88.8853 46.6239 88.5723L47.3123 88.5937C47.2773 88.8989 47.2403 89.2042 47.1995 89.5095H49.1517V90.1123H47.1139C46.8942 91.4481 46.4392 93.4431 45.8987 94.6662V94.6642ZM48.5548 92.6109C48.4264 92.7956 48.3137 93.0231 48.3137 93.2564C48.3137 93.5189 48.4906 93.7114 48.7337 93.7892C49.1109 93.9098 49.5717 93.9098 49.9626 93.9098C50.4176 93.9098 50.8725 93.8884 51.3256 93.8534L51.3334 94.4989C50.8784 94.5067 50.4312 94.5203 49.9762 94.5203C49.4298 94.5203 48.8114 94.5125 48.3078 94.2792C47.9306 94.1023 47.7109 93.7173 47.7109 93.3128C47.7109 92.957 47.8606 92.6673 48.0453 92.3756L48.5567 92.6109H48.5548ZM50.7287 90.4584C50.8706 90.4584 51.0203 90.4584 51.1701 90.4662V91.1059C50.9289 91.0923 50.6878 91.0845 50.4448 91.0845C49.77 91.0845 49.1381 91.1564 48.4984 91.382L48.2923 90.8356C49.1226 90.5225 49.8401 90.4584 50.7287 90.4584Z" fill="black"/>
<path d="M65.3626 89.4065V90.0035H61.6895C61.6254 90.4721 61.534 90.9348 61.3765 91.3821C61.952 91.0418 62.549 90.8629 63.2237 90.8629C63.7273 90.8629 64.3243 90.9912 64.6859 91.3665C64.999 91.6932 65.1487 92.1346 65.1487 92.5818C65.1487 93.2215 64.8434 93.8379 64.2601 94.1373C63.5076 94.5204 62.5412 94.5418 61.7109 94.5418C61.3979 94.5418 61.079 94.534 60.7659 94.5126L60.6318 93.8885C61.0362 93.9235 61.4484 93.9448 61.8607 93.9448C62.5062 93.9448 63.6709 93.9312 64.1415 93.4335C64.3768 93.1923 64.4604 92.9085 64.4604 92.574C64.4604 91.7496 63.877 91.4385 63.1323 91.4385C62.3876 91.4385 61.6973 91.6873 61.1859 92.2123C61.1432 92.3115 61.0945 92.4048 61.044 92.504L60.3907 92.3115C60.7387 91.559 60.9098 90.8123 61.0362 90.0035H59.467V89.4065H61.114C61.1354 89.1362 61.149 88.8601 61.149 88.5898L61.8529 88.6035C61.8315 88.8737 61.8023 89.1362 61.7673 89.4065H65.3607H65.3626Z" fill="black"/>
<path d="M74.5053 89.6838C75.4503 89.5069 76.4809 89.3008 77.2897 89.3008C77.8925 89.3008 78.5886 89.4719 79.0222 89.9113C79.4267 90.3313 79.6192 90.8486 79.6192 91.4319C79.6192 92.5538 78.9581 93.3783 77.9353 93.7905C77.2256 94.0744 76.4361 94.1308 75.67 94.1463L75.4989 93.5358C76.4361 93.528 77.3889 93.4852 78.1842 92.9311C78.6664 92.5908 78.9367 92.0211 78.9367 91.4397C78.9367 91.0566 78.8161 90.6658 78.5536 90.3819C78.2347 90.0202 77.6864 89.9269 77.2334 89.9269C76.2825 89.9269 74.6122 90.3236 73.6614 90.5666L73.5059 89.8491C73.8189 89.8063 74.1592 89.7499 74.5072 89.6858L74.5053 89.6838Z" fill="black"/>
<path d="M89.145 90.8704C88.8475 91.1679 88.5986 91.3604 88.2428 91.5879L87.8228 91.0901C88.6822 90.5573 89.3005 89.8826 89.7186 88.959H93.3916C93.2497 90.2948 92.923 91.5082 92.05 92.5679C91.1828 93.612 89.9266 94.2868 88.6336 94.6212L88.3283 94.032C89.458 93.7618 90.6091 93.2076 91.4044 92.3423C90.6791 91.724 89.9986 91.2982 89.145 90.8723V90.8704ZM92.6605 89.5501H90.1541C89.948 89.8904 89.7925 90.1334 89.5358 90.4445C90.3311 90.8432 91.1128 91.2826 91.7953 91.8582C92.293 91.127 92.5341 90.4232 92.6625 89.5501H92.6605Z" fill="black"/>
<path d="M105.498 90.8844H107.806V91.4736H105.49C105.404 93.4122 104.318 94.1724 102.556 94.5924L102.272 94.0169C102.976 93.8749 103.779 93.6338 104.29 93.1147C104.716 92.6811 104.831 92.0627 104.858 91.4736H101.945V90.8844H104.858V89.7197C104.034 89.8324 103.196 89.8966 102.358 89.9044L102.237 89.321C103.736 89.321 105.525 89.1286 106.933 88.6113L107.267 89.1869C106.684 89.358 106.095 89.5213 105.498 89.6205V90.8844Z" fill="black"/>
<path d="M117.509 91.3739L116.898 91.5508C116.706 90.7342 116.521 90.2442 116.181 89.4839L116.743 89.307C117.091 90.0031 117.318 90.6272 117.509 91.3739ZM120.478 92.7739C119.64 93.7539 118.483 94.2945 117.246 94.557L116.826 94.0164C119.675 93.3922 120.853 91.9067 121.223 89.0522L121.911 89.1806C121.705 90.4522 121.328 91.7725 120.476 92.7739H120.478ZM119.42 91.0628L118.788 91.2125C118.66 90.4814 118.475 89.7775 118.191 89.0892L118.767 88.9395C119.08 89.6492 119.27 90.3025 119.42 91.0628Z" fill="black"/>
<path d="M132.761 88.3203H133.379V89.9478H136.434V90.537H133.542C133.962 92.2986 134.871 93.4925 136.519 94.2664L136.121 94.8556C134.622 94.0661 133.577 92.8586 133.165 91.2039C132.704 92.9014 131.722 94.1381 130.111 94.8556L129.77 94.2373C131.376 93.5917 132.461 92.2559 132.704 90.537H129.85V89.9478H132.763V88.3203H132.761ZM134.075 94.3364L133.599 94.8186C133.194 94.315 132.831 93.9164 132.3 93.5548L132.699 93.1153C133.132 93.3778 133.751 93.9398 134.077 94.3364H134.075Z" fill="black"/>
<path d="M147.344 89.2087V89.7706H146.209V91.262H147.467V91.8162H146.181C146.168 91.9231 146.152 92.0359 146.139 92.1428C146.479 92.9167 146.907 93.3853 147.488 93.9823L147.041 94.4081C146.615 93.9395 146.224 93.4845 145.932 92.9167C145.614 93.784 145.094 94.4004 144.326 94.8981L143.928 94.3945C144.986 93.7548 145.411 93.0237 145.604 91.8162H143.976V91.262H145.645V89.7706H145.112C144.892 90.1829 144.707 90.4667 144.429 90.844L143.947 90.4959C144.501 89.829 144.857 89.0959 145.069 88.2656L145.658 88.3862C145.573 88.6623 145.474 88.9404 145.367 89.2106H147.342L147.344 89.2087ZM150.391 94.7562H147.671V88.6895H150.391V94.7562ZM148.225 89.2301V94.2098H149.802V89.2301H148.225Z" fill="black"/>
<path d="M159.448 88.3066V91.0619C159.448 91.7794 159.406 92.5047 159.256 93.2066C159.135 93.8172 158.873 94.4005 158.445 94.8555L157.998 94.3733C158.324 93.9533 158.544 93.5216 158.659 92.9947C158.801 92.355 158.83 91.7016 158.83 91.0405V88.3066H159.448ZM161.786 88.5477V94.3655H161.183V88.5477H161.786ZM164.278 88.3066V94.8905H163.66V88.3066H164.278Z" fill="black"/>
<path d="M48.7551 105.263V105.86H47.1431C47.0148 106.506 46.8301 107.146 46.6318 107.772C46.4393 108.396 46.1845 108.971 45.9006 109.555L45.2473 109.271C45.8929 108.227 46.2351 107.048 46.5054 105.862H45.3056V105.265H46.6201C46.6706 104.952 46.7134 104.647 46.7484 104.334L47.4231 104.363C47.3726 104.661 47.324 104.966 47.2676 105.265H48.759L48.7551 105.263ZM49.9918 108.083C50.5323 108.318 51.1079 108.728 51.5045 109.17L51.1137 109.732C50.7734 109.32 50.4254 109.036 49.9626 108.765V109.057C49.9548 109.967 49.4162 110.364 48.5412 110.364C47.7673 110.364 46.9506 109.994 46.9506 109.113C46.9506 108.709 47.1645 108.345 47.4834 108.104C47.8023 107.869 48.2437 107.791 48.6345 107.791C48.8834 107.791 49.1109 107.82 49.3598 107.877L49.317 106.356H49.9568L49.9918 108.083ZM48.6209 108.332C48.1523 108.332 47.5554 108.524 47.5554 109.092C47.5554 109.66 48.1018 109.81 48.5645 109.81C49.1887 109.81 49.3734 109.533 49.3734 108.942V108.466C49.1168 108.373 48.8912 108.332 48.6209 108.332ZM51.0865 106.385C50.4623 106.002 49.8868 105.718 49.1965 105.462L49.4454 104.937C50.1843 105.191 50.7093 105.435 51.384 105.818L51.0865 106.385Z" fill="black"/>
<path d="M60.7308 104.547C60.4897 105.634 60.4119 106.649 60.4119 107.757C60.4119 108.581 60.4469 109.484 60.6316 110.285L59.9433 110.341C59.8091 109.495 59.7585 108.708 59.7585 107.862C59.7585 106.732 59.8227 105.597 60.056 104.488L60.7308 104.545V104.547ZM62.543 107.594C62.3583 107.856 62.1872 108.218 62.1872 108.544C62.1872 109.283 63.1594 109.283 63.6863 109.283C64.2133 109.283 64.7597 109.254 65.2924 109.198L65.3002 109.865C64.8452 109.907 64.3844 109.929 63.9294 109.929C62.9922 109.929 61.5922 109.857 61.5922 108.601C61.5922 108.181 61.7555 107.771 61.9694 107.415L62.5449 107.592L62.543 107.594ZM65.1505 105.066V105.69H61.8119V105.066H65.1505Z" fill="black"/>
<path d="M74.0931 104.966L74.655 104.838C74.7406 105.335 74.8184 105.668 74.9525 106.152C75.5281 105.769 76.1173 105.52 76.8134 105.469C76.8911 105.092 76.9689 104.709 77.0117 104.326L77.6942 104.398C77.6223 104.76 77.5309 105.108 77.4453 105.464C78.8725 105.549 79.5414 106.521 79.5414 107.892C79.5414 108.254 79.4986 108.559 79.3995 108.915C79.6348 109.108 79.6834 109.156 79.8759 109.397L79.4714 109.938C79.3509 109.761 79.2945 109.675 79.137 109.526C78.8667 110.023 78.4059 110.265 77.8439 110.265C77.282 110.265 76.6656 109.946 76.6656 109.292C76.6656 108.639 77.2684 108.32 77.8595 108.32C78.2153 108.32 78.542 108.406 78.8473 108.583C78.9114 108.328 78.9328 108.143 78.9328 107.879C78.9328 106.799 78.4564 106.031 77.2995 106.004C76.9864 107.062 76.6325 108.135 76.0142 109.059C75.6953 109.535 75.2267 110.089 74.6006 110.089C74.202 110.089 73.8753 109.854 73.712 109.493C73.605 109.251 73.5623 108.946 73.5623 108.684C73.5623 107.838 73.9103 107.115 74.5073 106.523C74.3361 106.02 74.1942 105.493 74.095 104.968L74.0931 104.966ZM74.7114 107.083C74.3284 107.531 74.1145 108.063 74.1145 108.66C74.1145 109.001 74.1864 109.469 74.6181 109.469C74.9156 109.469 75.1081 109.284 75.285 109.071C75.3764 108.964 75.4698 108.843 75.5475 108.723C75.1781 108.203 74.9506 107.665 74.7095 107.081L74.7114 107.083ZM76.6792 106.039C76.09 106.152 75.6273 106.345 75.1314 106.693C75.3084 107.183 75.5709 107.801 75.8489 108.235C76.2048 107.546 76.4809 106.786 76.6792 106.039ZM77.8731 108.789C77.5814 108.789 77.177 108.917 77.177 109.265C77.177 109.634 77.56 109.741 77.8653 109.741C78.3067 109.741 78.5536 109.522 78.7248 109.131C78.4545 108.917 78.2211 108.791 77.8731 108.791V108.789Z" fill="black"/>
<path d="M93.7202 105.882V106.506H91.1555V106.535C91.1555 108.554 90.3252 109.676 88.443 110.356L88.0813 109.802C88.7347 109.582 89.4444 109.24 89.8994 108.709C90.3816 108.126 90.4963 107.261 90.4963 106.522V106.508H87.7625V105.884H90.4963V104.385H91.1574V105.884H93.7222L93.7202 105.882Z" fill="black"/>
<path d="M107.841 109.022V109.661H101.895V109.022H107.841ZM107.265 105.123V105.763H102.449V105.123H107.265Z" fill="black"/>
<path d="M117.268 106.613L117.645 106.13C118.413 106.521 118.938 106.861 119.648 107.346C120.081 106.657 120.309 106.074 120.472 105.279H116.523V104.711H121.203C121.04 105.868 120.799 106.714 120.145 107.709C120.649 108.086 121.118 108.483 121.567 108.93L121.12 109.498C120.643 108.987 120.295 108.668 119.757 108.226C118.926 109.206 117.867 109.86 116.675 110.323L116.305 109.79C117.349 109.42 118.549 108.697 119.267 107.851C118.627 107.375 117.981 106.978 117.272 106.615L117.268 106.613Z" fill="black"/>
<path d="M131.326 106.123C130.949 106.359 130.68 106.493 130.268 106.656L129.984 106.123C131.085 105.746 132.008 105.023 132.627 104.035L133.251 104.191C133.138 104.375 133.045 104.51 132.916 104.688H135.567V105.221C134.978 106.258 134.204 107.004 133.195 107.636H136.129V110.541H131.703V108.41C131.106 108.659 130.63 108.815 130.006 108.972L129.786 108.367C130.908 108.148 131.703 107.842 132.699 107.28C132.279 106.847 131.81 106.472 131.328 106.123H131.326ZM134.863 105.221H132.44C132.234 105.42 132.014 105.626 131.787 105.797C132.362 106.188 132.703 106.472 133.208 106.954C133.912 106.429 134.402 105.982 134.863 105.221ZM132.277 108.169V110.001H135.538V108.169H132.277Z" fill="black"/>
<path d="M145.285 110.691H144.71V107.018C144.538 107.288 144.412 107.458 144.198 107.701L143.901 107.047C144.61 106.217 144.993 105.13 145.215 104.07L145.798 104.164C145.67 104.766 145.507 105.299 145.287 105.875V110.691H145.285ZM148.482 108.099L148.567 108.618C147.665 109.017 146.741 109.379 145.783 109.633L145.641 109.093L146.259 108.922L146.195 104.269H146.749L146.821 108.737C147.383 108.544 147.937 108.325 148.484 108.097L148.482 108.099ZM147.09 110.713L146.813 110.166C148.093 109.768 148.966 109.165 149.335 107.823C149.563 106.999 149.59 106.318 149.611 105.48C149.625 105.068 149.633 104.656 149.641 104.243H150.259C150.238 105.089 150.216 106.238 150.088 107.071C149.989 107.689 149.86 108.257 149.555 108.819C150.045 109.338 150.251 109.635 150.671 110.197L150.224 110.666C149.961 110.184 149.606 109.707 149.244 109.295C148.676 110.005 147.937 110.417 147.091 110.716L147.09 110.713ZM148.758 106.485L148.233 106.734C147.906 105.939 147.756 105.634 147.323 104.887L147.799 104.638C148.176 105.171 148.538 105.875 148.758 106.485Z" fill="black"/>
<path d="M158.498 110.641L158.05 110.186C158.505 109.519 158.816 108.765 159.073 107.998L159.542 108.275C159.271 109.148 158.995 109.873 158.498 110.639V110.641ZM159.456 106.77L159.122 107.246C158.803 106.962 158.447 106.713 158.056 106.542L158.348 106.079C158.717 106.229 159.157 106.505 159.456 106.768V106.77ZM159.769 104.815L159.413 105.313C159.129 105.058 158.682 104.759 158.334 104.609L158.661 104.154C159.081 104.325 159.421 104.532 159.769 104.815ZM164.706 107.841H162.441C162.377 108.012 162.334 108.154 162.256 108.323H164.422V110.291C164.422 110.604 164.251 110.682 163.975 110.682H163.287L163.209 110.17H163.699C163.891 110.17 163.897 110.114 163.897 109.957V108.757H163.051V110.596H162.561V108.757H161.737V110.596H161.247V108.757H160.401V110.682H159.89V108.323H161.729C161.786 108.168 161.828 108.004 161.879 107.841H159.614V107.394H164.706V107.841ZM164.35 104.786H162.412V105.169H164.551V106.733H164.026V105.589H162.414V107.195H161.902V105.589H160.304V106.733H159.785V105.169H161.902V104.786H160.02V104.347H164.352V104.786H164.35ZM161.686 105.965V106.334H160.514V105.965H161.686ZM161.686 106.682V107.044H160.514V106.682H161.686ZM163.825 105.965V106.334H162.647V105.965H163.825ZM163.825 106.682V107.044H162.647V106.682H163.825Z" fill="black"/>
</g>
<path d="M192.5 28.875H17.5V29.4583H192.5V28.875Z" fill="#003CFF"/>
<path d="M24.5002 24.6947C25.1445 24.6947 25.6668 24.1723 25.6668 23.528C25.6668 22.8837 25.1445 22.3613 24.5002 22.3613C23.8558 22.3613 23.3335 22.8837 23.3335 23.528C23.3335 24.1723 23.8558 24.6947 24.5002 24.6947Z" fill="#003CFF"/>
<path d="M29.7502 24.6947C30.3945 24.6947 30.9168 24.1723 30.9168 23.528C30.9168 22.8837 30.3945 22.3613 29.7502 22.3613C29.1058 22.3613 28.5835 22.8837 28.5835 23.528C28.5835 24.1723 29.1058 24.6947 29.7502 24.6947Z" fill="#003CFF"/>
<path d="M35.0002 24.6947C35.6445 24.6947 36.1668 24.1723 36.1668 23.528C36.1668 22.8837 35.6445 22.3613 35.0002 22.3613C34.3558 22.3613 33.8335 22.8837 33.8335 23.528C33.8335 24.1723 34.3558 24.6947 35.0002 24.6947Z" fill="#003CFF"/>
<path d="M76.9998 22.9447C77.3207 22.9447 77.5832 23.2072 77.5832 23.528C77.5832 23.8488 77.3207 24.1113 76.9998 24.1113H65.3332C65.0123 24.1113 64.7498 23.8488 64.7498 23.528C64.7498 23.2072 65.0123 22.9447 65.3332 22.9447H76.9998ZM76.9998 22.3613H65.3332C64.6896 22.3613 64.1665 22.8844 64.1665 23.528C64.1665 24.1716 64.6896 24.6947 65.3332 24.6947H76.9998C77.6434 24.6947 78.1665 24.1716 78.1665 23.528C78.1665 22.8844 77.6434 22.3613 76.9998 22.3613Z" fill="#003CFF"/>
<path d="M185.5 22.9447C185.821 22.9447 186.083 23.2072 186.083 23.528C186.083 23.8488 185.821 24.1113 185.5 24.1113H92.5556C92.2347 24.1113 91.9722 23.8488 91.9722 23.528C91.9722 23.2072 92.2347 22.9447 92.5556 22.9447H185.5ZM185.5 22.3613H92.5556C91.912 22.3613 91.3889 22.8844 91.3889 23.528C91.3889 24.1716 91.912 24.6947 92.5556 24.6947H185.5C186.144 24.6947 186.667 24.1716 186.667 23.528C186.667 22.8844 186.144 22.3613 185.5 22.3613Z" fill="#003CFF"/>
<path d="M105 53.082C111.076 53.082 116.789 55.4484 121.086 59.7456C125.384 64.0429 127.75 69.7556 127.75 75.832C127.75 81.9084 125.384 87.6212 121.086 91.9184C116.789 96.2156 111.076 98.582 105 98.582C98.9236 98.582 93.2108 96.2156 88.9136 91.9184C84.6164 87.6212 82.25 81.9084 82.25 75.832C82.25 69.7556 84.6164 64.0429 88.9136 59.7456C93.2108 55.4484 98.9236 53.082 105 53.082ZM105 49.582C90.5022 49.582 78.75 61.3343 78.75 75.832C78.75 90.3298 90.5022 102.082 105 102.082C119.498 102.082 131.25 90.3298 131.25 75.832C131.25 61.3343 119.498 49.582 105 49.582Z" fill="#003CFF"/>
<path d="M99.7499 88.808L89.3997 78.4577L91.8749 75.9824L99.7499 83.8574L118.125 65.4824L120.6 67.9577L99.7499 88.808Z" fill="#003CFF"/>
</svg>
