<svg width="210" height="140" viewBox="0 0 210 140" fill="none" xmlns="http://www.w3.org/2000/svg">
<path d="M193.134 22.8359H64.2384C62.7897 22.8359 61.6152 24.0104 61.6152 25.4591V100.697C61.6152 102.146 62.7897 103.32 64.2384 103.32H193.134C194.583 103.32 195.757 102.146 195.757 100.697V25.4591C195.757 24.0104 194.583 22.8359 193.134 22.8359Z" fill="white"/>
<path d="M141.352 101.258H115.881C115.594 101.258 115.362 101.475 115.362 101.744V115.683C115.362 115.951 115.594 116.169 115.881 116.169H141.352C141.638 116.169 141.87 115.951 141.87 115.683V101.744C141.87 101.475 141.638 101.258 141.352 101.258Z" fill="white"/>
<path d="M193.132 23.4305C194.249 23.4305 195.158 24.3399 195.158 25.457V100.697C195.158 101.814 194.249 102.723 193.132 102.723H64.2384C63.1214 102.723 62.212 101.814 62.212 100.697V25.4591C62.212 24.3421 63.1214 23.4327 64.2384 23.4327H193.132M193.132 22.8359H64.2384C62.7891 22.8359 61.6152 24.0098 61.6152 25.4591V100.697C61.6152 102.146 62.7891 103.32 64.2384 103.32H193.132C194.581 103.32 195.755 102.146 195.755 100.697V25.4591C195.755 24.0098 194.581 22.8359 193.132 22.8359Z" fill="#003CFF"/>
<path d="M189.963 27.3203H67.3868C66.6624 27.3203 66.0752 27.9075 66.0752 28.6319V95.3159C66.0752 96.0403 66.6624 96.6275 67.3868 96.6275H189.963C190.687 96.6275 191.274 96.0403 191.274 95.3159V28.6319C191.274 27.9075 190.687 27.3203 189.963 27.3203Z" fill="white"/>
<path d="M189.963 27.9171C190.356 27.9171 190.677 28.2384 190.677 28.6319V95.3159C190.677 95.7094 190.356 96.0307 189.963 96.0307H67.3868C66.9933 96.0307 66.672 95.7094 66.672 95.3159V28.6319C66.672 28.2384 66.9933 27.9171 67.3868 27.9171H189.963ZM189.963 27.3203H67.3868C66.6632 27.3203 66.0752 27.9083 66.0752 28.6319V95.3159C66.0752 96.0395 66.6632 96.6275 67.3868 96.6275H189.963C190.686 96.6275 191.274 96.0395 191.274 95.3159V28.6319C191.274 27.9083 190.686 27.3203 189.963 27.3203Z" fill="#003CFF"/>
<path d="M123.769 55.9472C126.451 55.4116 128.867 55.1427 131.549 55.1427C141.421 55.1427 151.079 59.5432 151.079 70.8098C151.079 77.464 147.592 81.7551 141.421 84.0089C138.149 85.1893 134.714 85.5653 131.225 85.7249L129.99 81.272C137.235 81.1103 146.195 79.5014 146.195 70.3792C146.195 67.2663 144.96 64.1556 142.333 62.3303C140.455 60.9881 138.47 60.3454 136.269 59.7006C134.498 66.1383 131.816 72.8996 126.88 77.6214C123.553 80.7867 119.635 83.1476 114.913 83.1476C109.333 83.1476 106.274 78.5876 106.274 73.3827C106.274 67.4805 109.602 62.4899 114.59 59.4863C116.092 58.5748 117.541 57.9299 119.15 57.2872C119.095 55.1406 119.095 52.9414 119.095 50.7948V50.2046H107.774V45.8041H119.095V40.4375H123.872L123.817 45.8041H149.465V50.2046H123.765V55.945L123.769 55.9472ZM119.316 61.6876C114.701 63.7796 110.625 67.8587 110.625 73.2232C110.625 76.1196 112.233 78.6969 115.401 78.6969C117.814 78.6969 119.854 77.7854 121.839 76.4431C120.282 71.9356 119.64 66.4094 119.316 61.6876V61.6876ZM132.032 59.165C131.711 59.1103 131.335 59.1103 130.959 59.1103C128.598 59.1103 126.13 59.4863 123.824 60.129C124.038 64.8508 124.252 68.4446 125.487 73.0592C128.707 69.4108 130.637 63.7775 132.034 59.1628L132.032 59.165Z" fill="#003CFF"/>
<path d="M141.509 103.323V116.142H115.874V103.323H141.509ZM142.106 102.727H115.277V116.737H142.106V102.727Z" fill="#003CFF"/>
<path d="M155.518 116.735H101.862V116.141H155.518V116.735Z" fill="#003CFF"/>
<path d="M128.678 100.64C129.172 100.64 129.572 100.239 129.572 99.7456C129.572 99.2519 129.172 98.8516 128.678 98.8516C128.184 98.8516 127.784 99.2519 127.784 99.7456C127.784 100.239 128.184 100.64 128.678 100.64Z" fill="#003CFF"/>
<path d="M11.7179 63.9219H84.5489C85.2725 63.9219 85.8605 64.5099 85.8605 65.2335V112.967H10.4062V65.2335C10.4062 64.5099 10.9943 63.9219 11.7179 63.9219Z" fill="white"/>
<path d="M84.5489 64.5187C84.9424 64.5187 85.2637 64.84 85.2637 65.2335V112.37H11.003V65.2335C11.003 64.84 11.3244 64.5187 11.7179 64.5187H84.5489ZM84.5489 63.9219H11.7179C10.9943 63.9219 10.4062 64.5099 10.4062 65.2335V112.967H85.8605V65.2335C85.8605 64.5099 85.2725 63.9219 84.5489 63.9219Z" fill="#003CFF"/>
<path d="M82.6806 66.4453H13.5679C13.2057 66.4453 12.9121 66.7389 12.9121 67.1011V109.805C12.9121 110.167 13.2057 110.46 13.5679 110.46H82.6806C83.0428 110.46 83.3364 110.167 83.3364 109.805V67.1011C83.3364 66.7389 83.0428 66.4453 82.6806 66.4453Z" fill="white"/>
<path d="M88.0731 112.859H7.59083C7.16906 112.859 6.82715 112.881 6.82715 112.909V116.124C6.82715 116.151 7.16906 116.173 7.59083 116.173H88.0731C88.4949 116.173 88.8368 116.151 88.8368 116.124V112.909C88.8368 112.881 88.4949 112.859 88.0731 112.859Z" fill="white"/>
<path d="M82.6806 67.0421C82.7134 67.0421 82.7396 67.0683 82.7396 67.1011V109.805C82.7396 109.837 82.7134 109.864 82.6806 109.864H13.5679C13.5351 109.864 13.5089 109.837 13.5089 109.805V67.1011C13.5089 67.0683 13.5351 67.0421 13.5679 67.0421H82.6806ZM82.6806 66.4453H13.5679C13.205 66.4453 12.9121 66.7382 12.9121 67.1011V109.805C12.9121 110.168 13.205 110.46 13.5679 110.46H82.6806C83.0434 110.46 83.3364 110.168 83.3364 109.805V67.1011C83.3364 66.7382 83.0434 66.4453 82.6806 66.4453Z" fill="#003CFF"/>
<path d="M48.5253 65.9353C48.7728 65.9353 48.9734 65.7347 48.9734 65.4872C48.9734 65.2397 48.7728 65.0391 48.5253 65.0391C48.2778 65.0391 48.0771 65.2397 48.0771 65.4872C48.0771 65.7347 48.2778 65.9353 48.5253 65.9353Z" fill="#003CFF"/>
<path d="M45.3636 84.4396C46.872 84.138 48.2317 83.9871 49.74 83.9871C55.2924 83.9871 60.7247 86.4617 60.7247 92.7989C60.7247 96.5414 58.7638 98.9569 55.2924 100.223C53.4518 100.887 51.5194 101.097 49.5586 101.189L48.8634 98.6836C52.9381 98.594 57.979 97.6868 57.979 92.5563C57.979 90.8053 57.2839 89.0565 55.8062 88.0291C54.7503 87.2749 53.6333 86.912 52.396 86.5491C51.3992 90.1713 49.8908 93.9728 47.1146 96.6288C45.2434 98.4104 43.0399 99.7373 40.3839 99.7373C37.2448 99.7373 35.5244 97.1709 35.5244 94.2439C35.5244 90.9233 37.3956 88.1165 40.2025 86.4267C41.0484 85.913 41.8616 85.5523 42.7688 85.1894C42.7382 83.9828 42.7382 82.7455 42.7382 81.5366V81.2044H36.3704V78.7298H42.7382V75.7109H45.4248L45.3942 78.7298H59.8197V81.2044H45.3636V84.4331V84.4396ZM42.8585 87.6684C40.2637 88.8444 37.9684 91.1397 37.9684 94.1564C37.9684 95.7872 38.8734 97.2343 40.655 97.2343C42.0125 97.2343 43.1601 96.7206 44.2772 95.9664C43.4028 93.4307 43.0399 90.3222 42.8585 87.6662V87.6684ZM50.0111 86.2497C49.8296 86.2191 49.6198 86.219 49.4077 86.219C48.0808 86.219 46.6905 86.4311 45.3942 86.7918C45.5145 89.4478 45.6347 91.4698 46.3298 94.0646C48.1398 92.012 49.2263 88.8444 50.0111 86.2475V86.2497Z" fill="#003CFF"/>
<path d="M89.0344 112.964V115.504C89.0344 115.869 88.7371 116.166 88.3721 116.166H7.88781C7.52275 116.166 7.22545 115.869 7.22545 115.504V112.964H89.0344ZM89.6312 112.367H6.63086V115.504C6.63086 116.199 7.19485 116.761 7.88781 116.761H88.3721C89.0672 116.761 89.629 116.197 89.629 115.504V112.367H89.6312Z" fill="#003CFF"/>
<path d="M165.64 70.8717V115.407C165.64 116.132 166.227 116.719 166.951 116.719H202.056C202.781 116.719 203.368 116.132 203.368 115.407V70.8717C203.368 70.1473 202.781 69.5601 202.056 69.5601H166.951C166.227 69.5601 165.64 70.1473 165.64 70.8717Z" fill="white"/>
<path d="M202.056 70.1593C202.45 70.1593 202.771 70.4806 202.771 70.8741V115.41C202.771 115.803 202.45 116.124 202.056 116.124H166.951C166.558 116.124 166.236 115.803 166.236 115.41V70.8741C166.236 70.4806 166.558 70.1593 166.951 70.1593H202.056ZM202.056 69.5625H166.951C166.228 69.5625 165.64 70.1505 165.64 70.8741V115.41C165.64 116.133 166.228 116.721 166.951 116.721H202.056C202.78 116.721 203.368 116.133 203.368 115.41V70.8741C203.368 70.1505 202.78 69.5625 202.056 69.5625Z" fill="#003CFF"/>
<path d="M168.332 72.9316V113.399C168.332 113.761 168.626 114.055 168.988 114.055H200.025C200.387 114.055 200.68 113.761 200.68 113.399V72.9316C200.68 72.5694 200.387 72.2758 200.025 72.2758H168.988C168.626 72.2758 168.332 72.5694 168.332 72.9316Z" fill="white"/>
<path d="M200.025 72.8702C200.057 72.8702 200.084 72.8964 200.084 72.9292V113.397C200.084 113.429 200.057 113.456 200.025 113.456H168.988C168.955 113.456 168.929 113.429 168.929 113.397V72.9292C168.929 72.8964 168.955 72.8702 168.988 72.8702H200.025M200.025 72.2734H168.988C168.625 72.2734 168.332 72.5664 168.332 72.9292V113.397C168.332 113.759 168.625 114.052 168.988 114.052H200.025C200.388 114.052 200.681 113.759 200.681 113.397V72.9292C200.681 72.5664 200.388 72.2734 200.025 72.2734Z" fill="#003CFF"/>
<path d="M184.585 71.74C184.832 71.74 185.033 71.5394 185.033 71.2919C185.033 71.0444 184.832 70.8438 184.585 70.8438C184.337 70.8438 184.137 71.0444 184.137 71.2919C184.137 71.5394 184.337 71.74 184.585 71.74Z" fill="#003CFF"/>
<path d="M182.779 90.6528C183.721 90.4648 184.571 90.3708 185.513 90.3708C188.985 90.3708 192.38 91.9185 192.38 95.8796C192.38 98.2186 191.153 99.7269 188.985 100.52C187.835 100.936 186.626 101.067 185.402 101.124L184.969 99.5586C187.516 99.5018 190.666 98.9356 190.666 95.7287C190.666 94.6357 190.233 93.5405 189.308 92.9C188.648 92.4279 187.951 92.2027 187.177 91.9754C186.554 94.2379 185.612 96.6162 183.876 98.2754C182.707 99.3881 181.329 100.219 179.67 100.219C177.709 100.219 176.634 98.6164 176.634 96.7868C176.634 94.7122 177.803 92.9569 179.559 91.901C180.088 91.5797 180.597 91.3545 181.161 91.1272C181.141 90.373 181.141 89.5992 181.141 88.845V88.6373H177.161V87.0896H181.141V85.2031H182.82L182.8 87.0896H191.818V88.6373H182.783V90.655L182.779 90.6528ZM181.213 92.6705C179.591 93.4072 178.157 94.839 178.157 96.7255C178.157 97.7442 178.724 98.6492 179.836 98.6492C180.684 98.6492 181.401 98.3279 182.099 97.8579C181.552 96.273 181.325 94.3297 181.211 92.6705H181.213ZM185.684 91.783C185.57 91.7633 185.439 91.7633 185.306 91.7633C184.475 91.7633 183.607 91.8945 182.796 92.1218C182.873 93.781 182.947 95.0445 183.382 96.6687C184.514 95.3855 185.192 93.405 185.684 91.783V91.783Z" fill="#003CFF"/>
</svg>
