<svg width="210" height="140" viewBox="0 0 210 140" fill="none" xmlns="http://www.w3.org/2000/svg">
<g opacity="0.09">
<path d="M20.6224 21.4122C21.1474 21.3072 21.6199 21.2547 22.1449 21.2547C24.0777 21.2547 25.9677 22.1161 25.9677 24.3211C25.9677 25.6239 25.2852 26.4639 24.0777 26.9033C23.438 27.1347 22.7652 27.2086 22.0827 27.2397L21.8416 26.3686C23.2591 26.3375 25.013 26.0225 25.013 24.2375C25.013 23.6289 24.7719 23.0203 24.2566 22.6625C23.8891 22.4 23.5002 22.2736 23.0705 22.1472C22.7244 23.4072 22.1994 24.7295 21.233 25.655C20.5816 26.2753 19.8155 26.7361 18.8919 26.7361C17.7991 26.7361 17.2021 25.8436 17.2021 24.8247C17.2021 23.6697 17.8535 22.6936 18.8296 22.1045C19.1233 21.9256 19.4071 21.7992 19.7221 21.6747C19.7124 21.2547 19.7124 20.825 19.7124 20.405V20.2903H17.4977V19.4289H19.7124V18.3789H20.6477L20.638 19.4289H25.6566V20.2903H20.6263V21.4142L20.6224 21.4122ZM19.7513 22.5361C18.8491 22.9464 18.0499 23.7436 18.0499 24.7936C18.0499 25.3614 18.3649 25.865 18.9852 25.865C19.4577 25.865 19.8563 25.6861 20.2452 25.4236C19.9399 24.5409 19.8155 23.4597 19.7513 22.5361ZM22.2402 22.0422C22.178 22.0325 22.1041 22.0325 22.0302 22.0325C21.5674 22.0325 21.0852 22.1064 20.6341 22.2328C20.6769 23.1564 20.7177 23.8603 20.9588 24.7625C21.5888 24.0489 21.966 22.9464 22.2402 22.0422Z" fill="black"/>
<path d="M39.3962 18.9762C39.26 19.9834 39.1764 20.9615 39.1764 21.9784C39.1764 22.8281 39.2192 24.0045 39.4487 24.8134C39.5225 25.0545 39.6898 25.4745 39.8784 25.6534C40.0456 25.8206 40.2362 25.9062 40.4773 25.9062C40.8545 25.9062 41.0975 25.6534 41.3173 25.3715C41.6848 24.8892 42.0095 24.164 42.2195 23.5865L42.9973 24.0278C42.6823 24.8892 42.2312 25.8226 41.5798 26.474C41.255 26.789 40.8545 26.9776 40.4034 26.9776C39.332 26.9776 38.8381 26.0637 38.5873 25.1498C38.315 24.1951 38.2295 22.8709 38.2295 21.8734C38.2295 20.8759 38.3034 19.8784 38.3967 18.8906L39.3942 18.9742L39.3962 18.9762ZM46.3884 21.6537C46.7656 22.7562 46.8706 24.0784 46.8706 25.2334C46.8706 25.4648 46.8706 25.7059 46.8609 25.9373L45.8206 25.9801C45.8517 25.6223 45.8634 25.2665 45.8634 24.9087C45.8634 23.0284 45.4862 21.014 43.952 19.7637L44.6773 19.2076C45.4745 19.8803 46.052 20.6562 46.3884 21.6537Z" fill="black"/>
<path d="M61.1932 21.161C62.1694 21.0463 63.2194 20.9296 63.9757 20.9296C64.6894 20.9296 65.3505 20.9724 65.961 21.3808C66.6338 21.8533 66.8438 22.808 66.8438 23.5858C66.8438 24.1633 66.7174 24.7505 66.4666 25.2755C66.0894 26.0727 65.3855 26.5666 64.5766 26.8816C63.5169 27.2919 62.2141 27.3638 61.0805 27.3969L60.818 26.4733C61.7202 26.4635 62.8344 26.4208 63.7677 26.1485C64.9227 25.8024 65.8249 25.0985 65.8249 23.5974C65.8249 23.0627 65.6888 22.5163 65.2785 22.1488C64.9207 21.8338 64.4171 21.8027 63.966 21.8027C63.0638 21.8027 60.816 22.1702 59.8613 22.3374L59.7466 21.3088C60.1763 21.2777 60.6819 21.2135 61.1952 21.161H61.1932ZM66.0544 18.9988L65.8016 19.9224C64.0691 19.3974 62.7255 19.2185 60.9191 19.166L61.0338 18.2949C62.9238 18.3163 64.2363 18.5146 66.0524 18.9988H66.0544Z" fill="black"/>
<path d="M88.5887 18.8398C88.4312 19.8685 88.0948 20.866 87.4123 21.6651C86.8251 22.3573 86.0901 22.7987 85.2909 23.209L84.6823 22.4526C86.0162 21.9062 86.9923 21.1926 87.3909 19.744H79.9146V18.8418H88.5868L88.5887 18.8398ZM80.1051 26.4523C81.1648 26.0012 82.1623 25.276 82.7204 24.2473C83.2668 23.2498 83.3504 21.9587 83.3504 20.8348L84.3265 20.8446C84.3168 22.1571 84.2001 23.5221 83.5701 24.6985C82.9498 25.8437 81.8998 26.6837 80.7448 27.2398L80.1051 26.4523Z" fill="black"/>
<path d="M106.271 27.3135H105.264V22.4213C103.973 23.3235 102.618 24.006 101.126 24.5213L100.664 23.6502C103.635 22.7149 106.271 20.7724 108.192 18.3574L109.075 18.9349C108.192 19.9752 107.333 20.8249 106.271 21.6746V27.3135Z" fill="black"/>
<path d="M129.937 19.9322V20.6361C129.928 24.8886 127.575 26.8836 123.48 27.22L123.175 26.3178C124.74 26.17 126.272 25.8239 127.501 24.7855C128.625 23.8308 128.918 22.4328 128.918 21.0269V20.8169H123.07V23.368H122.134V19.9341H125.516V18.3066H126.482V19.9341H129.937V19.9322Z" fill="black"/>
<path d="M151.283 26.925L150.706 27.7436C149.698 27.0708 148.68 26.5458 147.577 26.0636C146.233 27.0397 144.291 27.555 142.652 27.7222L142.347 26.7986C143.807 26.6722 145.349 26.4 146.642 25.6864C145.518 25.245 144.375 24.8989 143.22 24.5839C143.766 23.9539 144.207 23.3336 144.627 22.6103H142.098V21.78H145.08C145.353 21.2647 145.563 20.7611 145.753 20.205L146.72 20.3839C146.531 20.8564 146.309 21.3289 146.09 21.78H151.781V22.6103H149.922C149.586 23.6817 149.103 24.6267 148.316 25.4239C149.345 25.8536 150.332 26.3592 151.287 26.925H151.283ZM146.463 18.945V18H147.365V18.945H151.534V21.2336H150.642V19.7539H143.239V21.2336H142.347V18.945H146.463ZM148.993 22.6103H145.642C145.318 23.1567 145.003 23.6603 144.614 24.1639C145.58 24.4361 146.535 24.7317 147.47 25.0875C148.195 24.4264 148.687 23.5436 148.993 22.6103Z" fill="black"/>
<path d="M167.926 24.1745L168.093 24.9406C166.697 25.6328 164.533 26.4728 163.043 26.9258L162.876 26.0645C163.243 25.9595 163.601 25.8447 163.969 25.7183L163.885 18.1895H164.768L164.842 25.4131C165.882 25.0358 166.92 24.647 167.93 24.1745H167.926ZM166.613 27.7445L166.162 26.8947C169.617 26.0236 170.687 23.9645 170.782 20.5636L170.844 18.2108L171.758 18.2206L171.706 20.6258C171.663 22.022 171.443 23.4395 170.77 24.6781C171.515 25.382 172.231 26.1481 172.839 26.9667L172.104 27.692C171.61 26.852 170.949 26.117 170.31 25.3917C169.343 26.642 168.105 27.3128 166.613 27.7445ZM168.976 21.5281L168.188 22.0745C167.642 21.0245 166.959 20.1222 166.193 19.2297L166.876 18.7145C167.663 19.5447 168.408 20.5422 168.976 21.5281Z" fill="black"/>
<path d="M191.992 20.7728V21.5914H189.157V23.3764H193.589V24.2164H189.157V26.8939C189.157 27.5142 188.821 27.7339 188.234 27.7339H186.563L186.385 26.8317L188.022 26.8414C188.222 26.8414 188.284 26.7267 188.284 26.5361V24.2164H183.865V23.3764H188.284V21.5914H185.459V20.7728H191.99H191.992ZM188.286 18.9353V18H189.157V18.9353H193.336V21.5603H192.465V19.7442H184.988V21.5603H184.117V18.9353H188.286Z" fill="black"/>
<path d="M17.9859 50.5426L17.072 50.1323C17.9334 48.4095 18.5323 46.362 18.8881 44.4837L17.2179 44.4934V43.5912H19.0456C19.1409 42.9612 19.2245 42.3312 19.2867 41.7012L20.3056 41.7439C20.2104 42.3642 20.1054 42.9826 20.0004 43.5912H21.134C21.5754 43.5912 22.0167 43.6126 22.4154 43.8109C23.3176 44.2406 23.4226 45.417 23.4226 46.2998C23.4226 47.2448 23.2748 48.6098 22.919 49.4712C22.5612 50.3209 21.9312 50.5212 21.0815 50.5212C20.6712 50.5212 20.2629 50.4998 19.8526 50.4473L19.8215 49.4809C20.1987 49.5548 20.5565 49.6073 20.9454 49.6073C21.449 49.6073 21.8281 49.4926 22.0381 48.9987C22.3745 48.2637 22.4795 47.0562 22.4795 46.2473C22.4795 44.577 21.9856 44.4526 20.6323 44.4623L19.8351 44.472C19.4151 46.4884 18.8687 48.6817 17.9879 50.5406L17.9859 50.5426ZM26.1973 47.1203L25.1901 47.2992C25.0948 45.7864 24.6865 44.2853 23.6987 43.1206L24.4765 42.6909C25.6101 43.8459 26.0515 45.5473 26.1992 47.1223L26.1973 47.1203Z" fill="black"/>
<path d="M43.6058 45.1452C44.6344 45.0829 45.663 45.0188 46.6721 44.7874L46.7771 45.6585C45.8419 45.8374 44.8871 45.8996 43.9421 45.9521C44.2669 46.6132 44.5935 47.1285 45.066 47.706L44.2474 48.2738C43.7127 47.6224 43.2402 46.7824 42.9252 45.9949C42.5149 46.0163 42.0949 46.026 41.6749 46.026H41.4649L38.1477 46.0046V45.1549L41.3405 45.1977H41.5194C41.8869 45.1977 42.2544 45.1879 42.6219 45.1763C42.4858 44.7466 42.3808 44.3674 42.2758 43.926C41.8985 43.9357 41.5194 43.9474 41.1519 43.9474L38.5269 43.9377V43.0879L41.0469 43.0977C41.4046 43.0977 41.7508 43.0977 42.1066 43.0879C42.0327 42.6582 41.9802 42.2266 41.9394 41.7968L42.9466 41.7871C42.968 42.2071 43.0205 42.6271 43.0827 43.0471C44.0277 43.0043 44.9824 42.9207 45.9177 42.7535L46.0013 43.6363C45.0874 43.7841 44.1638 43.8463 43.2402 43.8988C43.3355 44.3188 43.4599 44.7388 43.6077 45.1491L43.6058 45.1452ZM40.518 47.5388C40.2555 47.8013 39.993 48.1163 39.993 48.5052C39.993 49.6388 42.2077 49.6699 43.1527 49.6699C44.0452 49.6699 44.7899 49.6388 45.7252 49.5649L45.7466 50.4885C45.033 50.5507 44.3291 50.5624 43.6155 50.5624C42.513 50.5624 41.2102 50.5624 40.1933 50.1424C39.5633 49.8702 39.0285 49.3024 39.0285 48.5771C39.0285 47.9899 39.396 47.4649 39.8063 47.0643L40.5199 47.5368L40.518 47.5388Z" fill="black"/>
<path d="M61.52 45.5115C61.1312 45.774 60.8998 45.9315 60.8998 46.1104C60.8998 46.2251 61.0145 46.299 61.1837 46.404C61.5939 46.6354 62.0139 46.8668 62.4339 47.0962C63.8087 47.8409 65.6578 48.9648 66.8128 50.0051L65.9203 50.7401C64.67 49.659 63.2739 48.7548 61.8564 47.9051C61.4987 47.6951 60.3864 47.0437 60.1337 46.824C59.9237 46.6451 59.7759 46.4468 59.7759 46.1629C59.7759 45.9218 59.9023 45.6904 60.0695 45.5115C60.3417 45.2179 61.4967 44.3993 61.8856 44.1037C62.957 43.3162 63.9953 42.4859 64.9092 41.5215L65.9164 42.099C64.5825 43.3901 63.06 44.4712 61.5162 45.5115H61.52Z" fill="black"/>
<path d="M80.4298 50.5738L79.7998 49.8485C81.9095 48.5574 82.697 46.9396 83.0548 44.5558H80.1576V43.6535H83.1501C83.2026 43.0021 83.224 42.3838 83.2123 41.7324L84.2098 41.7538C84.1884 42.3838 84.1476 43.0235 84.1048 43.6535H88.1162V45.4074C88.1162 46.4146 88.0637 48.7577 87.7059 49.6171C87.5387 50.0158 87.1498 50.3521 86.7298 50.4474C86.4362 50.5096 86.1426 50.5213 85.8373 50.5213C85.3123 50.5213 84.8087 50.4688 84.2837 50.3735L84.2623 49.4188C84.8087 49.5141 85.322 49.586 85.8801 49.586C86.3954 49.586 86.7415 49.4908 86.8873 48.9658C87.0876 48.293 87.1498 46.298 87.1498 45.5435V44.5558H83.9998C83.6226 47.1283 82.7184 49.1758 80.4298 50.5719V50.5738Z" fill="black"/>
<path d="M108.749 43.2139L108.823 44.1162L105.367 44.4409L105.587 46.5837L109.608 46.1948L109.67 47.097L105.68 47.4742L106.017 50.6456L105.041 50.6981L104.704 47.5695L100.662 47.9467L100.588 47.0542L104.609 46.6653L104.389 44.5342L100.946 44.859L100.872 43.9567L104.294 43.632L104.094 41.7848L105.07 41.7012L105.27 43.5387L108.745 43.2139H108.749Z" fill="black"/>
<path d="M122.788 50.658L122.389 49.7655C124.09 49.398 125.634 48.7466 126.851 47.4769C128.006 46.2694 128.574 44.7896 128.804 43.1621H125.076C124.32 44.3599 123.501 45.2407 122.325 46.0282L121.726 45.3146C122.891 44.5271 123.804 43.551 124.446 42.291H129.906C129.507 46.806 127.281 49.6507 122.788 50.6599V50.658Z" fill="black"/>
<path d="M143.828 41.334H144.678V43.1929H146.873C146.852 45.0518 146.842 46.9826 146.759 48.7676C146.737 49.2712 146.654 49.9848 146.465 50.4379C146.245 50.9531 145.845 51.0582 145.331 51.0582H144.26L144.112 50.1754L145.267 50.1851C145.561 50.1851 145.687 50.0898 145.771 49.629C146.002 48.3262 146.012 45.5126 146.012 44.0426H144.678V44.1262C144.678 46.4887 144.384 49.3976 142.535 51.0776L141.905 50.364C142.714 49.5551 143.227 48.6412 143.48 47.5193C143.733 46.479 143.826 45.2715 143.826 44.202V44.0445H142.094V43.1948H143.826V41.3359L143.828 41.334ZM151.41 41.9854V50.8793H147.704V41.9854H151.41ZM148.544 42.804V50.0587H150.548V42.804H148.544Z" fill="black"/>
<path d="M165.931 42.0475L166.644 42.3722C166.014 43.3075 165.322 44.1883 164.575 45.04C165.122 45.0089 165.657 44.9661 166.203 44.9039C166.098 44.6511 165.983 44.41 165.867 44.1689L166.518 43.9278C166.864 44.5053 167.117 45.2092 167.327 45.8489L166.602 46.0686C166.549 45.9014 166.506 45.7322 166.444 45.565C165.299 45.7011 164.144 45.7847 162.979 45.8061L162.896 45.0808C163.148 45.0808 163.411 45.0808 163.673 45.0711C163.936 44.7561 164.189 44.4411 164.439 44.1261C163.914 43.6225 163.578 43.3911 162.979 42.9925L163.399 42.3528C163.547 42.4364 163.683 42.52 163.809 42.6153C164.103 42.2692 164.439 41.7325 164.64 41.3339L165.332 41.6061C165.027 42.1214 164.733 42.5608 164.356 43.0236C164.544 43.1811 164.733 43.3483 164.902 43.5272C165.26 43.045 165.616 42.5608 165.931 42.0475ZM169.806 45.9539L170.393 45.6389C169.837 45.6914 169.281 45.7342 168.723 45.7653L168.649 45.0614C168.816 45.0517 168.986 45.0517 169.153 45.04C169.394 44.7347 169.647 44.4197 169.888 44.1047C169.458 43.7158 168.995 43.3697 168.501 43.0547L168.89 42.4247C169.005 42.4869 169.11 42.5608 169.215 42.6347C169.509 42.2244 169.792 41.7636 170.002 41.3125L170.685 41.6061C170.444 42.0572 170.098 42.6464 169.783 43.0547C169.971 43.2025 170.15 43.3483 170.329 43.5058C170.687 43.0119 171.033 42.4986 171.358 41.9833L172.093 42.2983C171.506 43.2336 170.833 44.1261 170.141 44.9856C170.656 44.9544 171.169 44.9019 171.694 44.8592C171.579 44.5656 171.474 44.3244 171.336 44.0406L172.009 43.8092C172.303 44.3031 172.629 45.1644 172.797 45.7089L172.052 45.9617C171.999 45.7944 171.957 45.6253 171.904 45.4678C171.463 45.53 171.012 45.5728 170.57 45.6156C170.895 45.8683 171.2 46.1406 171.484 46.4458L171.336 46.5197H172.67V47.2975H168.828C169.048 47.8225 169.31 48.3378 169.637 48.8103C170.162 48.4214 170.52 48.0539 170.897 47.5192L171.589 47.9703C171.169 48.5575 170.771 48.9892 170.193 49.4306C170.424 49.6503 171.076 50.1558 171.401 50.1558C171.611 50.1558 171.799 50.1558 172.104 48.7169L172.861 49.1058C172.672 49.9769 172.419 51.0483 171.465 51.0483C170.73 51.0483 169.932 50.4086 169.439 49.9147C168.441 50.4611 167.255 50.7858 166.141 51.0075L165.878 50.2414C166.95 50.0936 167.957 49.8 168.914 49.275C168.503 48.6664 168.2 47.9936 167.959 47.3014H165.071C165.062 47.5328 165.062 47.7642 165.04 47.9936C165.88 48.3086 166.291 48.5283 167.045 49.0008L166.551 49.7456C165.952 49.3042 165.616 49.0728 164.933 48.7481C164.733 49.7553 164.439 50.3969 163.652 51.0794L163.022 50.4806C164.124 49.6192 164.208 48.6119 164.22 47.2994H162.981V46.5217H167.737C167.327 44.9156 167.222 43.0139 167.202 41.3553H168.095C168.095 43.0878 168.157 44.9875 168.567 46.5217H170.479C170.259 46.3331 170.037 46.1444 169.806 45.9539Z" fill="black"/>
<path d="M191.489 42.5412V43.1498C191.152 44.3787 190.701 45.4287 190.019 46.5C190.763 48.0964 192.066 49.4925 193.672 50.2489L193.095 51.0676C191.477 50.1439 190.291 48.9462 189.472 47.2662C188.852 48.0964 187.928 48.9364 187.079 49.5451C186.196 50.1751 185.315 50.6476 184.317 51.0578L183.792 50.2081C187.1 49.1153 189.41 46.7334 190.481 43.352H187.31C186.544 44.612 185.577 45.6406 184.36 46.4709L183.783 45.7145C185.515 44.5906 186.587 43.2256 187.217 41.2617L188.14 41.4289C188.014 41.8489 187.909 42.1426 187.742 42.5412H191.49H191.489Z" fill="black"/>
<path d="M24.5698 70.3785L23.7609 70.9249C22.9734 70.0538 22.3434 68.7413 21.9137 67.6602C21.3789 67.6699 20.8423 67.6815 20.3075 67.6815H17.2839V66.7677L20.3503 66.8202H20.7392C21.0328 66.8202 21.3264 66.8202 21.622 66.8104C21.4548 66.2543 21.3167 65.6865 21.2117 65.109L22.2092 65.0352C22.2928 65.6224 22.4095 66.2213 22.5864 66.7774C23.6364 66.7463 24.6767 66.6199 25.6937 66.4002L25.8609 67.3024C24.8537 67.5221 23.9184 67.5863 22.8898 67.6271C23.3 68.6032 23.8445 69.6124 24.5698 70.3785ZM19.7825 70.1996C19.2575 70.4524 18.7014 70.9132 18.7014 71.5432C18.7014 72.2685 19.2167 72.5932 19.8778 72.7818C20.4339 72.9393 21.2642 72.9704 21.9039 72.9704C22.8703 72.9704 23.7628 72.9179 24.7175 72.7915L24.7273 73.7268C23.8134 73.8221 22.8898 73.8532 21.9662 73.8532C20.8325 73.8532 19.2887 73.8007 18.4059 73.0035C17.9859 72.6263 17.7545 72.1421 17.7545 71.5646C17.7545 70.5982 18.4584 69.9274 19.277 69.5171L19.7806 70.1996H19.7825Z" fill="black"/>
<path d="M40.5296 65.1601C40.4771 66.8498 40.3935 68.5415 40.3935 70.2312C40.3935 71.921 40.5821 72.9826 42.5149 72.9826C43.6602 72.9826 44.6888 72.5529 45.2235 71.5029C45.5171 70.9254 45.6746 70.1379 45.7913 69.4982L46.6741 69.8229C46.4952 70.8204 46.2443 71.7751 45.6143 72.5957C44.8579 73.5835 43.6193 73.8868 42.4216 73.8868C41.5388 73.8868 40.6152 73.6865 40.0377 72.9632C39.4504 72.2379 39.3979 71.0946 39.3979 70.2021C39.3979 68.5123 39.4505 66.8323 39.4718 65.1523L40.5316 65.1621L40.5296 65.1601Z" fill="black"/>
<path d="M67.7559 66.1803V67.0514H65.0045V69.1611C65.1309 69.655 65.2048 70.1275 65.2048 70.6408C65.2048 73.2347 63.1261 73.9172 60.9211 74.0106L60.6275 73.1278H60.7753C62.3503 73.1278 64.145 72.8439 64.3453 70.9442C64.0303 71.6481 63.4431 71.9514 62.6867 71.9514C61.5103 71.9514 60.7345 71.0492 60.7345 69.8942C60.7345 68.6245 61.6484 67.7631 62.9084 67.7631C63.3809 67.7631 63.727 67.8681 64.0848 68.1831L64.075 67.0495H58.8989V66.1783H64.0653L64.0439 65.002H65.0103V66.1783H67.7617L67.7559 66.1803ZM62.9356 68.5525C62.1384 68.5525 61.6231 69.0678 61.6231 69.8553C61.6231 70.5806 62.0431 71.1892 62.8092 71.1892C63.5228 71.1892 64.1003 70.707 64.1003 69.972V69.5092C63.9428 68.9006 63.585 68.5545 62.9356 68.5545V68.5525Z" fill="black"/>
<path d="M88.8822 67.0712V67.9734H87.0661V69.3073C87.0661 70.6723 86.5625 72.0587 85.4172 72.8773C84.4722 73.5384 83.255 73.8437 82.1194 73.9798L81.7733 73.0659C82.8233 72.9706 83.9686 72.7198 84.8494 72.1112C85.7322 71.4812 86.1192 70.3573 86.1192 69.2976V67.9753H82.4539V70.8006H81.4992V67.9753H79.7239V67.0731H81.4992V65.1209H82.4539V67.0731H86.1192V65.0781H87.0642V67.0731H88.8803L88.8822 67.0712Z" fill="black"/>
<path d="M104.37 68.9506L103.971 69.8334C102.952 69.2345 102.112 68.8787 100.979 68.5637L101.346 67.7451C102.532 68.0504 103.298 68.3654 104.37 68.9526V68.9506ZM101.525 72.6781C105.672 72.2581 107.5 70.7142 108.76 66.7554L109.538 67.3426C108.97 69.0226 108.12 70.829 106.703 71.9529C105.338 73.0242 103.417 73.4754 101.725 73.7067L101.525 72.6781ZM105.231 66.4734L104.821 67.3659C103.833 66.7981 102.878 66.4423 101.776 66.1273L102.153 65.3301C103.329 65.614 104.158 65.9173 105.229 66.4754L105.231 66.4734Z" fill="black"/>
<path d="M130.505 73.0878L129.708 73.8442C128.667 72.7105 127.534 71.6489 126.357 70.6514C125.14 72.0067 123.775 73.1189 122.105 73.885L121.537 73.1072C123.081 72.4344 124.341 71.5108 125.465 70.2722C126.525 69.0958 127.155 67.9933 127.701 66.5136H122.062V65.6211H128.94C128.562 67.2486 127.932 68.5922 126.935 69.9358C128.174 70.9333 129.371 71.9736 130.505 73.0858V73.0878Z" fill="black"/>
<path d="M145.31 64.666L146.255 64.6971C146.181 65.2435 146.119 65.7782 146.024 66.3246H151.799V67.1549H145.888C145.761 67.7635 145.646 68.3624 145.489 68.9613H151.211V69.7799H148.45V73.2138H151.768V74.0324H144.05V73.2138H147.546V69.7799H145.258C144.723 71.4696 143.861 72.8988 142.642 74.1802L141.981 73.4549C143.809 71.7438 144.544 69.5602 144.983 67.1549H142.075V66.3246H145.129C145.203 65.7685 145.265 65.2124 145.308 64.666H145.31Z" fill="black"/>
<path d="M168.608 73.2876H172.839L172.661 74.1588H168.365C166.874 74.1588 165.54 73.4976 164.774 72.1851C164.459 73.0251 164.122 73.7076 163.557 74.4115L162.896 73.7913C163.693 72.7315 164.103 71.7535 164.408 70.474L165.196 70.6743C165.153 70.8746 165.122 71.0632 165.069 71.2518C165.122 71.3568 165.184 71.4521 165.248 71.5571C167.086 70.6024 169.596 68.7746 170.804 67.1043H163.349V66.2332H167.37V64.6582H168.262V66.2332H171.916V67.0732C171.243 68.1757 170.026 69.2879 169.019 70.0968C168 70.9057 166.909 71.6193 165.732 72.1871C166.563 73.0699 167.434 73.2896 168.61 73.2896L168.608 73.2876Z" fill="black"/>
<path d="M190.553 66.6299V64.666H191.477V66.6299H193.567V67.501H191.477V73.381C191.477 74.1257 191.131 74.3999 190.406 74.3999H187.833L187.644 73.5074L190.122 73.5171C190.511 73.5269 190.551 73.4432 190.551 73.0757V67.501H183.905V66.6299H190.551H190.553ZM188.663 71.4696L187.866 72.0374C187.215 70.7988 186.627 69.9899 185.64 69.0021L186.312 68.4674C187.057 69.1499 188.193 70.5771 188.665 71.4696H188.663Z" fill="black"/>
<path d="M17.9761 97.3875L17 97.0628C17.9022 95.3206 18.5128 92.61 18.8064 90.6578H17.2742V89.7653H18.9231C18.9658 89.3025 19.0067 88.8417 19.0494 88.3789L20.0683 88.41C20.0158 88.8611 19.9633 89.3122 19.9011 89.7653H22.7886V90.6578H19.7747C19.45 92.6314 18.7772 95.5831 17.98 97.3875H17.9761ZM21.9039 94.3522C21.7153 94.6245 21.5461 94.9609 21.5461 95.307C21.5461 95.6959 21.8086 95.9797 22.1664 96.0945C22.7225 96.2733 23.405 96.2734 23.9825 96.2734C24.6553 96.2734 25.3261 96.2422 25.9989 96.1897L26.0086 97.1445C25.3358 97.1542 24.6747 97.1756 24.0039 97.1756C23.195 97.1756 22.2811 97.1658 21.5364 96.8178C20.9803 96.5553 20.6536 95.9875 20.6536 95.3906C20.6536 94.8656 20.8733 94.4358 21.1475 94.0042L21.9039 94.3503V94.3522ZM25.1161 91.1711C25.3261 91.1711 25.5458 91.1711 25.7675 91.1809V92.1258C25.4097 92.1045 25.0539 92.0947 24.6961 92.0947C23.6986 92.0947 22.7633 92.1997 21.8183 92.5361L21.5131 91.7272C22.7419 91.2645 23.8017 91.1711 25.1142 91.1711H25.1161Z" fill="black"/>
<path d="M46.7462 89.6177V90.5004H41.3173C41.2221 91.1927 41.0859 91.8752 40.8546 92.5382C41.7043 92.0346 42.5871 91.7721 43.5846 91.7721C44.3293 91.7721 45.2121 91.9607 45.7468 92.5168C46.2096 92.999 46.4293 93.6504 46.4293 94.3115C46.4293 95.2565 45.9782 96.1704 45.1168 96.6118C44.0046 97.1796 42.5754 97.2107 41.3465 97.2107C40.8837 97.2107 40.4112 97.201 39.9504 97.1679L39.7501 96.2443C40.349 96.2968 40.9576 96.3279 41.5662 96.3279C42.5209 96.3279 44.2437 96.3065 44.9359 95.5715C45.2821 95.2138 45.4084 94.7938 45.4084 94.3018C45.4084 93.0846 44.5471 92.6218 43.4446 92.6218C42.3421 92.6218 41.3232 92.9893 40.5668 93.7671C40.5046 93.9149 40.4307 94.051 40.3568 94.1968L39.3904 93.9129C39.9057 92.8007 40.1565 91.6982 40.3451 90.5004H38.0254V89.6177H40.4618C40.4929 89.219 40.5143 88.8088 40.5143 88.4102L41.5546 88.4315C41.5234 88.8302 41.4807 89.219 41.4282 89.6177H46.7404H46.7462Z" fill="black"/>
<path d="M60.26 90.0268C61.6561 89.7643 63.1786 89.459 64.3764 89.459C65.2689 89.459 66.2975 89.7118 66.9392 90.3612C67.538 90.9815 67.8219 91.7476 67.8219 92.609C67.8219 94.2676 66.8458 95.4868 65.333 96.0954C64.283 96.5154 63.1183 96.599 61.9828 96.6204L61.73 95.7182C63.1164 95.7084 64.5222 95.6443 65.6986 94.8257C66.4122 94.322 66.8108 93.482 66.8108 92.6207C66.8108 92.0529 66.6319 91.4754 66.243 91.0554C65.7705 90.5207 64.9617 90.3826 64.2908 90.3826C62.883 90.3826 60.4155 90.9698 59.0097 91.3276L58.7783 90.2679C59.2411 90.2057 59.7447 90.1201 60.258 90.0268H60.26Z" fill="black"/>
<path d="M81.8997 91.7804C81.4583 92.2217 81.0908 92.5056 80.5658 92.8401L79.9456 92.1051C81.2153 91.3176 82.1292 90.3201 82.7494 88.9551H88.1783C87.9683 90.9287 87.4861 92.7254 86.1931 94.2887C84.9117 95.8326 83.0528 96.8301 81.1433 97.324L80.6922 96.4529C82.3625 96.0542 84.0619 95.2356 85.2383 93.9542C84.1669 93.0404 83.1597 92.4104 81.8997 91.7804ZM87.0972 89.8281H83.3911C83.0858 90.3317 82.8564 90.6895 82.4772 91.1504C83.6536 91.7376 84.8086 92.389 85.8158 93.2406C86.5508 92.1595 86.9086 91.1192 87.0972 89.8281Z" fill="black"/>
<path d="M106.071 91.8014H109.484V92.6725H106.061C105.935 95.5386 104.329 96.6625 101.725 97.2828L101.305 96.4331C102.346 96.2231 103.532 95.8653 104.288 95.0992C104.918 94.4595 105.085 93.5456 105.128 92.6745H100.823V91.8034H105.128V90.0806C103.911 90.2478 102.67 90.3431 101.432 90.3528L101.253 89.4914C103.467 89.4914 106.114 89.2075 108.192 88.4414L108.686 89.2911C107.825 89.5439 106.954 89.785 106.071 89.9309V91.7995V91.8014Z" fill="black"/>
<path d="M123.826 92.5269L122.923 92.7894C122.64 91.5819 122.367 90.8566 121.864 89.7347L122.694 89.4722C123.209 90.5008 123.544 91.4244 123.828 92.5269H123.826ZM128.214 94.5958C126.976 96.0444 125.265 96.8436 123.437 97.2305L122.817 96.4333C127.026 95.5097 128.77 93.3144 129.317 89.093L130.336 89.2816C130.03 91.1619 129.474 93.1141 128.214 94.5938V94.5958ZM126.649 92.0661L125.714 92.2858C125.525 91.2047 125.251 90.1644 124.831 89.1455L125.681 88.9258C126.143 89.9758 126.425 90.9422 126.647 92.0661H126.649Z" fill="black"/>
<path d="M146.37 88.0117H147.284V90.417H151.799V91.2881H147.525C148.145 93.8917 149.489 95.6553 151.925 96.8006L151.338 97.6717C149.123 96.507 147.579 94.722 146.971 92.2739C146.288 94.7842 144.839 96.6101 142.456 97.6717L141.952 96.7578C144.324 95.8031 145.932 93.8275 146.288 91.2881H142.067V90.417H146.372V88.0117H146.37ZM148.312 96.9056L147.608 97.6192C147.009 96.8745 146.475 96.2853 145.687 95.7506L146.274 95.0992C146.914 95.4881 147.828 96.3164 148.312 96.9056Z" fill="black"/>
<path d="M167.926 89.3239V90.1541H166.246V92.3591H168.105V93.1777H166.205C166.183 93.3352 166.162 93.5025 166.143 93.66C166.646 94.8052 167.276 95.4975 168.138 96.3802L167.477 97.0102C166.847 96.318 166.269 95.6452 165.839 94.8052C165.367 96.0866 164.601 97.0005 163.467 97.7355L162.88 96.9908C164.445 96.0458 165.075 94.9647 165.357 93.1797H162.952V92.3611H165.419V90.1561H164.632C164.307 90.7647 164.033 91.1847 163.625 91.7408L162.911 91.2255C163.73 90.2377 164.255 89.1566 164.57 87.9277L165.441 88.1066C165.314 88.5169 165.168 88.9252 165.011 89.3239H167.93H167.926ZM172.431 97.5236H168.41V88.5558H172.431V97.5236ZM169.228 89.355V96.7147H171.56V89.355H169.228Z" fill="black"/>
<path d="M185.819 87.9902V92.0638C185.819 93.1236 185.756 94.195 185.535 95.2352C185.356 96.1375 184.967 96.9988 184.337 97.6716L183.676 96.958C184.158 96.3377 184.485 95.698 184.652 94.9202C184.862 93.9752 184.905 93.0088 184.905 92.0327V87.9902H185.819ZM189.274 88.348V96.9483H188.381V88.348H189.274ZM192.959 87.9902V97.7241H192.045V87.9902H192.959Z" fill="black"/>
<path d="M22.1975 113.056V113.939H19.8137C19.625 114.894 19.3509 115.839 19.0573 116.764C18.7734 117.688 18.3962 118.54 17.9762 119.399L17.0098 118.979C17.9645 117.435 18.47 115.693 18.8687 113.939H17.0934V113.056H19.0359C19.1098 112.594 19.172 112.142 19.2245 111.682L20.222 111.724C20.1481 112.166 20.0742 112.617 19.9906 113.058H22.1956L22.1975 113.056ZM24.0253 117.225C24.8225 117.571 25.6742 118.18 26.2614 118.831L25.6839 119.662C25.1803 119.053 24.665 118.633 23.9825 118.234V118.664C23.9728 120.008 23.1737 120.597 21.8825 120.597C20.7373 120.597 19.5298 120.051 19.5298 118.75C19.5298 118.151 19.8448 117.616 20.3173 117.258C20.7898 116.912 21.4412 116.796 22.0187 116.796C22.3862 116.796 22.7225 116.838 23.09 116.922L23.0278 114.674H23.9728L24.0253 117.225ZM21.9992 117.593C21.307 117.593 20.4242 117.877 20.4242 118.717C20.4242 119.557 21.2331 119.776 21.9156 119.776C22.8392 119.776 23.1134 119.366 23.1134 118.495V117.791C22.7362 117.655 22.3998 117.591 22.0012 117.591L21.9992 117.593ZM25.6431 114.715C24.7195 114.147 23.8678 113.727 22.8509 113.35L23.2184 112.572C24.3112 112.949 25.087 113.307 26.0845 113.875L25.6431 114.715Z" fill="black"/>
<path d="M39.8998 111.994C39.542 113.6 39.4273 115.101 39.4273 116.74C39.4273 117.957 39.4798 119.291 39.752 120.477L38.7332 120.561C38.5329 119.311 38.4609 118.146 38.4609 116.896C38.4609 115.225 38.5562 113.545 38.9023 111.908L39.8998 111.992V111.994ZM42.5773 116.499C42.3051 116.888 42.0523 117.423 42.0523 117.907C42.0523 119 43.4912 119 44.267 119C45.0429 119 45.8518 118.957 46.6393 118.873L46.649 119.861C45.9762 119.923 45.2937 119.956 44.6229 119.956C43.2365 119.956 41.1676 119.851 41.1676 117.992C41.1676 117.372 41.4087 116.763 41.7237 116.238L42.5734 116.501L42.5773 116.499ZM46.4312 112.762V113.685H41.4962V112.762H46.4312Z" fill="black"/>
<path d="M59.6513 112.615L60.4816 112.426C60.6079 113.161 60.7227 113.655 60.9229 114.369C61.7727 113.801 62.6457 113.434 63.6743 113.362C63.7891 112.805 63.9057 112.238 63.9679 111.672L64.9752 111.777C64.8702 112.312 64.7341 112.827 64.6077 113.352C66.7174 113.478 67.7052 114.917 67.7052 116.943C67.7052 117.478 67.6429 117.931 67.4952 118.456C67.8413 118.74 67.9152 118.814 68.1991 119.17L67.6002 119.967C67.4213 119.704 67.3377 119.578 67.1063 119.358C66.7077 120.093 66.0252 120.451 65.1949 120.451C64.3646 120.451 63.4527 119.979 63.4527 119.012C63.4527 118.046 64.3452 117.573 65.2163 117.573C65.7413 117.573 66.2235 117.7 66.6766 117.962C66.7718 117.585 66.8029 117.311 66.8029 116.922C66.8029 115.325 66.0991 114.192 64.3879 114.149C63.9252 115.714 63.4002 117.299 62.4882 118.664C62.0157 119.368 61.3235 120.187 60.3979 120.187C59.8107 120.187 59.3266 119.84 59.0854 119.304C58.9279 118.946 58.8657 118.495 58.8657 118.106C58.8657 116.856 59.381 115.786 60.2618 114.913C60.0091 114.169 59.7991 113.391 59.6532 112.613L59.6513 112.615ZM60.5652 115.744C59.9974 116.405 59.6824 117.192 59.6824 118.075C59.6824 118.579 59.7874 119.273 60.4271 119.273C60.8685 119.273 61.1524 119 61.4149 118.685C61.551 118.528 61.6871 118.349 61.8038 118.17C61.2574 117.404 60.921 116.605 60.5652 115.745V115.744ZM63.4741 114.2C62.6029 114.367 61.9204 114.651 61.1854 115.166C61.4479 115.891 61.8368 116.803 62.2452 117.445C62.7702 116.426 63.1804 115.302 63.4741 114.2ZM65.2377 118.264C64.8079 118.264 64.2091 118.452 64.2091 118.967C64.2091 119.514 64.7768 119.671 65.2279 119.671C65.8793 119.671 66.2468 119.347 66.4977 118.769C66.0991 118.454 65.7529 118.265 65.2377 118.265V118.264Z" fill="black"/>
<path d="M88.6626 113.971V114.894H84.8729V114.937C84.8729 117.92 83.644 119.578 80.8615 120.586L80.3267 119.767C81.2931 119.442 82.3431 118.937 83.014 118.149C83.7276 117.288 83.8967 116.006 83.8967 114.916V114.894H79.8542V113.971H83.8967V111.756H84.8729V113.971H88.6626Z" fill="black"/>
<path d="M109.536 118.611V119.556H100.747V118.611H109.536ZM108.686 112.846V113.791H101.568V112.846H108.686Z" fill="black"/>
<path d="M123.47 115.052L124.026 114.338C125.16 114.916 125.937 115.419 126.987 116.133C127.627 115.114 127.964 114.253 128.205 113.078H122.367V112.238H129.288C129.047 113.949 128.689 115.2 127.722 116.67C128.467 117.226 129.161 117.815 129.822 118.476L129.161 119.316C128.457 118.56 127.944 118.087 127.145 117.436C125.916 118.884 124.353 119.851 122.587 120.533L122.041 119.746C123.585 119.199 125.358 118.128 126.42 116.88C125.475 116.176 124.52 115.589 123.47 115.052Z" fill="black"/>
<path d="M144.248 114.326C143.692 114.672 143.294 114.872 142.683 115.114L142.263 114.326C143.891 113.77 145.256 112.699 146.169 111.238L147.093 111.47C146.926 111.742 146.788 111.942 146.599 112.205H150.515V112.992C149.644 114.524 148.499 115.627 147.008 116.562H151.344V120.857H144.803V117.707C143.92 118.075 143.218 118.306 142.292 118.538L141.968 117.645C143.626 117.321 144.803 116.867 146.273 116.039C145.652 115.399 144.96 114.841 144.246 114.328L144.248 114.326ZM149.477 112.992H145.897C145.592 113.286 145.267 113.591 144.931 113.842C145.781 114.419 146.286 114.839 147.031 115.553C148.071 114.775 148.794 114.114 149.477 112.99V112.992ZM145.654 117.35V120.058H150.474V117.35H145.654Z" fill="black"/>
<path d="M164.881 121.079H164.031V115.65C163.778 116.049 163.59 116.302 163.275 116.658L162.833 115.691C163.883 114.462 164.451 112.856 164.776 111.291L165.637 111.427C165.449 112.32 165.207 113.107 164.881 113.957V121.075V121.079ZM169.606 117.247L169.732 118.013C168.398 118.6 167.033 119.137 165.616 119.514L165.406 118.717C165.711 118.633 166.014 118.55 166.32 118.464L166.224 111.587H167.043L167.148 118.192C167.978 117.908 168.797 117.583 169.606 117.247ZM167.549 121.11L167.138 120.302C169.028 119.714 170.319 118.822 170.866 116.837C171.202 115.619 171.243 114.61 171.276 113.372C171.297 112.763 171.307 112.154 171.319 111.544H172.233C172.202 112.794 172.17 114.494 171.98 115.722C171.832 116.636 171.644 117.476 171.192 118.305C171.918 119.071 172.221 119.512 172.841 120.342L172.18 121.035C171.791 120.321 171.266 119.617 170.732 119.009C169.892 120.059 168.799 120.667 167.55 121.109L167.549 121.11ZM170.016 114.863L169.238 115.23C168.756 114.054 168.534 113.603 167.895 112.5L168.599 112.133C169.155 112.92 169.691 113.961 170.016 114.863Z" fill="black"/>
<path d="M184.411 121.004L183.75 120.331C184.423 119.344 184.883 118.231 185.263 117.098L185.955 117.508C185.556 118.799 185.146 119.87 184.411 121.004ZM185.828 115.282L185.334 115.985C184.862 115.565 184.337 115.198 183.759 114.945L184.189 114.263C184.736 114.482 185.387 114.893 185.826 115.282H185.828ZM186.291 112.394L185.766 113.129C185.346 112.752 184.685 112.31 184.17 112.089L184.652 111.416C185.272 111.669 185.776 111.972 186.289 112.392L186.291 112.394ZM193.589 116.866H190.238C190.143 117.119 190.081 117.329 189.966 117.58H193.169V120.489C193.169 120.952 192.916 121.066 192.508 121.066H191.489L191.374 120.31H192.099C192.383 120.31 192.393 120.226 192.393 119.995V118.22H191.143V120.94H190.417V118.22H189.2V120.94H188.475V118.22H187.224V121.064H186.468V117.578H189.188C189.272 117.347 189.336 117.105 189.408 116.864H186.058V116.203H193.587V116.864L193.589 116.866ZM193.064 112.351H190.198V112.919H193.357V115.229H192.579V113.539H190.196V115.912H189.439V113.539H187.077V115.229H186.311V112.919H189.439V112.351H186.657V111.7H193.062V112.351H193.064ZM189.126 114.094V114.64H187.394V114.094H189.126ZM189.126 115.153V115.688H187.394V115.153H189.126ZM192.286 114.094V114.64H190.544V114.094H192.286ZM192.286 115.153V115.688H190.544V115.153H192.286Z" fill="black"/>
</g>
<path d="M41.0355 88.6532C37.3838 91.5174 33.7322 93.8799 30.2944 93.8799C27.0725 93.8799 26.7866 90.2282 26.7866 88.9391C26.7866 81.206 33.6602 72.9713 42.3966 66.9571C44.6172 65.3821 45.3327 64.7366 45.3327 59.6538C45.3327 58.5085 45.1188 58.1507 43.7577 58.1507C43.6138 58.1507 41.0375 58.2946 40.5358 58.2946C34.1638 58.2946 31.3716 53.7116 31.3716 53.068C31.3716 52.6382 31.6575 52.3524 32.2311 52.3524C32.6608 52.3524 34.8094 52.996 35.2391 53.068C37.03 53.2818 38.7469 53.3538 40.108 53.3538C41.3972 53.3538 45.5505 53.3538 45.9802 52.2805C46.41 51.2771 46.6238 47.2677 46.6238 46.9818C46.6238 46.2663 45.9083 42.6146 45.9083 42.4707C45.9083 42.113 46.2661 42.041 46.5519 42.041C46.6958 42.041 52.8519 43.3302 52.8519 44.9052C52.8519 44.9771 51.7786 47.2677 51.7066 47.4116C50.9911 48.9146 50.7033 50.2757 50.7033 50.9193C50.7033 51.493 50.7752 51.6349 51.6347 51.6349C53.1377 51.6349 59.7255 49.2724 61.0866 49.2724C62.8055 49.2724 64.0947 50.4177 64.0947 51.6349C64.0947 53.9255 61.5163 54.571 55.4302 56.0741C51.205 57.0774 50.1316 57.3632 49.7019 57.9349C49.3441 58.4366 48.9144 60.4413 48.9144 61.4427C48.9144 63.0896 49.2722 63.2335 50.1316 63.2335C50.7052 63.2335 51.7786 63.0196 52.2083 62.8757C55.6461 62.0163 58.7241 61.5146 61.1586 61.5146C71.6119 61.5146 77.4122 68.746 77.4122 77.9121C77.4122 93.4502 63.1633 97.4596 56.5036 99.2505C56.0738 99.3943 53.2097 100.11 51.5627 100.11C51.133 100.11 50.8472 99.966 50.8472 99.6082C50.8472 99.3224 51.4208 99.1066 52.2783 98.8207C66.6711 93.9518 71.9697 86.4327 71.9697 78.4138C71.9697 69.3916 65.9555 64.5946 60.1552 64.5946C56.7175 64.5946 56.5755 65.0243 55.2863 69.2496C54.0691 73.1171 52.9238 74.906 50.3455 78.9874C49.63 80.1327 49.558 80.4905 49.558 81.5657C49.558 82.1393 49.7719 84.7157 49.7719 85.2174C49.7719 87.1502 49.0563 88.7971 47.4813 88.7971C46.2641 88.7971 45.7625 87.9377 45.2608 87.1502C44.7591 86.2907 44.6872 86.1468 44.4733 86.1468C44.3294 86.0749 42.2527 87.7218 41.0355 88.6532ZM44.2575 80.1327C44.5433 79.4171 44.6872 71.898 44.6872 71.1105C44.6872 70.6807 44.6872 69.4635 44.1855 69.4635C41.5372 69.4635 31.4397 81.4918 31.4397 86.8624C31.4397 87.8657 31.7975 88.5813 32.9427 88.4374C35.3772 88.1516 43.2541 82.7091 44.2555 80.1307L44.2575 80.1327ZM52.3483 65.8118C48.6247 65.8118 48.6247 68.2463 48.6247 70.7527C48.6247 71.3963 48.6247 74.1905 49.4841 74.1905C50.5575 74.1905 53.4216 68.5341 53.4216 66.6713C53.4216 66.5993 53.3497 66.0977 53.2077 65.9557C53.0638 65.8118 52.5641 65.8118 52.3483 65.8118Z" fill="#003CFF"/>
<path d="M95.3807 71.683C89.1507 71.683 87.074 71.8269 86.3585 71.8969C86.1446 71.8969 85.0693 72.0408 84.8554 72.0408C84.5696 72.0408 84.4257 71.8969 84.2118 71.6111L82.8507 69.9642C82.5649 69.6783 82.4929 69.6064 82.4929 69.4625C82.4929 69.3905 82.6368 69.3186 82.7788 69.3186C83.2804 69.3186 85.499 69.5325 85.9288 69.5325C89.4365 69.7464 92.3726 69.8183 95.7385 69.8183H101.181C103.402 69.8183 104.045 69.5325 107.769 60.7961C108.7 58.6475 109.773 56.1411 109.845 54.71C109.845 54.2083 109.917 53.8505 110.347 53.8505C110.705 53.8505 116.219 56.7866 116.219 57.86C116.219 58.3617 114.358 59.5789 114.071 59.8647C113.139 60.868 109.416 68.0275 109.416 68.743C109.416 69.8164 110.705 69.8164 110.919 69.8164H132.829C136.051 69.8164 136.408 69.8164 137.412 68.5992C139.417 66.2367 139.632 65.9508 140.276 65.9508C140.778 65.9508 147.006 69.8164 147.006 70.6758C147.006 71.6791 145.575 71.6792 143.14 71.6792H129.105C128.39 71.6792 128.102 71.6791 128.102 72.1089C128.102 72.4667 131.54 74.5433 131.54 75.3308C131.54 75.7605 129.679 76.62 129.463 76.9058C129.033 77.4794 127.314 80.3436 126.957 80.9153C124.666 84.2811 122.517 86.5717 122.232 86.8575C121.802 87.2872 121.372 87.7889 121.372 88.2886C121.372 88.8622 121.658 88.9322 124.164 89.8636C126.671 90.723 138.557 94.9483 138.557 98.8139C138.557 99.9591 137.268 101.462 135.407 101.462C133.832 101.462 133.33 101.104 128.533 97.4528C125.813 95.448 119.511 91.6525 118.008 91.6525C117.221 91.6525 116.935 91.8664 114.57 93.3714C113.855 93.8011 100.25 101.678 89.3665 101.678C88.7929 101.678 87.146 101.678 87.146 101.248C87.146 100.819 90.8696 100.175 91.5851 99.9591C105.834 95.5919 112.636 90.4353 112.636 89.6478C112.636 88.2167 101.895 86.3539 101.251 86.3539C100.893 86.3539 100.32 86.4258 99.604 87.1414C98.7446 88.0008 98.171 88.5725 96.8838 88.5725C95.7385 88.5725 94.1635 87.785 94.1635 86.6397C94.1635 85.9961 94.6651 85.1367 95.7385 83.5616C96.3821 82.6303 101.611 73.9678 101.611 72.6067C101.611 71.6753 100.607 71.6753 100.108 71.6753H95.3826L95.3807 71.683ZM133.544 49.4153C136.123 49.4153 136.552 49.3433 137.41 48.4119C138.267 47.4805 138.771 46.9089 139.558 46.9089C140.346 46.9089 141.707 47.9822 141.921 48.1261C146.074 51.2042 146.576 51.5639 146.576 52.5653C146.576 53.9264 145.215 53.9264 144.785 53.9964C144.427 53.9964 142.994 53.8525 142.708 53.8525C141.347 53.8525 140.918 54.0664 138.913 55.2836C138.339 55.6414 133.758 58.2917 133.686 58.2917L133.614 58.1478C133.614 57.5742 135.977 53.2789 135.977 52.2755C135.977 51.2722 135.189 51.2722 134.33 51.2722H93.5879C93.0143 51.2722 91.7971 51.2722 91.6551 52.8472C91.1535 57.0005 89.4346 60.5083 85.7829 60.5083C84.4218 60.5083 82.7749 59.435 82.7749 57.5003C82.7749 56.1391 83.2046 55.7814 85.3532 53.6328C86.7143 52.3436 87.6438 50.4828 88.3613 47.8325C88.9349 45.6839 89.0049 45.398 89.2926 45.398C89.8663 45.398 90.4379 46.6872 90.6538 47.3308C91.2974 48.9778 91.4413 49.4075 92.8743 49.4075H109.702C111.562 49.4075 111.562 48.0464 111.562 47.1169C111.562 45.47 111.562 43.7511 111.348 42.1042C111.277 41.6025 110.847 39.24 110.847 38.7383C110.847 38.4525 110.991 38.3086 111.133 38.3086C111.205 38.3086 115.428 39.3819 117.648 39.8836C118.15 40.0275 118.508 40.5272 118.508 40.8869C118.508 41.1008 117.577 42.1761 117.291 42.4619C116.717 43.1055 116.717 43.5353 116.717 47.1169C116.717 48.7639 117.147 49.4075 118.794 49.4075H133.544V49.4153ZM110.345 71.683C107.767 71.683 107.553 72.1128 105.762 75.2628C104.903 76.8378 101.395 83.1397 101.395 83.9991C101.395 84.6428 101.467 84.7147 104.403 85.1444C106.05 85.4303 113.927 86.9353 114.57 86.9353C116.145 86.9353 116.719 86.2917 118.508 84.215C123.878 77.843 124.38 73.6897 124.38 72.8303C124.38 71.685 123.593 71.685 122.733 71.685H110.345V71.683Z" fill="#003CFF"/>
<path d="M177.199 72.4702C177.271 74.9047 177.127 86.5752 177.127 89.2255C177.127 92.5913 177.127 95.5974 179.991 95.5974C180.707 95.5974 181.852 95.1677 182.282 94.8099C182.354 94.738 182.784 94.3802 182.856 94.3802C182.999 94.3802 183.213 94.4521 183.213 94.8099C183.213 96.0991 180.277 99.2491 177.199 99.2491C174.909 99.2491 173.046 97.5302 172.474 96.0271C172.33 95.5255 172.116 94.8819 171.471 94.8819C171.041 94.8819 170.397 95.3835 169.752 95.8852C166.96 98.0338 163.45 99.251 160.3 99.251C156.005 99.251 151.206 96.9605 151.206 91.6619C151.206 83.1413 163.234 79.4897 167.387 78.2724C171.683 76.9833 172.112 76.8413 172.112 73.1177C172.112 66.9597 168.675 64.6691 165.383 64.6691C160.658 64.6691 159.87 68.0349 159.654 69.0363C159.153 71.1849 158.651 73.7613 155.859 73.7613C153.998 73.7613 152.493 72.2583 152.493 70.2535C152.493 66.0283 159.439 62.7344 165.453 62.7344C171.109 62.7344 177.051 65.3127 177.195 72.4721L177.199 72.4702ZM171.615 91.6599C171.972 90.8005 172.116 90.5146 172.116 82.066C172.116 80.6349 172.116 79.4177 170.613 79.4177C168.035 79.4177 157.296 84.2147 157.296 90.9463C157.296 92.8791 158.513 96.173 163.454 96.173C165.888 96.173 170.613 94.0244 171.617 91.6619L171.615 91.6599Z" fill="#003CFF"/>
</svg>
