<svg width="432" height="149" viewBox="0 0 432 149" fill="none" xmlns="http://www.w3.org/2000/svg">
<path d="M45.66 92.4102C47.63 92.4102 49.14 91.7102 49.14 86.7302C49.14 84.9902 47.98 83.7202 46.01 83.7202H20.86C10.66 83.7202 7.42001 83.9502 6.26001 83.9502C5.91001 84.0702 4.17001 84.3002 3.83001 84.3002C3.37001 84.3002 3.13001 83.9502 2.79001 83.4902L0.59001 80.8202C0.13001 80.3602 0.0100098 80.2402 0.0100098 80.1202C0.0100098 79.8902 0.24001 79.7702 0.47001 79.7702C1.28001 79.7702 4.87001 80.2302 5.57001 80.2302C11.25 80.5802 16 80.5802 21.45 80.5802H46.6C49.96 80.5802 49.96 78.0302 49.96 74.9002C49.96 74.4402 49.84 72.0002 49.84 71.5402C49.96 70.7302 50.77 70.7302 51.12 70.7302C52.63 70.7302 58.42 72.8202 60.39 73.5102C61.32 73.8602 62.13 74.2102 62.13 75.2502C62.13 75.9502 61.9 76.1802 59.58 77.6802C59.12 78.0302 58.19 78.7202 58.19 79.4202C58.19 80.3502 58.89 80.5802 59.58 80.5802H82.53C87.98 80.5802 89.14 80.5802 90.64 78.6102C93.54 74.5502 93.89 74.0902 95.05 74.0902C96.21 74.0902 104.78 80.4602 104.78 81.9702C104.78 83.7102 102.46 83.7102 98.52 83.7102H60.15C58.76 83.7102 56.67 83.7102 56.67 89.2702C56.67 91.1202 57.71 92.4002 59.68 92.4002H73.47C74.4 92.4002 76.37 92.4002 77.76 90.2002C78.92 88.4602 79.03 88.3502 79.61 88.3502C80.19 88.3502 89.11 93.6802 89.11 95.4202C89.11 96.5802 87.83 97.6202 86.91 98.3202C85.64 99.2502 85.52 99.4802 85.52 100.87C85.52 105.16 85.98 124.16 85.98 127.99C85.98 130.19 84.24 133.32 79.95 133.32C78.33 133.32 78.1 132.97 76.82 131.23C75.66 129.49 74.27 129.49 73.34 129.49H37.43C35.23 129.49 35 130.88 35 131.11C34.65 133.31 33.03 134.7 29.32 134.7C26.77 134.7 26.31 132.61 26.31 130.76C26.31 130.41 26.54 126.47 26.54 125.66C26.66 124.85 26.77 105.26 26.77 103.87C26.77 97.7302 26.77 97.0302 26.19 93.4402C26.07 92.8602 25.38 90.3102 25.38 89.7302C25.38 88.8002 26.31 88.6902 26.89 88.6902C28.17 88.6902 32.22 90.5402 34.19 91.3602C36.51 92.4002 37.67 92.4002 38.82 92.4002H45.66V92.4102ZM21.67 141.55C19.12 141.55 18.19 142.83 17.96 143.29C16.69 146.07 15.64 148.39 11.82 148.39C9.27001 148.39 8.11001 147.12 8.11001 143.75C8.11001 141.2 8.92001 128.57 8.92001 125.79C8.92001 123.7 8.69001 101.8 8.57001 101.1C8.45001 100.52 7.64001 97.7402 7.64001 97.0402C7.64001 96.3402 8.22001 96.0002 9.03001 96.0002C10.07 96.0002 15.29 97.9702 16.8 98.5502C19.23 99.4802 20.05 99.7102 20.05 100.98C20.05 101.21 20.05 101.56 19.82 102.02C19.7 102.37 17.73 103.99 17.5 104.45C16.92 105.38 16.92 115.69 16.92 117.89C16.92 120.32 16.92 135.27 17.5 136.66C18.2 138.51 19.47 138.51 20.28 138.51H81.47C85.99 138.51 86.69 138.28 87.38 137.47C88.08 136.54 91.09 130.86 92.36 130.86C93.98 130.86 102.1 138.16 102.1 140.02C102.1 141.53 101.52 141.53 95.96 141.53H21.67V141.55ZM20.16 69.3502C19.23 69.3502 18.19 69.3502 17.15 70.2802C15.41 71.6702 14.48 72.3702 12.28 72.3702C11.01 72.3702 9.03001 71.6702 9.03001 69.4702C9.03001 67.3802 9.38001 56.8402 9.38001 54.4002C9.38001 51.5002 9.38001 50.8102 9.26001 50.3402C9.26001 49.9902 8.91001 48.7202 8.91001 48.3702C8.91001 47.4402 9.61001 47.3302 10.07 47.3302C11.81 47.3302 14.94 48.7202 17.37 49.7602C19.69 50.8002 20.96 50.8002 22.01 50.8002H84.24C85.05 50.8002 86.33 50.8002 87.72 49.2902C90.04 46.9702 90.27 46.7402 90.97 46.7402C91.67 46.7402 99.2 50.8002 99.2 52.6502C99.2 53.5802 98.39 54.3902 97.58 54.7402C96.19 55.3202 95.96 55.4402 95.96 56.7102C95.96 58.3302 96.31 66.3302 96.31 68.0702C96.31 71.2002 93.53 72.3602 90.63 72.3602C88.66 72.3602 88.31 71.9002 87.27 70.6202C86.57 69.8102 85.76 69.3502 84.6 69.3502H20.16V69.3502ZM21.09 53.8202C19.12 53.8202 17.85 54.7502 17.85 56.7202C17.85 65.7602 17.85 66.3402 21.09 66.3402H31.98C33.95 66.3402 35.22 65.4102 35.22 63.4402C35.22 54.4002 35.22 53.8202 31.98 53.8202H21.09ZM37.55 106.67C34.65 106.67 34.65 108.87 34.65 110.26C34.65 112.35 34.65 114.43 37.55 114.43H74.06C76.84 114.43 76.84 112.58 76.84 112.34C76.84 108.05 76.84 106.66 74.06 106.66H37.55V106.67ZM37.32 117.45C35.58 117.45 34.65 118.49 34.65 120.35C34.65 125.1 34.65 126.49 37.32 126.49H74.18C76.85 126.49 76.85 124.52 76.85 124.29C76.85 118.73 76.85 117.45 74.18 117.45H37.32ZM37.78 95.5502C34.77 95.5502 34.77 97.7502 34.77 98.9102C34.77 101.46 34.77 103.55 37.78 103.55H74.17C77.07 103.55 77.07 101.35 77.07 100.19C77.07 97.6402 77.07 95.5502 74.17 95.5502H37.78ZM47.4 53.8302C44.97 53.8302 44.15 55.4502 44.15 56.8402V63.4502C44.15 64.3802 44.73 66.3502 47.4 66.3502H57.25C59.68 66.3502 60.61 64.7302 60.61 63.3402C60.61 62.6402 60.49 56.8502 60.49 56.7302C60.37 55.8002 59.91 53.8302 57.24 53.8302H47.39H47.4ZM71.62 53.8302C68.72 53.8302 68.72 56.6102 68.72 59.5102C68.72 64.0302 68.72 66.3502 71.62 66.3502H84.25C87.26 66.3502 87.26 63.5702 87.26 60.6702C87.26 56.1502 87.26 53.8302 84.25 53.8302H71.62Z" fill="white"/>
<path d="M150.9 53.1303C152.87 60.2003 156.12 65.0703 156.93 65.0703C157.39 65.0703 159.36 64.6103 161.45 63.2203C163.77 61.8303 164.12 61.6003 165.51 61.6003C167.83 61.6003 169.45 63.1103 169.45 65.0803C169.45 66.9303 167.94 69.6003 164.47 70.7603C164.12 70.8803 161.69 71.8003 161.69 72.1503C162.5 73.5403 167.72 81.8903 168.76 81.8903C169.22 81.8903 172.93 80.6103 172.93 78.6503C172.93 78.1903 171.42 76.5603 171.42 76.1003C171.42 75.1703 172.58 75.0603 173.04 74.9403C177.21 74.5903 179.53 74.3603 180.23 74.3603C184.05 74.3603 187.07 76.2103 187.07 79.4603C187.07 81.0803 186.84 83.7503 176.87 87.3403C173.86 88.3803 173.51 88.6203 173.51 89.0803C173.51 89.6603 173.63 89.8903 177.22 95.5703C182.9 104.38 184.64 109.48 184.64 113.77C184.64 118.52 180.93 121.77 177.92 121.77C174.91 121.77 174.21 121.19 166.68 115.98C162.16 112.85 158.22 112.5 155.44 112.5C145.01 112.5 140.14 119.22 140.14 124.44C140.14 133.02 150.34 133.6 153.35 133.6C155.2 133.6 162.97 132.79 164.59 132.79C165.98 132.79 170.04 133.25 170.04 136.96C170.04 143.57 157.87 143.57 156.48 143.57C153.12 143.57 133.65 143.57 133.65 127.34C133.65 120.62 138.63 109.14 156.13 109.14C160.42 109.14 162.62 109.6 167.26 110.53C170.51 111.23 171.55 111.23 172.36 111.23C174.1 111.23 175.37 110.65 175.37 108.8C175.37 106.48 173.63 101.27 170.15 94.5503C168.41 91.1903 168.3 90.8403 167.25 90.8403C166.55 90.8403 162.15 92.1103 161.22 92.3503C156.35 93.5103 152.53 94.0903 147.31 94.0903C140.36 94.0903 135.6 93.1603 132.01 89.6903C130.16 87.8403 129.23 85.6303 129.23 84.7103C129.23 83.9003 129.81 83.5503 130.27 83.5503C130.85 83.5503 133.4 85.4003 133.98 85.6403C137.8 87.3803 142.09 87.9603 146.15 87.9603C155.3 87.9603 164.11 84.9503 164.11 84.2503C164.11 83.5503 157.62 73.3603 156.23 73.3603C156 73.3603 149.86 74.4003 148.7 74.4003C139.66 74.4003 132.82 68.1403 132.82 65.9403C132.82 65.5903 133.05 65.0103 133.75 65.0103C134.21 65.0103 136.42 65.9403 136.76 66.0503C140.58 67.3203 141.98 67.6703 144.76 67.6703C147.54 67.6703 151.6 67.0903 151.6 66.2803C151.6 65.9303 145.34 56.7803 139.78 54.0003C136.42 52.3803 135.96 52.2603 135.96 51.4503C135.96 50.2903 138.16 48.3203 140.48 48.3203C143.03 48.3203 149.87 49.7103 150.91 53.1903L150.9 53.1303Z" fill="white"/>
<path d="M285 79.3205C290.56 79.3205 291.14 79.3205 292.76 76.6505C295.08 72.8305 295.77 72.1305 296.82 72.1305C298.21 72.1305 306.21 79.7805 306.21 80.7105C306.21 82.4505 304.01 82.4505 300.07 82.4505H269.36C266.23 82.4505 266.11 84.4205 266.11 86.1605C266.11 87.5505 266.11 101.111 266.46 101.811C267.16 103.321 268.78 103.321 269.47 103.321H291.37C296.82 103.321 297.4 103.321 298.79 101.471C302.5 96.3705 302.96 95.7905 304.35 95.7905C306.32 95.7905 314.32 103.671 314.32 104.831C314.32 106.451 312 106.451 308.18 106.451H269.47C266.46 106.451 266.11 108.071 266.11 109.931C266.11 113.641 266.23 129.751 266.23 133.111C266.23 136.931 266.11 141.221 261.25 145.161C258.35 147.361 255.46 147.831 253.48 147.831C251.63 147.831 251.63 147.601 251.16 144.351C250.7 141.801 246.53 139.371 242.47 137.741C242.12 137.621 241.43 137.281 241.43 136.931C241.43 136.351 242.13 136.351 242.47 136.351C254.52 136.351 255.8 136.351 256.73 134.731C257.66 133.111 257.89 132.061 257.89 109.931C257.89 108.661 257.89 106.451 254.65 106.451H229.39C219.31 106.451 215.95 106.681 214.79 106.681C214.44 106.801 212.7 107.031 212.36 107.031C211.9 107.031 211.66 106.681 211.32 106.221L209.12 103.551C208.66 103.091 208.54 102.971 208.54 102.851C208.54 102.621 208.77 102.501 209 102.501C209.81 102.501 213.4 102.961 214.1 102.961C219.78 103.191 224.53 103.311 229.98 103.311H254.67C255.37 103.311 256.99 103.311 257.68 101.921C258.03 101.221 258.03 87.6605 258.03 86.1605C258.03 84.5405 257.91 82.4505 254.67 82.4505H236.59C226.51 82.4505 223.15 82.5705 221.99 82.6805C221.64 82.6805 219.9 83.0305 219.56 83.0305C219.1 83.0305 218.86 82.6805 218.52 82.2205L216.32 79.5505C216.09 79.3205 215.74 78.9705 215.74 78.8505C215.74 78.6205 215.97 78.5005 216.2 78.5005C217.01 78.5005 220.6 78.9605 221.3 78.9605C226.98 79.3105 231.73 79.3105 237.18 79.3105H254.68C257.92 79.3105 257.92 77.2205 257.92 75.7205C257.92 58.8005 257.92 58.3405 253.75 58.3405C252.48 58.3405 239.61 58.9205 236.95 58.9205C235.1 58.9205 218.87 58.8005 218.87 57.4105C218.87 57.0605 222.81 56.7105 223.62 56.6005C239.26 55.3205 263.49 52.7805 276.58 48.0205C279.36 46.9805 280.29 46.5105 283.88 44.6605C284.11 44.5405 284.69 44.3105 285.04 44.3105C285.74 44.3105 290.49 48.1305 291.53 48.9505C295.47 51.7305 295.7 51.8505 295.7 52.7705C295.7 54.7405 294.43 54.8605 285.27 55.4405C282.37 55.5605 270.09 56.6005 267.89 57.8705C266.04 58.9105 266.04 60.0705 266.04 70.1505C266.04 78.3805 266.04 79.3105 269.4 79.3105H285.05L285 79.3205Z" fill="white"/>
<path d="M362.19 98.09C361.61 96.35 360.92 96.24 360.22 96.24C359.29 96.24 355.47 97.28 354.66 97.63C352.46 98.44 352.46 99.72 352.46 111.65C352.46 114.32 352.46 126.95 352.69 134.83C352.69 135.99 352.92 141.55 352.92 142.83C352.92 144.34 352.92 148.51 348.05 148.51C344.46 148.51 343.88 147.35 343.88 144.34C343.88 142.14 344.46 131.36 344.58 128.93C344.7 124.76 344.7 122.56 344.7 103.2C344.7 101.11 344.35 99.84 342.5 99.84C341.69 99.84 332.65 101.46 331.26 102.04C330.91 102.16 329.41 103.66 328.94 103.66C326.16 103.66 325 95.08 325 94.5C325 93.46 326.16 92.99 326.74 92.99C327.09 92.99 327.9 93.22 328.02 93.22C329.18 93.57 330.22 93.8 337.87 93.8C340.88 93.8 341.35 93.1 345.06 86.73C347.96 81.51 355.95 65.41 356.07 61.12C356.07 59.61 356.07 58.8 357.69 58.8C357.69 58.8 367.42 60.89 367.42 64.94C367.42 65.98 367.07 66.21 364.41 67.84C362.79 68.88 356.53 77.69 354.56 80.59C353.17 82.56 345.75 91.83 345.75 92.64C345.75 93.22 346.33 93.68 347.49 93.68C348.77 93.68 356.3 93.22 357.69 93.22C359.43 93.1 360.12 92.76 360.12 92.06C360.12 90.21 356.06 81.51 356.06 81.51C356.06 81.16 356.29 81.05 356.52 81.05C358.37 81.05 370.31 90.79 370.31 97.51C370.31 102.15 366.02 103.3 364.75 102.96C363.59 102.61 363.48 102.5 362.2 98.09H362.19ZM341.68 115.59C341.56 115.59 332.76 131.93 330.9 134.94C329.97 136.45 326.15 142.59 325.22 142.59C324.99 142.59 324.99 142.36 324.99 142.36C324.99 142.24 327.08 136.22 327.31 135.52C329.28 128.8 332.76 117.56 332.76 111.18C332.76 110.95 332.53 109.9 332.53 109.67C332.53 108.97 333.23 108.74 333.81 108.74C335.32 108.74 341.92 111.52 342.73 113.38C343.19 114.31 342.85 114.65 341.69 115.58L341.68 115.59ZM357.21 52.66C355.24 53.12 354.78 53.24 353.97 54.17C351.88 56.14 342.03 68.66 342.03 69.93C342.03 70.51 342.14 70.63 343.42 72.25C345.27 74.57 345.39 77.23 345.39 77.81C345.39 80.71 343.88 82.68 341.57 82.68C339.48 82.68 338.21 81.29 336.24 77C335.54 75.38 334.5 73.41 333 71.55C332.19 70.51 327.44 65.18 327.44 64.94C327.44 64.82 327.56 64.59 327.79 64.59C329.41 64.59 337.06 67.72 337.41 67.72C338.8 67.72 340.54 63.66 341.81 60.77C346.56 49.64 346.68 48.83 346.68 44.89C346.68 44.08 346.8 43.5 347.61 43.5C349 43.5 358.39 48.95 357.92 51.84C357.8 52.19 357.57 52.54 357.22 52.65L357.21 52.66ZM364.86 128.8C362.31 128.8 361.38 125.44 360.92 123.93C359.18 117.21 358.95 116.51 356.28 110.02C356.05 109.44 355.24 107.47 355.24 107.12C355.24 107.12 355.24 106.89 355.47 106.89C356.28 106.89 369.38 114.19 369.38 123.23C369.38 123.81 369.26 124.51 369.15 125.08C368.57 127.63 366.14 128.79 364.86 128.79V128.8ZM408.44 89.51C406.12 89.51 405.08 89.97 405.08 92.29C405.08 93.68 406.47 111.64 414.23 122.65C416.66 126.13 419.91 130.65 421.42 130.65C423.27 130.65 427.21 120.57 427.56 120.57C427.91 120.57 427.91 121.15 427.91 123.58C427.91 125.55 428.14 132.62 428.37 134.47C428.49 135.75 431.04 141.54 431.04 143.05C431.04 145.95 427.22 145.95 426.75 145.95C420.26 145.95 410.99 132.16 409.25 129.38C408.32 127.99 407.86 127.29 406.93 127.29C405.66 127.29 383.98 137.26 379.58 139.23C372.16 142.71 371.24 143.05 370.31 144.21C368.22 146.76 367.76 147.34 366.49 147.34C364.52 147.34 363.13 143.75 362.32 141.66C361.86 140.73 359.77 136.21 359.77 135.86C359.77 135.05 359.89 135.05 364.4 135.05C371.59 135.05 373.9 133.43 373.9 130.18V70.61C373.9 68.06 373.55 65.51 373.32 63.66C373.21 62.5 371.93 56.94 371.93 55.66C371.93 54.96 372.63 54.85 373.32 54.85C374.48 54.85 380.04 57.28 381.43 57.28C384.44 57.28 404.26 49.4 407.51 47.66C408.21 47.31 410.76 44.53 411.57 44.53C412.5 44.53 423.51 50.9 423.51 52.41C423.51 53.11 422.58 53.34 421.89 53.45C420.15 53.68 411.46 55.19 409.49 55.54C405.623 56.08 403.69 60.3667 403.69 68.4C403.69 72.11 403.81 80.92 404.27 83.93C404.62 86.25 405.78 86.36 407.75 86.36H411.34C412.5 86.36 415.86 86.36 416.67 86.01C417.71 85.43 421.07 79.87 422.35 79.87C423.97 79.87 431.85 86.24 431.85 88.1C431.85 89.49 431.27 89.49 425.71 89.49H408.44V89.51ZM393.49 86.38C396.16 86.38 396.74 85.8 396.74 83.48C396.74 83.25 396.16 65.17 396.04 61.69C396.04 59.6 395.81 57.87 393.61 57.87C392.91 57.87 386.77 58.91 385.38 59.14C383.64 59.49 382.48 59.72 381.9 60.88C381.55 61.58 381.55 79.66 381.55 81.97C381.55 84.87 381.55 86.37 385.26 86.37H393.49V86.38ZM385.38 89.51C384.22 89.51 382.48 89.51 381.9 91.13C381.55 91.71 381.55 101.44 381.55 106.43C381.55 115.59 381.55 128.68 381.78 129.38C382.01 130.42 382.82 131 383.98 131C385.37 131 395.92 128.33 398.47 127.64C401.14 126.94 405.89 125.67 405.89 124.28C405.89 123.47 405.43 122.43 405.19 121.85C401.25 113.62 399.63 106.2 397.89 94.15C397.43 90.56 396.96 89.51 393.72 89.51H385.38Z" fill="white"/>
<path d="M266.66 20.2803H266.83C267.89 20.2803 268.21 19.9003 268.47 18.6103L269.65 12.5403C269.92 11.1703 269.53 10.8703 268.54 10.8703H268.5L268.56 10.5703H276.04L275.74 12.8803H275.41V12.5803C275.34 11.3903 274.84 11.0403 273.46 11.0403H271.88L271.01 15.5203H273.21C274.17 15.5203 274.7 15.2903 274.91 14.3803L274.94 14.2503H275.29L274.72 17.3403H274.38L274.41 17.1703C274.56 16.3403 274.13 16.0603 273.01 16.0603H270.91L270.41 18.6103C270.14 19.9703 270.53 20.2803 271.52 20.2803H271.72L271.66 20.5803H266.61L266.67 20.2803H266.66Z" fill="white"/>
<path d="M275.59 18.8911C275.59 16.6211 277.67 14.6211 279.53 14.6211C280.58 14.6211 281.45 15.1911 281.45 16.4611C281.45 18.7111 279.38 20.7211 277.52 20.7211C276.46 20.7211 275.59 20.1511 275.59 18.8911ZM279.74 16.7911C279.74 15.6811 279.44 15.2511 278.97 15.2511C277.97 15.2511 277.3 16.6011 277.3 18.5511C277.3 19.6711 277.59 20.0911 278.07 20.0911C279.07 20.0911 279.74 18.7411 279.74 16.7911Z" fill="white"/>
<path d="M285.74 20.1609C285.74 19.9809 285.75 19.6609 285.81 19.4409L286.53 16.6709C286.63 16.2909 286.53 16.0409 286.33 16.0409C286.03 16.0409 285.81 16.2809 284.29 18.1109L283.76 20.5909H282.11L283.07 15.9009C282.73 16.0309 282.42 16.2309 281.98 16.5609L281.77 16.3809C282.73 15.2409 283.66 14.6309 284.26 14.6309C284.65 14.6309 284.84 14.8109 284.84 15.1509C284.84 15.3409 284.78 15.7209 284.72 15.9909L284.44 17.3409C286.13 15.1509 286.63 14.6309 287.51 14.6309C288.03 14.6309 288.36 14.9709 288.36 15.4809C288.36 15.9009 288.3 16.2909 288.09 17.0809L287.38 19.7909C287.8 19.6409 288.06 19.5009 288.58 19.0609L288.81 19.2409C287.89 20.3009 287.21 20.7209 286.38 20.7209C285.99 20.7209 285.72 20.5109 285.72 20.1709L285.74 20.1609Z" fill="white"/>
<path d="M289.46 20.0615C289.46 19.8815 289.52 19.5515 289.56 19.2915L290.28 15.4115H289.47L289.59 15.0215C290.49 14.7115 291.38 14.0015 291.96 12.7715H292.59C292.4 13.3215 292.2 14.0915 292.08 14.7515H293.4L293.23 15.4115H291.94L291.13 19.7915C291.61 19.6415 291.97 19.4915 292.56 19.0415L292.75 19.2515C291.97 20.0915 290.98 20.7215 290.26 20.7215C289.72 20.7215 289.47 20.4515 289.45 20.0615H289.46Z" fill="white"/>
<path d="M296 20.0309L296.52 17.7109H296.85C297.03 19.5909 297.95 20.3309 299.66 20.3309C301.07 20.3309 301.82 19.6709 301.82 18.6609C301.82 17.9409 301.57 17.4709 299.9 16.3709C298.36 15.3509 297.64 14.4909 297.64 13.2409C297.64 11.6509 299.09 10.3809 300.94 10.3809C302.36 10.3809 302.84 10.7709 303.19 10.7709C303.43 10.7709 303.57 10.6709 303.64 10.3809H304.14L303.72 13.2709H303.41C303.08 11.7409 302.16 10.8409 300.91 10.8409C299.66 10.8409 299.16 11.5109 299.16 12.2409C299.16 12.9709 299.55 13.5009 301.06 14.4909C302.53 15.4509 303.35 16.3709 303.35 17.6709C303.35 19.6209 301.87 20.8009 299.66 20.8009C298.39 20.8009 297.14 20.5909 296.01 20.0309H296Z" fill="white"/>
<path d="M302.94 23.4513H302.98C303.61 23.4513 303.88 23.2713 304.06 22.3713L305.39 15.8913C305.05 16.0213 304.74 16.2213 304.3 16.5513L304.09 16.3713C305.05 15.2313 305.98 14.6213 306.58 14.6213C306.97 14.6213 307.16 14.8013 307.16 15.1413C307.16 15.3313 307.1 15.7113 307.04 15.9813L306.83 17.0313C308.37 14.9513 308.84 14.6113 309.45 14.6113C309.95 14.6113 310.59 15.0713 310.59 16.2913C310.59 18.8913 308.52 20.7113 307.08 20.7113C306.67 20.7113 306.42 20.6813 306.09 20.5613L305.71 22.3613C305.53 23.2613 305.81 23.4413 306.46 23.4413H306.79L306.75 23.7113H302.88L302.93 23.4413L302.94 23.4513ZM308.98 17.0013C308.98 16.5113 308.75 16.1813 308.44 16.1813C308.17 16.1813 307.78 16.4313 306.66 17.8313L306.35 19.4313C306.53 19.8913 306.83 20.1813 307.37 20.1813C308.25 20.1813 308.99 19.0613 308.99 17.0013H308.98Z" fill="white"/>
<path d="M314.58 14.6113C315.45 14.6113 315.96 14.9213 315.96 15.6013C315.96 16.5313 314.91 17.3013 312.6 17.9713V18.2013C312.6 19.4313 313.06 19.7613 313.71 19.7613C314.16 19.7613 314.67 19.6313 315.25 19.2213L315.49 19.4913C314.54 20.3713 313.68 20.7213 312.8 20.7213C311.75 20.7213 310.95 20.2913 310.95 19.0613C310.95 16.6713 312.95 14.6213 314.57 14.6213L314.58 14.6113ZM313.8 15.3913C313.11 15.3913 312.74 16.3413 312.63 17.5413C313.89 17.0913 314.32 16.5813 314.32 16.0613C314.32 15.6113 314.19 15.4013 313.8 15.4013V15.3913Z" fill="white"/>
<path d="M316.06 19.1113C316.06 16.8713 318.07 14.6113 319.84 14.6113C320.59 14.6113 320.96 14.9513 320.96 15.4313C320.96 15.8713 320.66 16.2313 320.21 16.2313C319.58 16.2313 319.38 15.5113 318.8 15.5113C318.19 15.5113 317.69 16.8213 317.69 18.4313C317.69 19.4313 318.08 19.7513 318.65 19.7513C319.09 19.7513 319.47 19.5913 320.05 19.1713L320.29 19.4313C319.42 20.3913 318.66 20.7213 317.8 20.7213C316.68 20.7213 316.06 20.1813 316.06 19.1213V19.1113Z" fill="white"/>
<path d="M321.43 20.1605C321.43 19.9805 321.46 19.7005 321.5 19.4405L322.23 15.8905C321.89 16.0205 321.59 16.2205 321.14 16.5505L320.93 16.3705C321.89 15.2305 322.82 14.6205 323.42 14.6205C323.81 14.6205 324 14.8005 324 15.1405C324 15.3305 323.94 15.7105 323.88 15.9805L323.09 19.7905C323.51 19.6405 323.77 19.5005 324.29 19.0605L324.52 19.2405C323.6 20.3005 322.92 20.7205 322.1 20.7205C321.7 20.7205 321.43 20.5105 321.43 20.1705V20.1605ZM322.67 12.5605C322.67 11.7505 323.23 11.2305 323.75 11.2305C324.21 11.2305 324.65 11.6505 324.65 12.3305C324.65 13.1205 324.1 13.6605 323.56 13.6605C323.09 13.6605 322.67 13.2405 322.67 12.5605Z" fill="white"/>
<path d="M332.11 20.1609C332.11 19.9809 332.13 19.6609 332.19 19.4409L332.91 16.6709C333.01 16.2909 332.91 16.0409 332.72 16.0409C332.42 16.0409 332.12 16.2209 330.74 18.1109L330.22 20.5909H328.55L329.38 16.6709C329.45 16.2909 329.39 16.0409 329.18 16.0409C328.9 16.0409 328.73 16.2109 327.29 18.1109L326.76 20.5909H325.11L326.07 15.9009C325.73 16.0309 325.42 16.2309 324.98 16.5609L324.77 16.3809C325.73 15.2409 326.66 14.6309 327.26 14.6309C327.65 14.6309 327.84 14.8109 327.84 15.1509C327.84 15.3409 327.78 15.7209 327.72 15.9909L327.45 17.3009C329.05 15.0209 329.44 14.6309 330.36 14.6309C330.9 14.6309 331.23 14.9709 331.23 15.4809C331.23 15.6709 331.2 15.9209 331.08 16.5209L330.92 17.3009C332.43 15.0909 332.94 14.6309 333.9 14.6309C334.42 14.6309 334.75 14.9709 334.75 15.4809C334.75 15.9009 334.69 16.2909 334.48 17.0809L333.77 19.7909C334.19 19.6409 334.44 19.5009 334.97 19.0609L335.2 19.2409C334.28 20.3009 333.6 20.7209 332.77 20.7209C332.38 20.7209 332.11 20.5109 332.11 20.1709V20.1609Z" fill="white"/>
<path d="M339.17 14.6113C340.04 14.6113 340.55 14.9213 340.55 15.6013C340.55 16.5313 339.5 17.3013 337.19 17.9713V18.2013C337.19 19.4313 337.65 19.7613 338.3 19.7613C338.75 19.7613 339.26 19.6313 339.84 19.2213L340.08 19.4913C339.13 20.3713 338.27 20.7213 337.39 20.7213C336.34 20.7213 335.54 20.2913 335.54 19.0613C335.54 16.6713 337.54 14.6213 339.16 14.6213L339.17 14.6113ZM338.39 15.3913C337.7 15.3913 337.33 16.3413 337.22 17.5413C338.48 17.0913 338.91 16.5813 338.91 16.0613C338.91 15.6113 338.78 15.4013 338.39 15.4013V15.3913Z" fill="white"/>
<path d="M344.69 20.1609C344.69 19.9809 344.7 19.6609 344.76 19.4409L345.48 16.6709C345.58 16.2909 345.48 16.0409 345.28 16.0409C344.98 16.0409 344.76 16.2809 343.24 18.1109L342.71 20.5909H341.06L342.02 15.9009C341.68 16.0309 341.37 16.2309 340.93 16.5609L340.72 16.3809C341.68 15.2409 342.61 14.6309 343.21 14.6309C343.6 14.6309 343.79 14.8109 343.79 15.1509C343.79 15.3409 343.73 15.7209 343.67 15.9909L343.39 17.3409C345.08 15.1509 345.58 14.6309 346.46 14.6309C346.98 14.6309 347.31 14.9709 347.31 15.4809C347.31 15.9009 347.25 16.2909 347.04 17.0809L346.33 19.7909C346.75 19.6409 347.01 19.5009 347.53 19.0609L347.76 19.2409C346.84 20.3009 346.16 20.7209 345.33 20.7209C344.94 20.7209 344.67 20.5109 344.67 20.1709L344.69 20.1609Z" fill="white"/>
<path d="M350.21 20.2801H350.33C351.31 20.2801 351.87 19.6001 352.21 18.3701L353.73 12.6901C354.04 11.5001 353.71 10.8801 352.67 10.8801H352.61L352.67 10.5801H355.97L357.81 18.3301L362.75 10.5801H365.93L365.87 10.8801H365.7C364.64 10.8801 364.35 11.2601 364.19 12.5501L363.42 18.6201C363.25 19.9801 363.66 20.2901 364.65 20.2901H364.71L364.65 20.5901H359.73L359.79 20.2901H359.96C361.02 20.2901 361.31 19.9101 361.47 18.6201L362.24 12.5501L357.07 20.5901H356.38L354.48 12.5501L352.9 18.4701C352.59 19.6501 352.92 20.2801 353.96 20.2801H354.02L353.96 20.5801H350.17L350.23 20.2801H350.21Z" fill="white"/>
<path d="M365.76 19.8313C365.76 19.5213 365.82 19.1713 365.91 18.7813L366.52 15.8813C366.18 16.0113 365.88 16.2113 365.43 16.5413L365.22 16.3613C366.18 15.2213 367.11 14.6113 367.71 14.6113C368.1 14.6113 368.29 14.7913 368.29 15.1313C368.29 15.3213 368.23 15.7013 368.17 15.9713L367.6 18.6313C367.53 18.9913 367.58 19.2613 367.8 19.2613C368.05 19.2613 368.17 19.1413 369.78 17.1813L370.28 14.7513H371.95L370.93 19.7913C371.35 19.6413 371.59 19.5013 372.13 19.0613L372.36 19.2413C371.43 20.3013 370.76 20.7213 369.93 20.7213C369.54 20.7213 369.25 20.5113 369.25 20.1713C369.25 19.9913 369.3 19.7113 369.34 19.4513L369.62 17.9713C367.93 20.1613 367.51 20.7013 366.62 20.7013C366.1 20.7013 365.77 20.3413 365.77 19.8513L365.76 19.8313Z" fill="white"/>
<path d="M372.48 19.9211C372.48 19.5311 372.74 19.2211 373.23 19.2211C373.89 19.2211 374.18 20.0311 374.87 20.0311C375.27 20.0311 375.45 19.8611 375.45 19.5511C375.45 19.3311 375.28 19.0911 374.49 18.4011C373.75 17.7511 373.49 17.3411 373.49 16.6011C373.49 15.6111 374.49 14.6211 375.72 14.6211C376.59 14.6211 377.19 15.0111 377.19 15.5011C377.19 15.9511 376.94 16.1911 376.54 16.1911C375.91 16.1911 375.77 15.3111 375.04 15.3111C374.71 15.3111 374.56 15.5011 374.56 15.7711C374.56 16.0611 374.76 16.2511 375.3 16.7511C376.21 17.5911 376.51 18.0111 376.51 18.7611C376.51 19.9611 375.49 20.7211 374.09 20.7211C373.21 20.7211 372.47 20.4511 372.47 19.9311L372.48 19.9211Z" fill="white"/>
<path d="M377.79 20.1605C377.79 19.9805 377.82 19.7005 377.86 19.4405L378.59 15.8905C378.25 16.0205 377.94 16.2205 377.5 16.5505L377.29 16.3705C378.25 15.2305 379.18 14.6205 379.78 14.6205C380.17 14.6205 380.36 14.8005 380.36 15.1405C380.36 15.3305 380.3 15.7105 380.24 15.9805L379.45 19.7905C379.87 19.6405 380.13 19.5005 380.65 19.0605L380.88 19.2405C379.96 20.3005 379.28 20.7205 378.46 20.7205C378.06 20.7205 377.79 20.5105 377.79 20.1705V20.1605ZM379.03 12.5605C379.03 11.7505 379.59 11.2305 380.11 11.2305C380.57 11.2305 381.01 11.6505 381.01 12.3305C381.01 13.1205 380.46 13.6605 379.92 13.6605C379.45 13.6605 379.03 13.2405 379.03 12.5605Z" fill="white"/>
<path d="M381.17 19.1113C381.17 16.8713 383.18 14.6113 384.95 14.6113C385.7 14.6113 386.07 14.9513 386.07 15.4313C386.07 15.8713 385.77 16.2313 385.32 16.2313C384.69 16.2313 384.49 15.5113 383.91 15.5113C383.3 15.5113 382.8 16.8213 382.8 18.4313C382.8 19.4313 383.19 19.7513 383.76 19.7513C384.2 19.7513 384.58 19.5913 385.16 19.1713L385.4 19.4313C384.53 20.3913 383.77 20.7213 382.91 20.7213C381.79 20.7213 381.17 20.1813 381.17 19.1213V19.1113Z" fill="white"/>
<path d="M391.77 12.8001C391.49 11.3401 391.06 10.8801 390.18 10.8801H390.12L390.18 10.5801H394.96L394.9 10.8801H394.63C394 10.8801 393.67 11.1801 393.87 12.3001L395.02 19.0201L398.46 12.9901C398.85 12.3201 399 11.8701 399 11.4901C399 11.1101 398.69 10.8801 398.22 10.8801H398L398.06 10.5801H401.47L401.41 10.8801H401.26C400.57 10.9401 400.11 11.4201 399.3 12.8001L394.74 20.6001H393.28L391.78 12.8001H391.77Z" fill="white"/>
<path d="M400 20.1605C400 19.9805 400.03 19.7005 400.07 19.4405L400.8 15.8905C400.46 16.0205 400.16 16.2205 399.71 16.5505L399.5 16.3705C400.46 15.2305 401.39 14.6205 401.99 14.6205C402.38 14.6205 402.57 14.8005 402.57 15.1405C402.57 15.3305 402.51 15.7105 402.45 15.9805L401.66 19.7905C402.08 19.6405 402.34 19.5005 402.86 19.0605L403.09 19.2405C402.17 20.3005 401.49 20.7205 400.67 20.7205C400.27 20.7205 400 20.5105 400 20.1705V20.1605ZM401.24 12.5605C401.24 11.7505 401.8 11.2305 402.32 11.2305C402.78 11.2305 403.22 11.6505 403.22 12.3305C403.22 13.1205 402.67 13.6605 402.13 13.6605C401.66 13.6605 401.24 13.2405 401.24 12.5605Z" fill="white"/>
<path d="M403.42 19.0411C403.42 16.4611 405.49 14.6211 406.93 14.6211C407.33 14.6211 407.59 14.6611 407.92 14.7711L408.58 11.5611C408.14 11.6411 407.81 11.7311 407.31 11.9111L407.18 11.6711C408.51 10.8611 409.14 10.6211 409.7 10.6211C410.09 10.6211 410.28 10.8511 410.28 11.1911C410.28 11.3911 410.22 11.7511 410.16 12.0311L408.57 19.8011C408.98 19.6511 409.23 19.5111 409.77 19.0711L409.98 19.2511C409.06 20.3111 408.38 20.7311 407.56 20.7311C407.17 20.7311 406.89 20.5211 406.89 20.1811C406.89 20.0011 406.93 19.7211 406.98 19.4611L407.19 18.3211C405.65 20.4011 405.18 20.7311 404.57 20.7311C404.07 20.7311 403.43 20.2811 403.43 19.0511L403.42 19.0411ZM407.36 17.5111L407.67 15.9111C407.49 15.4611 407.19 15.1611 406.65 15.1611C405.78 15.1611 405.03 16.3011 405.03 18.3411C405.03 18.8511 405.26 19.1711 405.57 19.1711C405.84 19.1711 406.23 18.9111 407.36 17.5211V17.5111Z" fill="white"/>
<path d="M413.89 14.6113C414.76 14.6113 415.27 14.9213 415.27 15.6013C415.27 16.5313 414.22 17.3013 411.91 17.9713V18.2013C411.91 19.4313 412.37 19.7613 413.02 19.7613C413.47 19.7613 413.98 19.6313 414.56 19.2213L414.8 19.4913C413.85 20.3713 412.99 20.7213 412.11 20.7213C411.06 20.7213 410.26 20.2913 410.26 19.0613C410.26 16.6713 412.26 14.6213 413.88 14.6213L413.89 14.6113ZM413.11 15.3913C412.42 15.3913 412.05 16.3413 411.94 17.5413C413.2 17.0913 413.63 16.5813 413.63 16.0613C413.63 15.6113 413.5 15.4013 413.11 15.4013V15.3913Z" fill="white"/>
<path d="M415.39 18.8911C415.39 16.6211 417.47 14.6211 419.33 14.6211C420.38 14.6211 421.25 15.1911 421.25 16.4611C421.25 18.7111 419.18 20.7211 417.32 20.7211C416.26 20.7211 415.39 20.1511 415.39 18.8911ZM419.54 16.7911C419.54 15.6811 419.24 15.2511 418.77 15.2511C417.77 15.2511 417.1 16.6011 417.1 18.5511C417.1 19.6711 417.39 20.0911 417.87 20.0911C418.87 20.0911 419.54 18.7411 419.54 16.7911Z" fill="white"/>
<path d="M132.83 15.3107C132.83 12.1007 134.87 9.9707 137.99 9.9707C141.11 9.9707 143.03 11.7807 143.03 15.0107C143.03 18.2407 140.97 20.4107 137.87 20.4107C134.77 20.4107 132.83 18.5307 132.83 15.3107V15.3107ZM140.25 15.2107C140.25 13.1507 139.48 12.1107 137.91 12.1107C136.48 12.1107 135.61 13.2407 135.61 15.1507C135.61 17.1507 136.42 18.2507 137.91 18.2507C139.4 18.2507 140.25 17.2007 140.25 15.2107V15.2107Z" fill="white"/>
<path d="M152.23 7.02992C152.23 6.11992 152.92 5.41992 153.9 5.41992C154.88 5.41992 155.55 6.10992 155.55 7.02992C155.55 7.94992 154.88 8.61992 153.9 8.61992C152.92 8.61992 152.23 7.92992 152.23 7.02992V7.02992ZM152.55 10.1099H155.23V20.2499H152.55V10.1099Z" fill="white"/>
<path d="M175.99 10.1094H178.89L180.62 17.5094L182.84 10.1094H184.96L187.08 17.5294L188.96 10.1094H191.7L188.51 20.2494H185.73L183.81 13.5194L181.75 20.2494H178.89L175.99 10.1094Z" fill="white"/>
<path d="M161.72 14.1792C160.73 13.8392 159.87 13.5492 159.87 12.8492C159.87 12.2492 160.35 11.8992 161.32 11.8992C162.21 11.8992 163.52 12.2192 164.28 12.6292V10.3592C163.4 10.0892 162.61 9.94922 161.3 9.94922C158.86 9.94922 157.23 11.0392 157.23 13.0792C157.23 15.1192 158.86 15.6192 160.27 16.0992C161.34 16.4792 162.15 16.7892 162.15 17.5492C162.15 18.1792 161.65 18.5392 160.68 18.5392C159.49 18.5392 158.4 18.1792 157.41 17.6892V19.9492C158.36 20.2792 159.31 20.4192 160.49 20.4192C163.17 20.4192 164.86 19.2692 164.86 17.2292C164.86 15.1892 163.13 14.6692 161.72 14.1692V14.1792Z" fill="white"/>
<path d="M175.1 20.2497V14.1597C175.1 11.2397 173.75 9.92969 170.72 9.92969C169.49 9.92969 168.16 10.2097 167.01 10.7097V12.8797C167.94 12.3397 169.15 11.9897 170.09 11.9897C171.7 11.9897 172.45 12.5897 172.47 13.8697C170.68 13.9497 169.2 14.1897 168.12 14.5797C166.63 15.1397 166.04 15.9497 166.04 17.4597C166.04 19.3297 167.27 20.4197 169.31 20.4197C170.68 20.4197 171.67 19.9597 172.52 18.9297V20.2397H175.1V20.2497ZM172.46 17.2097C171.85 17.9997 170.99 18.4597 170.08 18.4597C169.17 18.4597 168.73 18.0397 168.73 17.2297C168.73 16.4197 169.07 16.0597 169.98 15.8397C170.69 15.6597 171.65 15.5397 172.46 15.5197V17.2097Z" fill="white"/>
<path d="M200.89 20.2497V14.1597C200.89 11.2397 199.54 9.92969 196.51 9.92969C195.28 9.92969 193.95 10.2097 192.8 10.7097V12.8797C193.73 12.3397 194.94 11.9897 195.88 11.9897C197.49 11.9897 198.24 12.5897 198.26 13.8697C196.47 13.9497 194.99 14.1897 193.91 14.5797C192.42 15.1397 191.83 15.9497 191.83 17.4597C191.83 19.3297 193.06 20.4197 195.1 20.4197C196.47 20.4197 197.46 19.9597 198.31 18.9297V20.2397H200.89V20.2497ZM198.25 17.2097C197.64 17.9997 196.78 18.4597 195.87 18.4597C194.96 18.4597 194.52 18.0397 194.52 17.2297C194.52 16.4197 194.86 16.0597 195.77 15.8397C196.48 15.6597 197.44 15.5397 198.25 15.5197V17.2097Z" fill="white"/>
<path d="M150.48 9.9707C148.87 9.9707 147.86 10.7007 147.05 12.1107V10.1107H144.49V20.2507H147.17V14.1607C147.71 13.2507 148.44 12.5907 150.07 12.5907C150.31 12.5907 150.56 12.6107 150.85 12.6407V9.9907C150.72 9.9807 150.59 9.9707 150.49 9.9707H150.48Z" fill="white"/>
<path d="M116.31 6.56055H120.32L123.12 14.8305C123.36 15.5605 123.56 16.2605 123.77 17.1905C124.01 16.2805 124.19 15.6205 124.44 14.8305L127.24 6.56055H131.13V20.2505H128.43L128.53 11.7005C128.55 10.9705 128.57 10.2305 128.59 9.46055H128.53C128.41 10.0005 128.23 10.5905 128.07 11.1305L124.94 20.2605H122.44L119.29 11.1305C119.09 10.5005 118.91 9.90055 118.79 9.42055H118.75C118.77 10.1305 118.79 11.0705 118.79 11.7005L118.91 20.2505H116.31V6.56055Z" fill="white"/>
<path d="M216.97 15.3107C216.97 12.1007 219.01 9.9707 222.13 9.9707C225.25 9.9707 227.17 11.7807 227.17 15.0107C227.17 18.2407 225.11 20.4107 222.01 20.4107C218.91 20.4107 216.97 18.5307 216.97 15.3107V15.3107ZM224.39 15.2107C224.39 13.1507 223.62 12.1107 222.05 12.1107C220.62 12.1107 219.75 13.2407 219.75 15.1507C219.75 17.1507 220.56 18.2507 222.05 18.2507C223.54 18.2507 224.39 17.2007 224.39 15.2107V15.2107Z" fill="white"/>
<path d="M251.46 14.1812C250.47 13.8412 249.61 13.5512 249.61 12.8512C249.61 12.2512 250.09 11.9012 251.06 11.9012C251.95 11.9012 253.26 12.2212 254.02 12.6312V10.3612C253.14 10.0912 252.35 9.95117 251.04 9.95117C248.6 9.95117 246.97 11.0412 246.97 13.0812C246.97 15.1212 248.6 15.6212 250.01 16.1012C251.08 16.4812 251.89 16.7912 251.89 17.5512C251.89 18.1812 251.39 18.5412 250.42 18.5412C249.23 18.5412 248.14 18.1812 247.15 17.6912V19.9512C248.1 20.2812 249.05 20.4212 250.23 20.4212C252.91 20.4212 254.6 19.2712 254.6 17.2312C254.6 15.1912 252.87 14.6712 251.46 14.1712V14.1812Z" fill="white"/>
<path d="M243.15 7.41992V10.0799H245.91V12.1999H243.15V16.4699C243.15 17.7599 243.53 18.1999 244.64 18.1999C244.96 18.1999 245.35 18.1599 245.81 18.0599V20.1699C245.06 20.2999 244.39 20.3799 243.79 20.3799C241.47 20.3799 240.48 19.3899 240.48 17.0699V12.2099H238.79V10.0899H240.58V7.42992H243.16L243.15 7.41992Z" fill="white"/>
<path d="M228.55 10.1107V20.2507H231.27V13.4607C231.69 12.7107 232.46 12.2507 233.35 12.2507C234.64 12.2507 235.18 12.9607 235.18 14.6707V20.2507H237.86V13.7207C237.86 11.2007 236.73 9.9707 234.37 9.9707C233.12 9.9707 231.93 10.5507 231.18 11.6007V10.1107H228.56H228.55Z" fill="white"/>
<path d="M208.71 6.56055H217.26V8.82055H211.53V12.5505H215.69V14.7905H211.53V20.2505H208.71V6.56055V6.56055Z" fill="white"/>
<path d="M12.16 10.9803C11.87 10.1703 12.26 10.1703 12.49 9.53031C12.49 9.53031 12.49 9.53031 12.49 9.52031L13.86 5.57031H9.95L8.86 9.33031C8.83 9.49031 8.8 9.65031 8.78 9.81031C8.59 11.1303 10.42 11.9603 9.38 13.1303C8.64 13.9903 7.54 14.4803 7.07 15.5503C6.99 15.8403 6.94 16.0003 6.94 16.0003C6.94 16.0003 6.89 15.8403 6.81 15.5503C6.77 15.4103 6.72 15.2303 6.7 15.0403C6.68 14.7903 6.55 14.5403 7.1 14.2603C8.83 13.2103 7.25 11.8203 5.81 10.7903C4.37 9.64031 3.9 5.58031 3.9 5.58031H0C0 5.58031 0.58 7.28031 1.35 9.53031C1.4 9.68031 1.45 9.83031 1.53 9.99031C2.07 11.1103 3.29 11.4203 4.22 12.2203C4.4 12.4003 4.59 12.4803 4.47 12.9003C4.16 13.8803 3.12 14.7403 3.52 15.8403C3.57 15.9903 3.63 16.1503 3.68 16.3003C4.45 18.5503 5.03 20.2503 5.03 20.2503H8.77C8.77 20.2503 9.54 18.0603 10.46 15.3703C10.84 14.2703 13.21 13.9003 12.16 10.9803" fill="white"/>
<path d="M23.1 15.8401C22.87 15.3601 23.05 14.8601 23.36 14.4301C23.91 13.8201 25.2 13.0201 24.1 12.2801C22.99 11.5401 21.7 11.1701 20.97 9.99008C20.89 9.84008 20.84 9.68008 20.78 9.53008C19.95 7.28008 19.32 5.58008 19.32 5.58008H15.5C15.5 5.58008 14.87 7.28008 14.03 9.53008C13.97 9.68008 13.92 9.83008 13.89 9.99008C13.56 10.8801 14.26 11.5701 14.55 12.3601C14.66 12.6801 14.57 13.0301 14.33 13.2601C13.41 14.1301 12.18 14.6801 11.7 15.8401C11.64 15.9901 11.59 16.1501 11.53 16.3001C10.7 18.5501 10.06 20.2501 10.06 20.2501H13.97L14.7 17.9001H20.1L20.83 20.2501H24.74C24.74 20.2501 24.11 18.5501 23.28 16.3001C23.22 16.1501 23.17 16.0001 23.11 15.8401M19.74 14.2101C19.59 14.3701 19.5 14.5601 19.46 14.7801C19.42 15.0201 19.22 15.2001 18.97 15.2401C17.86 15.3801 16.72 15.2401 15.62 15.2401C16.36 14.3201 17.46 13.9501 18.33 13.0901C18.5 12.9201 18.55 12.7101 18.53 12.4901C18.53 12.4401 18.51 12.3901 18.48 12.3501C18.02 11.4601 16.86 10.8501 17.18 9.73008C17.29 9.33008 17.36 9.09008 17.36 9.09008C17.36 9.09008 17.44 9.34008 17.56 9.73008C17.65 10.0801 17.84 10.3301 18.09 10.6401C18.89 11.5601 20.3 11.8101 20.61 12.9101C20.77 13.4401 20.16 13.7801 19.75 14.2201" fill="white"/>
<path d="M37.66 11.3603C37.17 10.9303 36.68 10.3803 36.71 9.67031V5.58031H33.03V9.52031C33.03 9.61031 33.03 9.70031 33.05 9.79031C33.07 9.91031 33.08 10.0303 33.11 10.1403C33.39 11.4003 34.4 11.6703 35.08 12.4603C35.22 12.6203 35.31 12.7703 35.14 12.8903C33.16 14.3403 33.01 15.9303 32.82 16.3203C32.7 16.5603 32.56 16.8003 32.33 17.0003C31.81 17.4603 31.21 17.5403 30.52 17.5403C30.27 17.5403 29.29 17.5403 28.57 16.9803C28.38 16.8303 28.24 16.6703 28.13 16.4803C28.03 16.2903 27.94 16.0703 27.93 15.7803C27.92 14.6503 28.92 14.3003 29.66 13.7503C30.09 13.4403 30.97 13.1103 30.52 12.5203C29.23 10.8403 27.88 11.4203 27.88 9.65031C27.88 9.49031 27.88 9.33031 27.88 9.17031V5.57031H24.18V9.66031C24.19 11.1003 25.73 11.5303 26.53 12.4503C26.65 12.6303 26.65 12.8203 26.53 13.0003C25.73 13.9203 24.13 14.4803 24.29 15.9103C24.31 16.0803 24.34 16.2603 24.38 16.4303C24.57 17.2903 24.93 18.0903 25.64 18.8003C27.3 20.4603 29.75 20.5703 30.4 20.5703C31.23 20.5703 35.1 20.3403 36.32 16.9103C36.38 16.7403 36.42 16.5703 36.47 16.4003C36.82 15.2503 39.07 13.8903 39.07 12.7003C39.07 11.8403 38.21 11.7803 37.66 11.3503" fill="white"/>
<path d="M52.98 12.9001C53.09 12.6501 52.92 12.4101 52.73 12.2201C52.07 11.6201 51.27 11.1101 50.89 10.3001C50.81 10.1301 50.77 9.94008 50.76 9.75008C50.76 9.68008 50.76 9.61008 50.76 9.53008V5.58008H47.25C47.25 5.58008 47.28 7.27008 47.31 9.20008C47.31 9.36008 47.31 9.52008 47.31 9.69008C47.31 11.3501 49.59 11.4201 49.65 12.7701C49.71 13.6901 48.3 14.0001 47.74 14.8001C47.86 14.0001 49.15 13.5701 48.72 12.8901C47.74 11.2901 45.4 11.4101 44.45 9.75008C44.36 9.61008 44.28 9.46008 44.2 9.32008C43.05 7.34008 42.02 5.58008 42.02 5.58008H38.43V9.53008C38.43 9.63008 38.43 9.73008 38.43 9.84008C38.43 9.94008 38.45 10.0401 38.48 10.1301C38.91 11.3701 40.84 11.5901 40.67 12.8901C40.55 14.0601 38.46 14.3701 38.43 15.8301V20.2401H41.96C41.96 20.2401 41.93 18.2801 41.9 16.1901C41.9 16.0301 41.9 15.8701 41.91 15.7001C42.01 14.4201 43.98 14.2601 43.98 12.8901C43.98 12.3501 43.06 11.7201 42.5 11.1701C43.3 11.9101 45.33 12.0301 45.02 13.2601C44.84 14.0601 43.97 14.8001 44.48 15.7001C44.56 15.8401 44.64 15.9801 44.72 16.1201C45.96 18.2401 47.13 20.2301 47.13 20.2301H50.72V15.8201C50.72 14.4101 52.43 14.0601 52.94 12.8801" fill="white"/>
<path d="M64.91 9.65008C64.84 9.50008 64.79 9.35008 64.72 9.22008C64.59 8.95008 64.46 8.72008 64.33 8.51008C63.87 7.78008 63.44 7.39008 63.17 7.18008C61.38 5.71008 58.93 5.64008 58.31 5.60008C57.87 5.58008 57.44 5.58008 56.98 5.58008H52.31V9.53008C52.31 9.68008 52.31 9.83008 52.34 9.99008C52.59 11.1101 53.69 11.4801 54.37 12.2801C55.29 13.2601 53.45 13.8801 52.83 14.5501C52.52 14.9201 52.34 15.3501 52.31 15.8301V20.2401H58.06C58.89 20.2401 59.6 20.2001 60.41 20.0101C62.2 19.5901 63.28 18.6401 63.75 18.1001C64.14 17.6401 64.57 17.0001 64.89 16.1301C64.95 15.9601 65.02 15.7701 65.1 15.5801C65.55 14.3001 66.97 13.9901 67.83 13.0101C67.93 12.8801 67.93 12.7001 67.83 12.5801C66.93 11.5001 65.61 11.2001 64.92 9.64008M60.94 16.0001C60.77 16.2001 60.6 16.3801 60.41 16.5201C59.45 17.2301 58.21 17.2901 57.13 17.2901H56.01V16.2701C56.01 16.0601 56.04 15.8301 56.04 15.5801C56.04 14.2501 57.76 13.9701 58.33 12.9601C58.45 12.7601 58.41 12.5001 58.24 12.3301C57.38 11.5301 56.01 11.0201 56.01 9.68008V8.66008H57.48C58.19 8.66008 58.81 8.64008 59.5 8.87008C59.89 8.99008 60.2 9.18008 60.43 9.37008C60.66 9.56008 61.2 10.1701 61.34 10.3301C62.14 11.2501 63.89 11.6401 63.89 12.8301C63.89 14.1401 61.78 15.0001 60.93 16.0001" fill="white"/>
<path d="M75.09 9.86031C75.18 9.72031 78.16 5.58031 78.16 5.58031H73.98C73.98 5.58031 72.44 8.01031 71.52 9.47031C71.41 9.64031 71.31 9.80031 71.24 9.94031C71.21 10.0003 71.18 10.0603 71.16 10.1203C71.07 10.3803 71.04 10.5403 71.04 10.5403C71.04 10.5403 70.82 10.3403 70.55 10.0203C70.42 9.86031 70.29 9.67031 70.16 9.46031C69.23 8.00031 67.68 5.57031 67.68 5.57031H63.48C63.48 5.57031 64.86 7.53031 66.23 9.49031C66.33 9.63031 66.43 9.77031 66.54 9.91031C67.66 11.1703 69.32 11.6003 70.73 12.4603C71.04 12.6403 71.28 13.0703 71.04 13.3803C70.3 14.1203 68.99 14.4303 68.99 15.8103C68.99 15.9703 68.99 16.1403 68.99 16.3103V20.2403H72.61V15.9103C72.65 14.6103 73.88 13.9903 74.76 13.3003C74.76 13.3003 75.03 13.1403 75.35 12.8703C76.13 12.2303 74.93 11.5903 74.8 10.8603C74.74 10.4903 74.86 10.1203 75.09 9.85031" fill="white"/>
<path d="M109.605 0.00509381L84.1495 25.4609L84.8566 26.168L110.312 0.712201L109.605 0.00509381Z" fill="white"/>
<path d="M84.8566 0.00578386L84.1495 0.712891L109.605 26.1687L110.312 25.4616L84.8566 0.00578386Z" fill="white"/>
</svg>
