<svg width="141" height="33" viewBox="0 0 141 33" fill="none" xmlns="http://www.w3.org/2000/svg">
<path d="M0.140015 4.17C0.140015 1.65 1.52001 0 3.10001 0C4.68001 0 6.05001 1.61 6.05001 4.12C6.05001 6.63 4.67001 8.28 3.08001 8.28C1.49001 8.28 0.140015 6.69 0.140015 4.17ZM4.84001 4.17C4.84001 1.84 4.34001 0.270004 3.08001 0.270004C1.82001 0.270004 1.35001 1.79 1.35001 4.12C1.35001 6.45 1.87001 8.00999 3.10001 8.00999C4.33001 8.00999 4.84001 6.5 4.84001 4.17Z" fill="white"/>
<path d="M8.16007 7.98085H8.35007C9.02007 7.98085 9.29007 7.81085 9.29007 6.95085V1.42085C8.87007 1.68085 8.46007 1.86085 8.01007 2.00085L7.95007 1.86086C8.72007 1.49086 9.46007 0.790859 9.83007 0.130859H10.3501V7.03085C10.3501 7.80085 10.6101 7.99086 11.2501 7.99086H11.3901V8.18085H8.16007V7.99086V7.98085Z" fill="white"/>
<path d="M18.14 13.14C18.14 5.37 24.19 0 32.29 0C35.96 0 38.12 1.3 39.34 1.3C39.95 1.3 40.24 1.23 40.53 1.16H40.75L41.36 7.89H40.82C39.38 3.21 36.36 0.979996 31.75 0.979996C25.27 0.979996 21.85 5.95 21.85 12.03C21.85 19.34 25.74 24.16 31.89 24.16C36.43 24.16 39.49 21.75 41.75 17.18H42.43L40.16 23.95H39.94C39.65 23.84 39.22 23.81 38.93 23.81C37.31 23.81 35.19 25.03 31.44 25.03C23.99 25.03 18.12 20.64 18.12 13.15L18.14 13.14Z" fill="white"/>
<path d="M45.8 17.8898C45.65 13.6998 49.27 10.1498 53.47 10.1098C57.67 10.0698 61.21 12.7798 61.38 17.0198C61.55 21.2598 58.02 24.7298 53.8 24.8298C49.58 24.9298 45.96 22.1898 45.81 17.8898H45.8ZM58.18 18.0698C58.18 13.8898 56.38 10.8298 53.18 10.8298C50.52 10.8298 49.01 13.2098 49.01 16.8798C49.01 21.0198 50.81 24.1498 54.01 24.1498C56.57 24.1498 58.19 21.6998 58.19 18.0698H58.18Z" fill="white"/>
<path d="M82.4 17.7394C82.4 13.5694 85.28 10.1094 89.71 10.1094C92.41 10.1094 94.39 11.1194 94.39 12.3794C94.39 13.1694 93.85 13.7794 92.91 13.7794C92.08 13.7794 91.54 13.0994 91.04 12.4094C90.28 11.3694 89.89 10.9294 89.02 10.9294C86.36 10.9294 85.13 13.6994 85.13 16.8294C85.13 20.7194 87.58 23.1594 90.21 23.1594C91.69 23.1594 93.02 22.7994 94.38 21.6794L94.81 22.1794C93.15 23.8694 91.46 24.8094 89.09 24.8094C85.2 24.8094 82.39 22.1094 82.39 17.7194L82.4 17.7394Z" fill="white"/>
<path d="M132.7 20.9494V12.4095C132.7 12.0095 132.47 11.7294 132.1 11.7294H130.54V11.2594C133.42 10.5394 134.43 8.84945 134.86 6.43945H135.72V9.78944C135.72 10.1994 135.98 10.4294 136.4 10.4294H140.65L140.07 11.7294H136.31C135.98 11.7294 135.71 11.9995 135.71 12.3295V21.0195C135.71 22.8495 136.65 23.3994 137.69 23.3994C138.73 23.3994 139.56 22.9695 140.53 22.0695L140.75 22.3595C139.45 24.0895 138.19 24.8394 136.72 24.8394C134.24 24.8394 132.69 23.5094 132.69 20.9494H132.7Z" fill="white"/>
<path d="M100.52 15.9491H110.05V15.3691C109.65 15.1891 109.33 14.7591 109.19 14.3291C108.36 12.0991 106.85 10.1191 103.83 10.1191C100.81 10.1191 97.17 12.9591 97.17 17.7491C97.17 21.9591 99.73 24.8391 103.83 24.8391C106.46 24.8391 108.08 23.9391 110.02 21.9991L109.62 21.5291C108.14 22.6791 106.99 23.1891 105.23 23.1891C101.92 23.1891 99.9 20.3491 99.9 16.7791C99.9 16.7391 99.9 16.7091 99.9 16.6691C99.91 16.2091 100.03 15.9591 100.52 15.9491V15.9491ZM103.39 10.9491C105.03 10.9491 105.96 12.4291 106.36 14.6391C106.41 14.9491 106.19 15.1691 105.91 15.1691H100.58C100.29 15.1691 100.07 14.9792 100.13 14.6292C100.62 12.0892 101.97 10.9592 103.38 10.9592L103.39 10.9491Z" fill="white"/>
<path d="M80.75 23.9706C79.17 23.9706 78.63 23.7206 78.66 21.7006C78.7 20.2606 78.73 16.7706 78.73 14.7506C78.73 11.4406 77.11 10.1406 74.66 10.1406C73.07 10.1406 71.39 10.7406 68.97 12.4306C68.84 12.5206 68.65 12.4306 68.65 12.2706V10.1706H68.29L63.5 11.7506V12.0406L64.4 12.2206C65.37 12.5806 65.66 12.9006 65.66 14.1306V21.6906C65.66 23.6706 64.87 23.9606 63.54 23.9606H63.29V24.5006H70.99V23.9606H70.77C69.44 23.9606 68.65 23.6406 68.65 21.5806V14.2606C68.65 14.0606 68.69 13.8906 68.73 13.7406C68.74 13.7106 68.76 13.6806 68.77 13.6506C68.81 13.5506 68.86 13.4506 68.92 13.3706C68.94 13.3306 68.97 13.3006 69 13.2706C69.06 13.2006 69.13 13.1306 69.2 13.0706C69.23 13.0506 69.26 13.0206 69.29 13.0006C69.35 12.9606 69.4 12.9206 69.46 12.8806C70.82 12.0406 72.23 11.5406 73.16 11.5406C74.99 11.5406 75.75 12.5506 75.75 15.0006C75.75 16.7606 75.71 20.1506 75.68 21.7306C75.64 23.6006 74.96 23.9606 73.52 23.9606H73.27V24.5006H80.94V23.9606H80.76L80.75 23.9706Z" fill="white"/>
<path d="M122.47 10.1094C120.76 10.1094 119.61 10.6994 117.61 12.2394C117.52 12.3094 117.43 12.2594 117.43 12.1494V10.1794H117.07L112.32 11.7594V12.0494L113.18 12.2294C114.15 12.6294 114.44 12.8794 114.44 14.1394V29.4394C114.44 31.4594 113.68 31.7394 112.39 31.7394H112.17V32.2794H120.48V31.7394H119.8C118.22 31.7394 117.42 31.4494 117.42 29.4394V24.4194C117.42 24.3394 117.5 24.2794 117.57 24.3094C118.53 24.6294 119.57 24.7994 120.84 24.7994C124.69 24.7994 128.33 21.8494 128.33 16.6994C128.33 12.5994 125.45 10.1094 122.46 10.1094H122.47ZM121.28 24.0394C119.92 24.0394 118.87 23.6094 117.95 22.7994C117.62 22.5094 117.43 22.0894 117.43 21.6494V13.9594C117.43 13.2694 117.64 12.9994 118 12.7494C119.03 12.0294 119.84 11.8094 120.85 11.8094C123.59 11.8094 125.67 14.2894 125.67 18.2894C125.67 21.8194 123.87 24.0494 121.28 24.0494V24.0394Z" fill="white"/>
</svg>
