<svg width="105" height="33" viewBox="0 0 105 33" fill="none" xmlns="http://www.w3.org/2000/svg">
<path d="M18.1401 23.9478H18.5001C20.5501 23.9478 21.3101 23.4478 21.3101 20.8478V4.17781C21.3101 1.58781 20.5501 1.08781 18.5001 1.08781H18.1401V0.507812H28.2901V1.08781H27.5701C25.4101 1.08781 24.6501 1.58781 24.6501 4.17781V21.3878C24.6501 22.8278 25.3001 23.5478 26.9501 23.5478H30.4801C33.3201 23.5478 34.6601 22.3278 36.4201 19.3678L36.7401 18.7578H37.3501L35.1901 24.5178H18.1401V23.9378V23.9478Z" fill="white"/>
<path d="M38.9501 31.217C38.9501 30.497 39.4901 29.997 40.7801 29.707C42.1801 29.457 43.2601 28.917 43.8401 27.767L44.5601 26.207C44.9201 25.417 44.9301 24.507 44.5701 23.717L39.8101 13.157C39.1601 11.717 38.4801 10.997 37.2901 10.997H37.1501V10.457H45.0301V10.997H44.3101C43.1601 10.997 42.8001 11.357 42.7601 11.937C42.7601 12.227 42.8701 12.697 43.0501 13.157L46.3901 21.097C46.4601 21.257 46.6901 21.257 46.7601 21.097L49.9601 13.157C50.0701 12.837 50.1801 12.327 50.1801 12.037C50.1801 11.427 49.7101 10.997 48.5601 10.997H47.9101V10.457H53.8101V10.997H53.6701C52.4801 10.997 51.6501 11.607 50.9701 13.197L44.4201 28.497C43.3801 30.947 42.4001 32.457 40.6001 32.457C39.5901 32.457 38.9401 32.027 38.9401 31.237L38.9501 31.217Z" fill="white"/>
<path d="M55.5502 23.9763H55.8402C57.1402 23.9763 57.9302 23.6863 57.9302 21.6763V14.1562C57.9302 12.9362 57.6402 12.6063 56.6702 12.2463L55.7702 12.0663V11.7763L60.5602 10.1963H60.9202V13.6163C60.9202 13.7763 61.1402 13.8263 61.2102 13.6763C62.3702 11.1463 63.4902 10.1562 64.9202 10.1562C66.0002 10.1562 66.5402 10.3763 67.4002 10.8363L66.7502 13.0363C65.9202 12.5663 65.1702 12.2063 64.1902 12.2063C63.2702 12.2063 62.3002 12.7562 61.3902 14.1862C61.0802 14.6662 60.9202 15.2363 60.9202 15.8163V21.7163C60.9202 23.5163 61.5302 23.9863 63.0802 23.9863H63.8002V24.5263H55.5602V23.9863L55.5502 23.9763Z" fill="white"/>
<path d="M69.9102 23.9764H70.1602C71.5302 23.9764 72.3202 23.6864 72.3202 21.6764V14.1564C72.3202 12.9364 72.0302 12.6064 71.0602 12.2464L70.1602 12.0664V11.7764L74.9501 10.1964H75.3102V21.6764C75.3102 23.6964 76.1702 23.9764 77.4702 23.9764H77.6902V24.5164H69.9202V23.9764H69.9102ZM71.6702 4.85641C71.4602 3.61641 72.3902 2.56641 73.6202 2.56641C74.7702 2.56641 75.6402 3.42641 75.6402 4.50641C75.6402 5.58641 74.8102 6.4564 73.6802 6.4864C72.7202 6.5164 71.8302 5.80641 71.6702 4.85641Z" fill="white"/>
<path d="M79.5901 17.7472C79.5901 13.5772 82.4701 10.1172 86.9001 10.1172C89.6001 10.1172 91.5801 11.1272 91.5801 12.3872C91.5801 13.1772 91.0401 13.7872 90.1001 13.7872C89.2701 13.7872 88.7301 13.1072 88.2301 12.4172C87.4701 11.3772 87.0801 10.9372 86.2101 10.9372C83.5501 10.9372 82.3201 13.7072 82.3201 16.8372C82.3201 20.7272 84.7701 23.1672 87.4001 23.1672C88.8801 23.1672 90.2101 22.8072 91.5701 21.6872L92.0001 22.1872C90.3401 23.8772 88.6501 24.8172 86.2801 24.8172C82.3901 24.8172 79.5801 22.1172 79.5801 17.7272L79.5901 17.7472Z" fill="white"/>
<path d="M96.0502 24.4484C95.8702 24.4484 95.6202 24.4884 95.4402 24.5584H95.3302L94.9302 20.8884H95.4002C96.1602 22.8284 97.9202 24.0184 99.6502 24.0184C101.2 24.0184 102.13 23.2284 102.13 21.9284C102.13 20.7784 101.16 19.9084 98.9602 18.6484C96.1902 17.0684 95.0002 16.0584 95.0002 14.1084C95.0002 11.5184 97.3002 10.1484 99.8202 10.1484C101.3 10.1484 102.66 10.4684 103.42 10.7584L103.49 14.1384H103.06C102.59 12.2684 101.22 10.8984 99.4202 10.8984C97.9802 10.8984 97.1202 11.7284 97.1202 12.9484C97.1202 14.0684 97.9502 14.7484 100.4 16.0484C103.03 17.5284 104.25 18.6784 104.25 20.7684C104.25 23.2484 101.87 24.7984 99.3602 24.7984C97.9902 24.7984 96.8002 24.4384 96.0502 24.4384V24.4484Z" fill="white"/>
<path d="M0.140137 4.68562C0.140137 2.16562 1.52014 0.515625 3.10014 0.515625C4.68014 0.515625 6.05014 2.12564 6.05014 4.63564C6.05014 7.14564 4.67014 8.79562 3.08014 8.79562C1.49014 8.79562 0.140137 7.20562 0.140137 4.68562ZM4.84014 4.68562C4.84014 2.35562 4.34014 0.785629 3.08014 0.785629C1.82014 0.785629 1.35014 2.30564 1.35014 4.63564C1.35014 6.96564 1.87014 8.52563 3.10014 8.52563C4.33014 8.52563 4.84014 7.01562 4.84014 4.68562Z" fill="white"/>
<path d="M7.77002 7.80563C7.77002 7.52563 7.97002 7.31563 8.20002 7.31563C8.51002 7.31563 8.66002 7.47563 8.90002 7.83563C9.19002 8.27563 9.52002 8.51562 10.04 8.51562C11.06 8.51562 11.85 7.77564 11.85 6.35564C11.85 5.02564 11.18 4.42563 10.39 4.42563C10.08 4.42563 9.83002 4.52563 9.55002 4.70563L9.43002 4.53563C10.77 3.51563 11.11 2.99563 11.11 2.20563C11.11 1.55563 10.69 1.10564 10.07 1.10564C9.41002 1.10564 8.91002 1.52562 8.31002 2.43562L8.15002 2.33563C8.65002 1.23563 9.36002 0.515625 10.49 0.515625C11.46 0.515625 12.2 1.06563 12.2 1.89563C12.2 2.66563 11.74 3.22564 10.69 3.88564C11.91 3.81564 12.93 4.44563 12.93 5.81563C12.93 7.54563 11.29 8.80563 9.79002 8.80563C8.51002 8.80563 7.78002 8.36563 7.78002 7.80563H7.77002Z" fill="white"/>
</svg>
