<svg width="236" height="26" viewBox="0 0 236 26" fill="none" xmlns="http://www.w3.org/2000/svg">
<path d="M0.140015 4.95905C0.140015 2.43905 1.52001 0.789062 3.10001 0.789062C4.68001 0.789062 6.05001 2.39907 6.05001 4.91907C6.05001 7.43907 4.67001 9.07904 3.08001 9.07904C1.49001 9.07904 0.140015 7.47906 0.140015 4.96906V4.95905ZM4.84001 4.95905C4.84001 2.62905 4.34001 1.05905 3.08001 1.05905C1.82001 1.05905 1.35001 2.57906 1.35001 4.90906C1.35001 7.23906 1.87001 8.79904 3.10001 8.79904C4.33001 8.79904 4.84001 7.28905 4.84001 4.95905V4.95905Z" fill="white"/>
<path d="M11.47 6.71866H7.96997V6.48865L12.02 0.888672H12.52V6.23865H13.68V6.71866H12.52V8.99866H11.47V6.71866V6.71866ZM11.47 6.23865V2.18866L8.53997 6.23865H11.47Z" fill="white"/>
<path d="M118.76 25.22H118.9C119.94 25.22 120.39 24.64 120.48 23.33L120.97 15.43C121.04 14.21 120.65 13.79 119.58 13.79H119.36V13.5H122.57L127.02 23.27C127.06 23.36 127.2 23.36 127.24 23.27L131.65 13.5H134.68V13.79H134.46C133.36 13.79 133.02 14.04 133.09 15.34L133.61 23.68C133.7 24.98 134.08 25.23 135.1 25.23H135.3V25.52H130.31V25.23H130.54C131.62 25.23 132 24.98 131.91 23.68L131.44 15.98C131.44 15.82 131.22 15.78 131.15 15.93L126.75 25.54H126.19L121.74 16.07C121.67 15.93 121.46 15.97 121.45 16.13L121.03 23.35C120.96 24.72 121.46 25.24 122.52 25.24H122.74V25.53H118.72V25.24L118.76 25.22Z" fill="white"/>
<path d="M136.26 22.0586C136.26 19.8786 137.97 18.3086 140.15 18.3086C142.33 18.3086 144.06 19.7286 144.06 21.9286C144.06 24.1286 142.33 25.6786 140.15 25.6786C137.97 25.6786 136.26 24.2586 136.26 22.0586ZM142.45 22.2886C142.45 20.1986 141.55 18.6686 139.95 18.6686C138.62 18.6686 137.86 19.8586 137.86 21.6886C137.86 23.7586 138.76 25.3286 140.36 25.3286C141.64 25.3286 142.45 24.1086 142.45 22.2886V22.2886Z" fill="white"/>
<path d="M152.35 25.2393H152.48C153.16 25.2393 153.56 25.0993 153.56 24.0893V20.3293C153.56 19.7193 153.42 19.5593 152.93 19.3793L152.48 19.2893V19.1493L154.87 18.3593H155.05V24.0993C155.05 25.1093 155.48 25.2493 156.13 25.2493H156.24V25.5193H152.35V25.2493V25.2393ZM153.21 15.4993C153.21 14.9593 153.64 14.5293 154.2 14.5293C154.76 14.5293 155.21 14.9593 155.21 15.4993C155.21 16.0393 154.78 16.4893 154.2 16.4893C153.62 16.4893 153.21 16.0593 153.21 15.4993Z" fill="white"/>
<path d="M158.25 25.4781C158.16 25.4781 158.03 25.4981 157.94 25.5281H157.89L157.69 23.6881H157.92C158.3 24.6581 159.18 25.2581 160.04 25.2581C160.81 25.2581 161.28 24.8581 161.28 24.2181C161.28 23.6381 160.79 23.2081 159.7 22.5781C158.31 21.7881 157.72 21.2781 157.72 20.3081C157.72 19.0081 158.87 18.3281 160.13 18.3281C160.87 18.3281 161.55 18.4882 161.93 18.6382L161.97 20.3281H161.75C161.52 19.3881 160.83 18.7081 159.93 18.7081C159.21 18.7081 158.78 19.1181 158.78 19.7381C158.78 20.2981 159.19 20.6381 160.42 21.2881C161.73 22.0281 162.35 22.5981 162.35 23.6481C162.35 24.8881 161.16 25.6682 159.9 25.6682C159.22 25.6682 158.62 25.4881 158.24 25.4881L158.25 25.4781Z" fill="white"/>
<path d="M164.05 24.2683C164.05 23.2183 164.88 22.5283 167.61 21.9283C167.75 21.8983 167.85 21.7784 167.85 21.6384C167.85 21.1184 167.87 20.5883 167.87 20.0883C167.87 19.1883 167.4 18.7784 166.72 18.7784C166.09 18.7784 165.66 19.1884 165.66 19.7184C165.66 19.9684 165.7 20.1684 165.79 20.3484L164.42 20.7284C164.33 20.5884 164.28 20.4184 164.28 20.2284C164.28 19.4584 165.86 18.3184 167.02 18.3184C168.48 18.3184 169.34 19.0184 169.34 20.2484C169.34 21.3084 169.3 22.9484 169.3 24.1584C169.3 24.6084 169.41 24.8784 169.79 24.8784C170.06 24.8784 170.31 24.7384 170.6 24.5384L170.74 24.7584C170.07 25.3384 169.41 25.6984 168.87 25.6984C168.37 25.6984 167.95 25.3184 167.84 24.7584C167.19 25.2984 166.33 25.6984 165.59 25.6984C164.73 25.6984 164.06 25.0683 164.06 24.2983L164.05 24.2683ZM167.82 23.4084C167.82 23.0584 167.83 22.7083 167.84 22.3683C167.84 22.2683 167.74 22.2084 167.65 22.2284C165.75 22.7584 165.39 23.3383 165.39 24.0483C165.39 24.5683 165.71 25.0183 166.13 25.0183C166.31 25.0183 166.51 24.9884 166.74 24.9184C167.39 24.7184 167.81 24.0783 167.82 23.3983V23.4084Z" fill="white"/>
<path d="M194.9 25.2183H195.08C196.11 25.2183 196.48 24.9683 196.48 23.6683V15.3283C196.48 14.0283 196.1 13.7783 195.08 13.7783H194.9V13.4883H203.61L203.7 16.0983H203.38L203.31 15.6983C203.08 14.4183 202.57 13.9883 201.22 13.9883H199.66C198.83 13.9883 198.16 14.6583 198.16 15.4883V18.7683C198.16 19.0983 198.43 19.3683 198.76 19.3683H201.47C202.55 19.3683 202.98 19.0483 202.98 18.0183V17.8583H203.32V21.3483H202.98V21.1683C202.98 20.1583 202.55 19.8383 201.47 19.8383H198.76C198.43 19.8383 198.16 20.1083 198.16 20.4383V23.6583C198.16 24.9583 198.54 25.2083 199.62 25.2083H200.14V25.4983H194.9V25.2083V25.2183Z" fill="white"/>
<path d="M205.3 22.0586C205.3 19.8786 207.01 18.3086 209.19 18.3086C211.37 18.3086 213.1 19.7286 213.1 21.9286C213.1 24.1286 211.37 25.6786 209.19 25.6786C207.01 25.6786 205.3 24.2586 205.3 22.0586ZM211.49 22.2886C211.49 20.1986 210.59 18.6686 208.99 18.6686C207.66 18.6686 206.9 19.8586 206.9 21.6886C206.9 23.7586 207.8 25.3286 209.4 25.3286C210.68 25.3286 211.49 24.1086 211.49 22.2886V22.2886Z" fill="white"/>
<path d="M230.95 25.4781C230.86 25.4781 230.73 25.4981 230.64 25.5281H230.59L230.39 23.6881H230.62C231 24.6581 231.88 25.2581 232.74 25.2581C233.51 25.2581 233.98 24.8581 233.98 24.2181C233.98 23.6381 233.49 23.2081 232.4 22.5781C231.01 21.7881 230.42 21.2781 230.42 20.3081C230.42 19.0081 231.57 18.3281 232.83 18.3281C233.57 18.3281 234.25 18.4882 234.63 18.6382L234.67 20.3281H234.45C234.22 19.3881 233.53 18.7081 232.63 18.7081C231.91 18.7081 231.48 19.1181 231.48 19.7381C231.48 20.2981 231.89 20.6381 233.12 21.2881C234.43 22.0281 235.05 22.5981 235.05 23.6481C235.05 24.8881 233.86 25.6682 232.6 25.6682C231.92 25.6682 231.32 25.4881 230.94 25.4881L230.95 25.4781Z" fill="white"/>
<path d="M18.32 24.9381C20.23 24.9381 20.98 24.0381 21.85 21.8081L29.88 1.32812H32.04L40.25 21.8081C41.19 24.1481 41.76 24.9381 43.85 24.9381H43.99V25.5181H34.2V24.9381H35.24C36.54 24.9381 37.26 24.6181 37.26 23.8181C37.26 23.5281 37.12 23.0982 36.97 22.6682L34.91 17.3882C34.42 16.1182 33.2 15.2881 31.84 15.2881H26.83C26.09 15.2881 25.42 15.7481 25.15 16.4381L23.15 21.5881C22.9 22.3481 22.68 23.0981 22.68 23.5681C22.68 24.4681 23.54 24.9381 25.02 24.9381H25.74V25.5181H18.15V24.9381H18.33H18.32ZM29.8 4.38815L26.23 13.5881C26.09 13.9381 26.35 14.3281 26.73 14.3281H32.61C33.14 14.3281 33.5 13.7981 33.31 13.2981L29.79 4.38815H29.8Z" fill="white"/>
<path d="M47.2001 4.77905C47.2001 3.51905 46.9501 3.15904 45.8701 2.79904L45.0801 2.61905V2.36905L49.8301 0.789062H50.1901V12.7791C50.1901 13.0291 50.4701 13.169 50.6701 13.019C52.1501 11.909 53.4201 11.119 55.0801 11.119C58.5701 11.119 61.1301 13.8591 61.1301 17.7791C61.1301 22.8191 57.5701 25.8091 53.3201 25.8091C50.6601 25.8091 49.0701 25.379 47.2001 24.799V4.78906V4.77905ZM58.4301 19.2891C58.4301 15.2891 56.3401 12.8091 53.6101 12.8091C53.1101 12.8091 52.6701 12.869 52.2201 13.019C51.0001 13.419 50.2201 14.4491 50.1901 16.0691V21.3391C50.1901 23.9691 51.7401 25.049 53.9001 25.049C56.4901 25.049 58.4401 22.8191 58.4401 19.2891H58.4301Z" fill="white"/>
<path d="M64.12 18.8898C63.97 14.6498 67.55 11.1498 71.79 11.1098C76.03 11.0698 79.53 13.7798 79.7 18.0198C79.86 22.2398 76.34 25.7298 72.12 25.8298C67.9 25.9298 64.28 23.1898 64.13 18.8898H64.12ZM76.5 19.0698C76.5 14.8898 74.7 11.8298 71.5 11.8298C68.84 11.8298 67.33 14.2098 67.33 17.8798C67.33 22.0198 69.13 25.1498 72.33 25.1498C74.89 25.1498 76.51 22.6998 76.51 19.0698H76.5Z" fill="white"/>
<path d="M83.66 21.5194V14.0995C83.66 13.3095 83.48 12.9094 82.76 12.7694L81.46 12.5194V12.1995L86.28 11.1895H86.64V21.6295C86.64 23.5395 87.86 24.3694 89.45 24.3694C90.34 24.3694 91.74 23.9095 92.96 23.1895C93.54 22.8495 93.7 22.4695 93.7 21.7495V14.0695C93.7 13.2795 93.48 12.9194 92.84 12.8094L91.11 12.5194V12.1995L96.4 11.1895H96.72V23.3594C96.72 23.9394 97.01 24.2995 97.69 24.2195L98.77 24.0794V24.4795L94.09 25.7794H93.69V24.0294C93.69 23.7894 93.42 23.6495 93.22 23.7895C91.2 25.0995 89.53 25.8195 87.86 25.8195C85.45 25.8195 83.65 24.5195 83.65 21.5395L83.66 21.5194Z" fill="white"/>
<path d="M145.11 25.2398H145.25C145.9 25.2398 146.29 25.0998 146.29 24.0898V20.3298C146.29 19.7198 146.15 19.5599 145.66 19.3799L145.21 19.2899V19.1498L147.61 18.3598H147.79V20.0699C147.79 20.1499 147.9 20.1699 147.93 20.0999C148.51 18.8299 149.07 18.3398 149.79 18.3398C150.33 18.3398 150.6 18.4498 151.03 18.6798L150.71 19.7798C150.3 19.5498 149.92 19.3698 149.43 19.3698C148.97 19.3698 148.48 19.6398 148.03 20.3598C147.88 20.5998 147.79 20.8899 147.79 21.1699V24.1198C147.79 25.0198 148.1 25.2498 148.87 25.2498H149.23V25.5198H145.11V25.2498V25.2398Z" fill="white"/>
<path d="M172.04 19.7885C171.73 19.0885 171.43 18.7485 170.76 18.7485H170.72V18.4785H174.48V18.7485H174.28C173.74 18.7485 173.49 18.9085 173.49 19.1985C173.49 19.3385 173.56 19.5785 173.65 19.8085L175.25 23.8785C175.27 23.9285 175.34 23.9285 175.36 23.8785L176.59 20.7885C176.68 20.5685 176.67 20.3185 176.58 20.0985L176.41 19.7085C176.14 19.0585 175.91 18.7585 175.29 18.7585H175.24V18.4885H179.02V18.7585H178.84C178.25 18.7585 177.87 18.8485 177.87 19.1885C177.87 19.3185 177.94 19.5085 178.01 19.7085L179.66 23.9185C179.68 23.9685 179.75 23.9685 179.77 23.9185L181.41 19.7085C181.48 19.5285 181.52 19.3485 181.52 19.2085C181.52 18.8885 181.27 18.7585 180.71 18.7585H180.48V18.4885H183.2V18.7585H183.15C182.47 18.7585 182.23 18.9785 181.93 19.7085L179.48 25.6285H178.92L177.03 21.1485C177 21.0885 176.92 21.0885 176.89 21.1485L175.05 25.6285H174.49L172.04 19.7985V19.7885Z" fill="white"/>
<path d="M184.06 24.2683C184.06 23.2183 184.89 22.5283 187.62 21.9283C187.76 21.8983 187.86 21.7784 187.86 21.6384C187.86 21.1184 187.88 20.5883 187.88 20.0883C187.88 19.1883 187.41 18.7784 186.73 18.7784C186.1 18.7784 185.67 19.1884 185.67 19.7184C185.67 19.9684 185.71 20.1684 185.8 20.3484L184.43 20.7284C184.34 20.5884 184.29 20.4184 184.29 20.2284C184.29 19.4584 185.87 18.3184 187.03 18.3184C188.49 18.3184 189.35 19.0184 189.35 20.2484C189.35 21.3084 189.31 22.9484 189.31 24.1584C189.31 24.6084 189.42 24.8784 189.8 24.8784C190.07 24.8784 190.32 24.7384 190.61 24.5384L190.75 24.7584C190.08 25.3384 189.42 25.6984 188.88 25.6984C188.38 25.6984 187.96 25.3184 187.85 24.7584C187.2 25.2984 186.34 25.6984 185.6 25.6984C184.74 25.6984 184.07 25.0683 184.07 24.2983L184.06 24.2683ZM187.83 23.4084C187.83 23.0584 187.84 22.7083 187.85 22.3683C187.85 22.2683 187.75 22.2084 187.66 22.2284C185.76 22.7584 185.4 23.3383 185.4 24.0483C185.4 24.5683 185.72 25.0183 186.14 25.0183C186.32 25.0183 186.52 24.9884 186.75 24.9184C187.4 24.7184 187.82 24.0783 187.83 23.3983V23.4084Z" fill="white"/>
<path d="M222.85 25.2398C222.06 25.2398 221.79 25.1098 221.81 24.1098C221.83 23.3898 221.85 21.6399 221.85 20.6399C221.85 18.9799 221.04 18.3398 219.82 18.3398C219.03 18.3398 218.18 18.6398 216.97 19.4898C216.9 19.5398 216.81 19.4899 216.81 19.4099V18.3598H216.63L214.24 19.1498V19.2899L214.69 19.3799C215.18 19.5599 215.32 19.7198 215.32 20.3298V24.1098C215.32 25.0998 214.92 25.2398 214.26 25.2398H214.13V25.5099H217.98V25.2398H217.87C217.2 25.2398 216.81 25.0798 216.81 24.0498V20.3899C216.81 20.3899 216.81 20.3498 216.82 20.3298C216.82 20.2298 216.85 20.1299 216.9 20.0399C216.91 20.0199 216.92 19.9898 216.94 19.9698C217 19.8798 217.07 19.7998 217.16 19.7398C217.18 19.7298 217.2 19.7099 217.22 19.6999C217.9 19.2799 218.6 19.0298 219.07 19.0298C219.99 19.0298 220.37 19.5299 220.37 20.7599C220.37 21.6399 220.35 23.3299 220.33 24.1299C220.31 25.0699 219.97 25.2498 219.25 25.2498H219.12V25.5198H222.95V25.2498H222.86L222.85 25.2398Z" fill="white"/>
<path d="M102.46 21.9495V13.4095C102.46 13.0095 102.23 12.7295 101.86 12.7295H100.3V12.2595C103.18 11.5395 104.19 9.84945 104.62 7.43945H105.48V10.7895C105.48 11.1995 105.74 11.4294 106.16 11.4294H110.41L109.83 12.7295H106.07C105.74 12.7295 105.47 12.9994 105.47 13.3294V22.0194C105.47 23.8494 106.41 24.3994 107.45 24.3994C108.49 24.3994 109.32 23.9695 110.29 23.0695L110.51 23.3594C109.21 25.0894 107.95 25.8394 106.48 25.8394C104 25.8394 102.45 24.5095 102.45 21.9495H102.46Z" fill="white"/>
<path d="M224.73 23.7285V19.4585C224.73 19.2585 224.61 19.1185 224.43 19.1185H223.65V18.8885C225.09 18.5285 225.59 17.6785 225.81 16.4785H226.24V18.1585C226.24 18.3685 226.37 18.4785 226.58 18.4785H228.71L228.42 19.1285H226.54C226.37 19.1285 226.24 19.2585 226.24 19.4285V23.7785C226.24 24.6985 226.71 24.9685 227.23 24.9685C227.75 24.9685 228.17 24.7485 228.65 24.2985L228.76 24.4385C228.11 25.2985 227.48 25.6785 226.74 25.6785C225.5 25.6785 224.72 25.0085 224.72 23.7385L224.73 23.7285Z" fill="white"/>
</svg>
