<svg width="114" height="27" viewBox="0 0 114 27" fill="none" xmlns="http://www.w3.org/2000/svg">
<path d="M0.140015 5.17001C0.140015 2.65001 1.52001 1 3.10001 1C4.68001 1 6.05001 2.61 6.05001 5.12C6.05001 7.63 4.67001 9.28 3.08001 9.28C1.49001 9.28 0.140015 7.69001 0.140015 5.17001V5.17001ZM4.84001 5.17001C4.84001 2.84001 4.34001 1.26999 3.08001 1.26999C1.82001 1.26999 1.35001 2.79 1.35001 5.12C1.35001 7.45 1.87001 9.01001 3.10001 9.01001C4.33001 9.01001 4.84001 7.50001 4.84001 5.17001V5.17001Z" fill="white"/>
<path d="M7.97998 8.45953C7.97998 8.17953 8.16998 7.95953 8.46998 7.95953C8.76998 7.95953 8.95998 8.14956 9.14998 8.38956C9.44998 8.76956 9.72998 8.98953 10.18 8.98953C11.15 8.98953 11.89 8.20954 11.89 6.89954C11.89 5.58954 11.19 4.90955 10.16 4.90955C9.50998 4.90955 9.12998 5.09954 8.69998 5.46954L8.52998 5.36954L8.80998 1.22955H11.26C11.86 1.22955 12.11 1.11953 12.24 0.769531H12.41L12.16 2.14954H9.06998L8.90998 4.42953C9.34998 4.12953 9.85998 3.99954 10.47 3.99954C11.85 3.99954 12.79 4.87955 12.79 6.34955C12.79 7.97955 11.51 9.27954 9.84998 9.27954C9.10998 9.27954 7.97998 9.05955 7.97998 8.44955V8.45953Z" fill="white"/>
<path d="M18.14 14.14C18.14 6.37001 24.19 1 32.29 1C35.96 1 38.12 2.29999 39.34 2.29999C39.95 2.29999 40.24 2.23 40.53 2.16H40.75L41.36 8.89001H40.82C39.38 4.21001 36.36 1.98001 31.75 1.98001C25.27 1.98001 21.85 6.95 21.85 13.03C21.85 20.34 25.74 25.16 31.89 25.16C36.43 25.16 39.49 22.75 41.75 18.18H42.43L40.16 24.95H39.94C39.65 24.84 39.22 24.81 38.93 24.81C37.31 24.81 35.19 26.03 31.44 26.03C23.99 26.03 18.12 21.64 18.12 14.15L18.14 14.14Z" fill="white"/>
<path d="M74.66 19.209C74.66 13.989 78.44 11.2191 82.08 11.2191C83.05 11.2191 84.24 11.359 85.17 11.649C85.37 11.709 85.57 11.579 85.57 11.369V4.77905C85.57 3.51905 85.25 2.97904 84.09 2.79904L83.01 2.61905V2.36905L88.19 0.789062H88.55V22.7791C88.55 23.6391 88.84 24.1491 89.74 24.0391L90.71 23.929V24.359L85.96 25.7591H85.56V23.5991C83.94 24.9291 82.36 25.799 80.63 25.799C77.32 25.799 74.66 23.349 74.66 19.209ZM85.57 20.709V15.0891C85.57 13.8291 84.79 12.6591 83.59 12.2591C83 12.0691 82.38 11.9691 81.72 11.9691C79.52 11.9691 77.29 13.629 77.29 17.549C77.29 22.009 79.77 24.209 82.22 24.209C82.23 24.209 82.24 24.209 82.25 24.209C84.11 24.199 85.57 22.569 85.57 20.709Z" fill="white"/>
<path d="M62.2899 16.9492H71.8199V16.3691C71.4199 16.1891 71.0999 15.7591 70.9599 15.3291C70.1299 13.0991 68.6199 11.1191 65.5999 11.1191C62.5799 11.1191 58.9399 13.9591 58.9399 18.7491C58.9399 22.9591 61.4999 25.8391 65.5999 25.8391C68.2299 25.8391 69.8499 24.9391 71.7899 22.9991L71.3899 22.5291C69.9099 23.6791 68.7599 24.1891 66.9999 24.1891C63.6899 24.1891 61.6699 21.3491 61.6699 17.7791C61.6699 17.7391 61.6699 17.7092 61.6699 17.6692C61.6799 17.2092 61.7999 16.9592 62.2899 16.9492V16.9492ZM65.1599 11.9492C66.7999 11.9492 67.7299 13.4292 68.1299 15.6392C68.1799 15.9492 67.9599 16.1692 67.6799 16.1692H62.3499C62.0599 16.1692 61.8399 15.9792 61.8999 15.6292C62.3899 13.0892 63.7399 11.9591 65.1499 11.9591L65.1599 11.9492Z" fill="white"/>
<path d="M93.46 24.9686H93.71C95.08 24.9686 95.87 24.6786 95.87 22.6686V15.1486C95.87 13.9286 95.58 13.5986 94.61 13.2386L93.71 13.0586V12.7686L98.5 11.1886H98.86V22.6686C98.86 24.6886 99.72 24.9686 101.02 24.9686H101.24V25.5086H93.47V24.9686H93.46ZM95.22 5.8486C95.01 4.6086 95.94 3.55859 97.17 3.55859C98.32 3.55859 99.19 4.4186 99.19 5.4986C99.19 6.5786 98.36 7.44861 97.23 7.47861C96.27 7.50861 95.38 6.7986 95.22 5.8486Z" fill="white"/>
<path d="M45.3199 24.9684H45.6099C46.9099 24.9684 47.6999 24.6785 47.6999 22.6685V15.1484C47.6999 13.9284 47.4099 13.5984 46.4399 13.2384L45.5399 13.0584V12.7684L50.3299 11.1884H50.6899V14.6084C50.6899 14.7684 50.9099 14.8185 50.9799 14.6685C52.1399 12.1385 53.2599 11.1484 54.6899 11.1484C55.7699 11.1484 56.3099 11.3684 57.1699 11.8284L56.5199 14.0284C55.6899 13.5584 54.9399 13.1985 53.9599 13.1985C53.0399 13.1985 52.0699 13.7484 51.1599 15.1784C50.8499 15.6584 50.6899 16.2284 50.6899 16.8084V22.7084C50.6899 24.5084 51.2999 24.9785 52.8499 24.9785H53.5699V25.5184H45.3299V24.9785L45.3199 24.9684Z" fill="white"/>
<path d="M105.19 21.9495V13.4095C105.19 13.0095 104.96 12.7295 104.59 12.7295H103.03V12.2595C105.91 11.5395 106.92 9.84945 107.35 7.43945H108.21V10.7895C108.21 11.1995 108.47 11.4294 108.89 11.4294H113.14L112.56 12.7295H108.8C108.47 12.7295 108.2 12.9994 108.2 13.3294V22.0194C108.2 23.8494 109.14 24.3994 110.18 24.3994C111.22 24.3994 112.05 23.9695 113.02 23.0695L113.24 23.3594C111.94 25.0894 110.68 25.8394 109.21 25.8394C106.73 25.8394 105.18 24.5095 105.18 21.9495H105.19Z" fill="white"/>
</svg>
