<svg width="158" height="25" viewBox="0 0 158 25" fill="none" xmlns="http://www.w3.org/2000/svg">
<path d="M0.140137 4.68562C0.140137 2.16562 1.52014 0.515625 3.10014 0.515625C4.68014 0.515625 6.05014 2.12564 6.05014 4.63564C6.05014 7.14564 4.67014 8.79562 3.08014 8.79562C1.49014 8.79562 0.140137 7.20562 0.140137 4.68562ZM4.84014 4.68562C4.84014 2.35562 4.34014 0.785629 3.08014 0.785629C1.82014 0.785629 1.35014 2.30564 1.35014 4.63564C1.35014 6.96564 1.87014 8.52563 3.10014 8.52563C4.33014 8.52563 4.84014 7.01562 4.84014 4.68562Z" fill="white"/>
<path d="M7.92017 8.29562C8.63017 7.43562 9.16017 6.84563 9.97017 6.00563C11.1802 4.73563 11.6602 4.03564 11.6602 2.99564C11.6602 1.87564 11.0502 1.30563 10.1802 1.30563C9.24017 1.30563 8.68017 1.82564 8.38017 2.96564H8.12017C8.36017 1.54564 9.20017 0.515625 10.6502 0.515625C11.8502 0.515625 12.7402 1.30562 12.7402 2.54562C12.7402 3.78562 12.1602 4.43563 10.8702 5.62563C10.1102 6.30563 9.58017 6.84563 8.80017 7.78563H11.2202C12.0702 7.78563 12.3802 7.54563 12.5502 6.81563L12.5902 6.67563H12.8202L12.5002 8.69563H7.92017V8.31563V8.29562Z" fill="white"/>
<path d="M18.1401 23.9478H18.5001C20.5501 23.9478 21.3101 23.4478 21.3101 20.8478V4.17781C21.3101 1.58781 20.5501 1.08781 18.5001 1.08781H18.1401V0.507812H28.0401V1.08781H27.4601C25.4401 1.08781 24.6501 1.58781 24.6501 4.17781V20.8478C24.6501 23.4378 25.4401 23.9478 27.4601 23.9478H28.0401V24.5278H18.1401V23.9478Z" fill="white"/>
<path d="M93.8102 13.3597C92.9802 11.5597 92.3302 10.9797 91.0002 10.9797H90.9302V10.4397H98.9202V10.9797H98.0902C97.1502 10.9797 96.6502 11.2997 96.6502 11.9497C96.6502 12.3097 96.7602 12.7797 97.0102 13.3497L100.4 21.3997C100.45 21.5197 100.63 21.5197 100.68 21.3997L103.82 13.5697C104.07 12.9197 104.22 12.4897 104.22 12.0897C104.22 11.4097 103.64 10.9697 102.64 10.9697H102.06V10.4297H107.85V10.9697H107.74C106.37 10.9697 105.69 11.6197 104.9 13.3797L100.08 24.6797H98.8902L93.8102 13.3397V13.3597Z" fill="white"/>
<path d="M109.3 23.9764H109.55C110.92 23.9764 111.71 23.6864 111.71 21.6764V14.1564C111.71 12.9364 111.42 12.6064 110.45 12.2464L109.55 12.0664V11.7764L114.34 10.1964H114.7V21.6764C114.7 23.6964 115.56 23.9764 116.86 23.9764H117.08V24.5164H109.31V23.9764H109.3ZM111.03 4.50641C111.03 3.42641 111.89 2.56641 113.01 2.56641C114.13 2.56641 115.03 3.42641 115.03 4.50641C115.03 5.58641 114.17 6.4864 113.01 6.4864C111.85 6.4864 111.03 5.62641 111.03 4.50641Z" fill="white"/>
<path d="M134.92 13.0797C134.31 11.6797 133.7 10.9897 132.36 10.9897H132.29V10.4497H139.81V10.9897H139.41C138.33 10.9897 137.83 11.3097 137.83 11.8897C137.83 12.1797 137.97 12.6497 138.15 13.1097L141.35 21.2497C141.39 21.3497 141.53 21.3497 141.57 21.2497L144.02 15.0697C144.2 14.6197 144.19 14.1197 144 13.6797L143.65 12.8897C143.11 11.5897 142.64 10.9797 141.42 10.9797H141.31V10.4397H148.87V10.9797H148.51C147.32 10.9797 146.57 11.1597 146.57 11.8397C146.57 12.0897 146.71 12.4897 146.86 12.8797L150.17 21.2997C150.21 21.3997 150.35 21.3997 150.39 21.2997L153.66 12.8797C153.8 12.5197 153.88 12.1597 153.88 11.8697C153.88 11.2197 153.38 10.9697 152.26 10.9697H151.79V10.4297H157.23V10.9697H157.12C155.75 10.9697 155.28 11.3997 154.67 12.8797L149.77 24.7197H148.65L144.87 15.7597C144.82 15.6397 144.64 15.6397 144.59 15.7597L140.91 24.7097H139.79L134.89 13.0497L134.92 13.0797Z" fill="white"/>
<path d="M65.5601 15.9589H75.0901V15.3789C74.6901 15.1989 74.3701 14.7689 74.2301 14.3389C73.4001 12.1089 71.8901 10.1289 68.8701 10.1289C65.8501 10.1289 62.2101 12.9689 62.2101 17.7589C62.2101 21.9689 64.7701 24.8489 68.8701 24.8489C71.5001 24.8489 73.1201 23.9489 75.0601 22.0089L74.6601 21.5389C73.1801 22.6889 72.0301 23.1989 70.2701 23.1989C66.9601 23.1989 64.9401 20.3589 64.9401 16.7889C64.9401 16.7489 64.9401 16.7189 64.9401 16.6789C64.9501 16.2189 65.0701 15.9689 65.5601 15.9589ZM68.4301 10.9589C70.0701 10.9589 71.0001 12.4389 71.4001 14.6489C71.4501 14.9589 71.2301 15.1789 70.9501 15.1789H65.6201C65.3301 15.1789 65.1101 14.9889 65.1701 14.6389C65.6601 12.0989 67.0101 10.9689 68.4201 10.9689L68.4301 10.9589Z" fill="white"/>
<path d="M121.94 15.9589H131.47V15.3789C131.07 15.1989 130.75 14.7689 130.61 14.3389C129.78 12.1089 128.27 10.1289 125.25 10.1289C122.23 10.1289 118.59 12.9689 118.59 17.7589C118.59 21.9689 121.15 24.8489 125.25 24.8489C127.88 24.8489 129.5 23.9489 131.44 22.0089L131.04 21.5389C129.56 22.6889 128.41 23.1989 126.65 23.1989C123.34 23.1989 121.32 20.3589 121.32 16.7889C121.32 16.7489 121.32 16.7189 121.32 16.6789C121.33 16.2189 121.45 15.9689 121.94 15.9589ZM124.81 10.9589C126.45 10.9589 127.38 12.4389 127.78 14.6489C127.83 14.9589 127.61 15.1789 127.33 15.1789H122C121.71 15.1789 121.49 14.9889 121.55 14.6389C122.04 12.0989 123.39 10.9689 124.8 10.9689L124.81 10.9589Z" fill="white"/>
<path d="M77.4701 23.9763H77.7601C79.0601 23.9763 79.8501 23.6863 79.8501 21.6763V14.1562C79.8501 12.9362 79.5601 12.6063 78.5901 12.2463L77.6901 12.0663V11.7763L82.4801 10.1963H82.8401V13.6162C82.8401 13.7762 83.0601 13.8263 83.1301 13.6763C84.2901 11.1463 85.4101 10.1562 86.8401 10.1562C87.9201 10.1562 88.4601 10.3763 89.3201 10.8363L88.6701 13.0363C87.8401 12.5663 87.0901 12.2063 86.1101 12.2063C85.1901 12.2063 84.2201 12.7562 83.3101 14.1862C83.0001 14.6662 82.8401 15.2363 82.8401 15.8163V21.7162C82.8401 23.5162 83.4501 23.9863 85.0001 23.9863H85.7201V24.5262H77.4801V23.9863L77.4701 23.9763Z" fill="white"/>
<path d="M48.3501 23.9784C46.7701 23.9784 46.2301 23.7285 46.2601 21.7085C46.3001 20.2684 46.3301 16.7784 46.3301 14.7584C46.3301 11.4484 44.7101 10.1484 42.2601 10.1484C40.6701 10.1484 38.9901 10.7484 36.5701 12.4384C36.4401 12.5284 36.2501 12.4384 36.2501 12.2784V10.1784H35.8901L31.1001 11.7584V12.0484L32.0001 12.2284C32.9701 12.5884 33.2601 12.9084 33.2601 14.1384V21.6984C33.2601 23.6784 32.4701 23.9684 31.1401 23.9684H30.8901V24.5084H38.5901V23.9684H38.3701C37.0401 23.9684 36.2501 23.6484 36.2501 21.5884V14.2684C36.2501 14.0684 36.2901 13.8984 36.3301 13.7484C36.3401 13.7184 36.3601 13.6884 36.3701 13.6584C36.4101 13.5584 36.4601 13.4584 36.5201 13.3784C36.5401 13.3384 36.5701 13.3084 36.6001 13.2784C36.6601 13.2084 36.7301 13.1384 36.8001 13.0784C36.8301 13.0584 36.8601 13.0284 36.8901 13.0084C36.9501 12.9684 37.0001 12.9284 37.0601 12.8884C38.4201 12.0484 39.8301 11.5484 40.7601 11.5484C42.5901 11.5484 43.3501 12.5584 43.3501 15.0084C43.3501 16.7684 43.3101 20.1584 43.2801 21.7384C43.2401 23.6084 42.5601 23.9684 41.1201 23.9684H40.8701V24.5084H48.5401V23.9684H48.3601L48.3501 23.9784Z" fill="white"/>
<path d="M51.9101 20.9592V12.4192C51.9101 12.0192 51.6801 11.7392 51.3101 11.7392H49.7501V11.2692C52.6301 10.5492 53.6401 8.85922 54.0701 6.44922H54.9301V9.79921C54.9301 10.2092 55.1901 10.4392 55.6101 10.4392H59.8601L59.2801 11.7392H55.5201C55.1901 11.7392 54.9201 12.0092 54.9201 12.3392V21.0292C54.9201 22.8592 55.8601 23.4092 56.9001 23.4092C57.9401 23.4092 58.7701 22.9792 59.7401 22.0792L59.9601 22.3692C58.6601 24.0992 57.4001 24.8492 55.9301 24.8492C53.4501 24.8492 51.9001 23.5192 51.9001 20.9592H51.9101Z" fill="white"/>
</svg>
